<svg width="49" height="48" viewBox="0 0 49 48" fill="none" xmlns="http://www.w3.org/2000/svg">
<circle cx="24.5" cy="24" r="23.5" fill="#F4F8FF" stroke="#236FFF"/>
<path d="M22.5 25C22.9294 25.5741 23.4773 26.0492 24.1065 26.3929C24.7357 26.7367 25.4315 26.9411 26.1466 26.9923C26.8617 27.0435 27.5795 26.9404 28.2513 26.6898C28.9231 26.4392 29.5331 26.0471 30.04 25.54L33.04 22.54C33.9507 21.597 34.4547 20.334 34.4433 19.023C34.4319 17.712 33.9061 16.4579 32.979 15.5309C32.052 14.6039 30.7979 14.078 29.487 14.0666C28.176 14.0552 26.913 14.5592 25.97 15.47L24.25 17.18M26.5 23C26.0705 22.4259 25.5226 21.9508 24.8934 21.6071C24.2642 21.2633 23.5684 21.0589 22.8533 21.0077C22.1382 20.9564 21.4204 21.0596 20.7486 21.3102C20.0769 21.5608 19.4668 21.9529 18.96 22.46L15.96 25.46C15.0492 26.403 14.5452 27.666 14.5566 28.977C14.568 30.288 15.0938 31.542 16.0209 32.4691C16.9479 33.3961 18.202 33.922 19.5129 33.9334C20.8239 33.9448 22.0869 33.4408 23.03 32.53L24.74 30.82" stroke="#236FFF" stroke-width="1.5" stroke-linecap="round" stroke-linejoin="round"/>
</svg>
