<svg width="49" height="48" viewBox="0 0 49 48" fill="none" xmlns="http://www.w3.org/2000/svg">
<circle cx="24.5" cy="24" r="23.5" fill="#F4F8FF" stroke="#236FFF"/>
<path d="M27.6819 25.7276C28.9742 25.7276 30.0218 24.6801 30.0218 23.388C30.0218 22.0958 28.9742 21.0484 27.6819 21.0484C26.3896 21.0484 25.342 22.0958 25.342 23.388C25.342 24.6801 26.3896 25.7276 27.6819 25.7276Z" stroke="#236FFF" stroke-width="1.5" stroke-miterlimit="10"/>
<path d="M31.645 32.1416C28.0405 32.1244 25.4206 32.1077 21.8162 32.0905C21.9544 29.4266 23.3451 27.4327 24.9967 27.1396C25.7846 26.9999 26.6852 27.2371 27.3454 27.7268C28.2679 28.4103 28.9422 29.7488 28.5198 30.4595C28.3618 30.726 28.0332 30.9314 27.6974 30.9408C27.299 30.9523 26.9225 30.6869 26.7582 30.3865C26.3525 29.6451 27.0675 28.3764 27.9326 27.7268C28.5813 27.2398 29.4824 26.9733 30.2813 27.1094C31.9276 27.3889 33.3356 29.4068 33.4504 32.1135" stroke="#236FFF" stroke-width="1.5" stroke-linecap="round" stroke-linejoin="round"/>
<path d="M21.3653 20.6792C22.6575 20.6792 23.7051 19.6317 23.7051 18.3396C23.7051 17.0475 22.6575 16 21.3653 16C20.073 16 19.0254 17.0475 19.0254 18.3396C19.0254 19.6317 20.073 20.6792 21.3653 20.6792Z" stroke="#236FFF" stroke-width="1.5" stroke-miterlimit="10"/>
<path d="M25.3288 27.0932C21.7244 27.076 19.1045 27.0593 15.5 27.0421C15.6382 24.3781 17.029 22.3842 18.6805 22.0912C19.4685 21.9515 20.3691 22.1887 21.0292 22.6783C21.9517 23.3619 22.626 24.7004 22.2036 25.4111C22.0456 25.6775 21.7171 25.883 21.3812 25.8923C20.9828 25.9038 20.6063 25.6384 20.4421 25.3381C20.0363 24.5966 20.7513 23.328 21.6164 22.6783C22.2652 22.1913 23.1663 21.9249 23.9652 22.061" stroke="#236FFF" stroke-width="1.5" stroke-linecap="round" stroke-linejoin="round"/>
</svg>
