<svg width="49" height="48" viewBox="0 0 49 48" fill="none" xmlns="http://www.w3.org/2000/svg">
<circle cx="24.5" cy="24" r="23.5" fill="#F4F8FF" stroke="#236FFF"/>
<path fill-rule="evenodd" clip-rule="evenodd" d="M19.2679 14.25H29.7321C30.5449 14.25 31.2006 14.25 31.7315 14.2934C32.2781 14.338 32.7582 14.4324 33.2025 14.6587C33.9081 15.0183 34.4817 15.5919 34.8413 16.2975C35.0676 16.7418 35.162 17.2219 35.2066 17.7685C35.25 18.2994 35.25 18.955 35.25 19.7679V28.2321C35.25 29.045 35.25 29.7006 35.2066 30.2315C35.162 30.7781 35.0676 31.2582 34.8413 31.7025C34.4817 32.4081 33.9081 32.9817 33.2025 33.3413C32.7582 33.5676 32.2781 33.662 31.7315 33.7066C31.2006 33.75 30.545 33.75 29.7321 33.75H19.2679C18.455 33.75 17.7994 33.75 17.2685 33.7066C16.7219 33.662 16.2418 33.5676 15.7975 33.3413C15.0919 32.9817 14.5183 32.4081 14.1587 31.7025C13.9324 31.2582 13.838 30.7781 13.7934 30.2315C13.75 29.7006 13.75 29.0449 13.75 28.2321V19.7679C13.75 18.9551 13.75 18.2994 13.7934 17.7685C13.838 17.2219 13.9324 16.7418 14.1587 16.2975C14.5183 15.5919 15.0919 15.0183 15.7975 14.6587C16.2418 14.4324 16.7219 14.338 17.2685 14.2934C17.7994 14.25 18.4551 14.25 19.2679 14.25ZM33.75 25.1893V19.8C33.75 18.9475 33.7494 18.3533 33.7116 17.8907C33.6745 17.4368 33.6054 17.176 33.5048 16.9785C33.289 16.5552 32.9448 16.211 32.5215 15.9952C32.324 15.8946 32.0632 15.8255 31.6093 15.7884C31.1467 15.7506 30.5525 15.75 29.7 15.75H19.3C18.4475 15.75 17.8533 15.7506 17.3907 15.7884C16.9368 15.8255 16.676 15.8946 16.4785 15.9952C16.0552 16.211 15.711 16.5552 15.4952 16.9785C15.3946 17.176 15.3255 17.4368 15.2884 17.8907C15.2506 18.3533 15.25 18.9475 15.25 19.8V28.2C15.25 29.0525 15.2506 29.6467 15.2884 30.1093C15.3255 30.5632 15.3946 30.824 15.4952 31.0215C15.706 31.4352 16.0395 31.7733 16.4496 31.9898L22.8568 25.5825C23.0389 25.4004 23.2061 25.2332 23.3573 25.1048C23.5203 24.9664 23.7134 24.8297 23.9592 24.7499C24.3107 24.6357 24.6893 24.6357 25.0408 24.7499C25.2866 24.8297 25.4797 24.9664 25.6427 25.1048C25.7939 25.2332 25.9611 25.4004 26.1432 25.5825L26.5 25.9393L28.8568 23.5825C29.0389 23.4004 29.2061 23.2332 29.3573 23.1048C29.5203 22.9664 29.7134 22.8297 29.9592 22.7499C30.3107 22.6357 30.6893 22.6357 31.0408 22.7499C31.2866 22.8297 31.4797 22.9664 31.6427 23.1048C31.7939 23.2332 31.9611 23.4004 32.1431 23.5825L33.75 25.1893ZM25.101 26.6617C24.8943 26.4549 24.7707 26.3322 24.6719 26.2483C24.6116 26.1972 24.5822 26.1797 24.574 26.1754C24.5258 26.1605 24.4742 26.1605 24.426 26.1754C24.4178 26.1797 24.3884 26.1972 24.3281 26.2483C24.2293 26.3322 24.1057 26.4549 23.899 26.6617L18.3141 32.2465C18.6 32.2499 18.925 32.25 19.3 32.25H29.7C30.075 32.25 30.4 32.2499 30.6859 32.2465L25.101 26.6617ZM32.5504 31.9898L27.5607 27L29.899 24.6617C30.1057 24.4549 30.2293 24.3322 30.3281 24.2483C30.3884 24.1972 30.4178 24.1797 30.426 24.1754C30.4742 24.1605 30.5258 24.1605 30.574 24.1754C30.5822 24.1797 30.6116 24.1972 30.6719 24.2483C30.7707 24.3322 30.8943 24.4549 31.101 24.6617L33.75 27.3107V28.2C33.75 29.0525 33.7494 29.6467 33.7116 30.1093C33.6745 30.5632 33.6054 30.824 33.5048 31.0215C33.294 31.4352 32.9605 31.7733 32.5504 31.9898ZM30.4285 24.1742C30.4285 24.1742 30.428 24.1745 30.427 24.1749L30.4285 24.1742ZM20.5 19.75C19.8096 19.75 19.25 20.3096 19.25 21C19.25 21.6904 19.8096 22.25 20.5 22.25C21.1904 22.25 21.75 21.6904 21.75 21C21.75 20.3096 21.1904 19.75 20.5 19.75ZM17.75 21C17.75 19.4812 18.9812 18.25 20.5 18.25C22.0188 18.25 23.25 19.4812 23.25 21C23.25 22.5188 22.0188 23.75 20.5 23.75C18.9812 23.75 17.75 22.5188 17.75 21Z" fill="#236FFF"/>
</svg>
