<svg width="25" height="25" viewBox="0 0 25 25" fill="none" xmlns="http://www.w3.org/2000/svg">
<path fill-rule="evenodd" clip-rule="evenodd" d="M7.75178 3.03796H18.216C19.0288 3.03796 19.6844 3.03795 20.2154 3.08133C20.762 3.12599 21.2421 3.22035 21.6863 3.44669C22.392 3.80621 22.9656 4.37989 23.3252 5.0855C23.5515 5.52972 23.6459 6.00986 23.6905 6.5565C23.7339 7.0874 23.7339 7.74301 23.7339 8.55584V17.0201C23.7339 17.8329 23.7339 18.4885 23.6905 19.0194C23.6459 19.5661 23.5515 20.0462 23.3252 20.4904C22.9656 21.196 22.392 21.7697 21.6863 22.1292C21.2421 22.3556 20.762 22.4499 20.2154 22.4946C19.6845 22.538 19.0288 22.538 18.216 22.538H7.75176C6.93893 22.538 6.28332 22.538 5.75242 22.4946C5.20578 22.4499 4.72564 22.3556 4.28142 22.1292C3.57581 21.7697 3.00214 21.196 2.64261 20.4904C2.41627 20.0462 2.32191 19.5661 2.27725 19.0194C2.23387 18.4885 2.23388 17.8329 2.23389 17.0201V8.55586C2.23388 7.74302 2.23387 7.08741 2.27725 6.5565C2.32191 6.00986 2.41627 5.52972 2.64261 5.0855C3.00214 4.37989 3.57581 3.80621 4.28142 3.44669C4.72564 3.22035 5.20578 3.12599 5.75242 3.08133C6.28333 3.03795 6.93894 3.03796 7.75178 3.03796ZM22.2339 13.9773V8.58796C22.2339 7.73551 22.2333 7.14128 22.1955 6.67864C22.1584 6.22477 22.0893 5.964 21.9887 5.76649C21.7729 5.34312 21.4287 4.99891 21.0054 4.7832C20.8078 4.68256 20.5471 4.61343 20.0932 4.57635C19.6306 4.53855 19.0363 4.53796 18.1839 4.53796H7.78389C6.93143 4.53796 6.3372 4.53855 5.87457 4.57635C5.42069 4.61343 5.15993 4.68256 4.96241 4.7832C4.53904 4.99891 4.19484 5.34312 3.97912 5.76649C3.87848 5.964 3.80935 6.22477 3.77227 6.67864C3.73447 7.14128 3.73389 7.73551 3.73389 8.58796V16.988C3.73389 17.8404 3.73447 18.4347 3.77227 18.8973C3.80935 19.3512 3.87848 19.6119 3.97912 19.8094C4.1899 20.2231 4.52336 20.5612 4.93347 20.7777L11.3407 14.3705C11.5228 14.1884 11.69 14.0212 11.8412 13.8928C12.0042 13.7544 12.1973 13.6177 12.4431 13.5378C12.7946 13.4236 13.1732 13.4236 13.5247 13.5378C13.7705 13.6177 13.9636 13.7544 14.1266 13.8928C14.2778 14.0212 14.445 14.1884 14.6271 14.3705L14.9839 14.7273L17.3407 12.3705C17.5228 12.1884 17.69 12.0212 17.8412 11.8928C18.0042 11.7544 18.1973 11.6177 18.4431 11.5378C18.7946 11.4236 19.1732 11.4236 19.5247 11.5378C19.7705 11.6177 19.9636 11.7544 20.1266 11.8928C20.2778 12.0211 20.445 12.1884 20.627 12.3704L22.2339 13.9773ZM13.5849 15.4497C13.3782 15.2429 13.2546 15.1201 13.1558 15.0363C13.0955 14.9851 13.0661 14.9677 13.0579 14.9634C13.0097 14.9484 12.9581 14.9484 12.9099 14.9634C12.9017 14.9677 12.8722 14.9851 12.812 15.0363C12.7132 15.1201 12.5896 15.2429 12.3828 15.4497L6.79801 21.0345C7.08385 21.0378 7.40888 21.038 7.78389 21.038H18.1839C18.5589 21.038 18.8839 21.0378 19.1698 21.0345L13.5849 15.4497ZM21.0343 20.7777L16.0445 15.788L18.3828 13.4497C18.5896 13.2429 18.7132 13.1201 18.812 13.0363C18.8722 12.9851 18.9017 12.9677 18.9099 12.9634C18.9581 12.9484 19.0097 12.9484 19.0579 12.9634C19.0661 12.9677 19.0955 12.9851 19.1558 13.0363C19.2546 13.1201 19.3782 13.2429 19.5849 13.4497L22.2339 16.0986V16.988C22.2339 17.8404 22.2333 18.4347 22.1955 18.8973C22.1584 19.3512 22.0893 19.6119 21.9887 19.8094C21.7779 20.2231 21.4444 20.5612 21.0343 20.7777ZM18.9124 12.9622C18.9124 12.9622 18.9119 12.9625 18.9109 12.9629L18.9124 12.9622ZM8.98389 8.53796C8.29353 8.53796 7.73389 9.09761 7.73389 9.78796C7.73389 10.4783 8.29353 11.038 8.98389 11.038C9.67424 11.038 10.2339 10.4783 10.2339 9.78796C10.2339 9.09761 9.67424 8.53796 8.98389 8.53796ZM6.23389 9.78796C6.23389 8.26918 7.4651 7.03796 8.98389 7.03796C10.5027 7.03796 11.7339 8.26918 11.7339 9.78796C11.7339 11.3067 10.5027 12.538 8.98389 12.538C7.4651 12.538 6.23389 11.3067 6.23389 9.78796Z" fill="#236FFF"/>
</svg>
