<svg width="25" height="25" viewBox="0 0 25 25" fill="none" xmlns="http://www.w3.org/2000/svg">
<path d="M16.1659 14.2367C17.4582 14.2367 18.5058 13.1892 18.5058 11.8971C18.5058 10.605 17.4582 9.5575 16.1659 9.5575C14.8736 9.5575 13.826 10.605 13.826 11.8971C13.826 13.1892 14.8736 14.2367 16.1659 14.2367Z" stroke="#236FFF" stroke-width="1.5" stroke-miterlimit="10"/>
<path d="M20.1289 20.6508C16.5245 20.6336 13.9045 20.6169 10.3001 20.5997C10.4383 17.9358 11.8291 15.9418 13.4806 15.6488C14.2685 15.5091 15.1691 15.7463 15.8293 16.2359C16.7518 16.9195 17.4261 18.258 17.0037 18.9687C16.8457 19.2351 16.5172 19.4406 16.1813 19.45C15.7829 19.4614 15.4064 19.196 15.2421 18.8957C14.8364 18.1542 15.5514 16.8856 16.4165 16.2359C17.0652 15.7489 17.9663 15.4825 18.7652 15.6186C20.4116 15.8981 21.8196 17.9159 21.9343 20.6226" stroke="#236FFF" stroke-width="1.5" stroke-linecap="round" stroke-linejoin="round"/>
<path d="M9.84915 9.18836C11.1414 9.18836 12.189 8.14089 12.189 6.84876C12.189 5.55663 11.1414 4.50916 9.84915 4.50916C8.55688 4.50916 7.50928 5.55663 7.50928 6.84876C7.50928 8.14089 8.55688 9.18836 9.84915 9.18836Z" stroke="#236FFF" stroke-width="1.5" stroke-miterlimit="10"/>
<path d="M13.8127 15.6023C10.2083 15.5851 7.58835 15.5684 3.98389 15.5512C4.12208 12.8873 5.51286 10.8934 7.16439 10.6004C7.95234 10.4606 8.85294 10.6979 9.51313 11.1875C10.4356 11.871 11.1099 13.2095 10.6875 13.9202C10.5295 14.1867 10.201 14.3921 9.86513 14.4015C9.46672 14.413 9.09021 14.1476 8.92595 13.8472C8.52024 13.1058 9.23519 11.8372 10.1003 11.1875C10.749 10.7005 11.6502 10.434 12.4491 10.5701" stroke="#236FFF" stroke-width="1.5" stroke-linecap="round" stroke-linejoin="round"/>
</svg>
