<svg width="25" height="25" viewBox="0 0 25 25" fill="none" xmlns="http://www.w3.org/2000/svg">
<path d="M10.9839 13.2301C11.4133 13.8042 11.9612 14.2793 12.5904 14.623C13.2196 14.9668 13.9154 15.1712 14.6305 15.2224C15.3457 15.2736 16.0635 15.1704 16.7352 14.9198C17.407 14.6693 18.017 14.2771 18.5239 13.7701L21.5239 10.7701C22.4347 9.82706 22.9386 8.56405 22.9272 7.25306C22.9159 5.94208 22.39 4.68802 21.463 3.76098C20.5359 2.83393 19.2819 2.30809 17.9709 2.2967C16.6599 2.28531 15.3969 2.78928 14.4539 3.70007L12.7339 5.41007M14.9839 11.2301C14.5544 10.6559 14.0065 10.1809 13.3773 9.83713C12.7481 9.49337 12.0524 9.28895 11.3372 9.23773C10.6221 9.18652 9.90429 9.2897 9.23253 9.54029C8.56077 9.79087 7.95076 10.183 7.44387 10.6901L4.44387 13.6901C3.53308 14.6331 3.02911 15.8961 3.0405 17.2071C3.05189 18.5181 3.57774 19.7721 4.50478 20.6992C5.43182 21.6262 6.68588 22.152 7.99687 22.1634C9.30785 22.1748 10.5709 21.6709 11.5139 20.7601L13.2239 19.0501" stroke="#236FFF" stroke-width="1.5" stroke-linecap="round" stroke-linejoin="round"/>
</svg>
