<svg width="512" height="512" viewBox="0 0 512 512" fill="none" xmlns="http://www.w3.org/2000/svg">
<rect width="512" height="512" rx="50" fill="white"/>
<g clip-path="url(#clip0_123_68)">
<path d="M410.543 452.831C426.283 452.831 439.042 440.073 439.042 424.334C439.042 408.596 426.283 395.838 410.543 395.838C394.803 395.838 382.044 408.596 382.044 424.334C382.044 440.073 394.803 452.831 410.543 452.831Z" fill="#56E1FF"/>
<path d="M410.543 449.592C426.283 449.592 439.042 436.834 439.042 421.095C439.042 405.357 426.283 392.599 410.543 392.599C394.803 392.599 382.044 405.357 382.044 421.095C382.044 436.834 394.803 449.592 410.543 449.592Z" fill="#56E0FF"/>
<path d="M410.556 446.346C426.296 446.346 439.055 433.588 439.055 417.85C439.055 402.112 426.296 389.353 410.556 389.353C394.816 389.353 382.057 402.112 382.057 417.85C382.057 433.588 394.816 446.346 410.556 446.346Z" fill="#55E0FF"/>
<path d="M410.569 443.081C426.309 443.081 439.068 430.323 439.068 414.585C439.068 398.846 426.309 386.088 410.569 386.088C394.829 386.088 382.07 398.846 382.07 414.585C382.07 430.323 394.829 443.081 410.569 443.081Z" fill="#55DFFF"/>
<path d="M410.595 439.816C426.335 439.816 439.094 427.058 439.094 411.32C439.094 395.581 426.335 382.823 410.595 382.823C394.856 382.823 382.096 395.581 382.096 411.32C382.096 427.058 394.856 439.816 410.595 439.816Z" fill="#55DFFF"/>
<path d="M410.621 436.538C426.361 436.538 439.121 423.779 439.121 408.041C439.121 392.303 426.361 379.545 410.621 379.545C394.882 379.545 382.122 392.303 382.122 408.041C382.122 423.779 394.882 436.538 410.621 436.538Z" fill="#55DEFF"/>
<path d="M410.648 433.246C426.387 433.246 439.147 420.488 439.147 404.75C439.147 389.012 426.387 376.253 410.648 376.253C394.908 376.253 382.148 389.012 382.148 404.75C382.148 420.488 394.908 433.246 410.648 433.246Z" fill="#54DEFF"/>
<path d="M410.687 429.955C426.427 429.955 439.186 417.197 439.186 401.459C439.186 385.72 426.427 372.962 410.687 372.962C394.947 372.962 382.188 385.72 382.188 401.459C382.188 417.197 394.947 429.955 410.687 429.955Z" fill="#54DDFF"/>
<path d="M410.72 426.657C426.459 426.657 439.219 413.899 439.219 398.161C439.219 382.422 426.459 369.664 410.72 369.664C394.98 369.664 382.22 382.422 382.22 398.161C382.22 413.899 394.98 426.657 410.72 426.657Z" fill="#54DCFF"/>
<path d="M410.759 423.353C426.499 423.353 439.258 410.595 439.258 394.856C439.258 379.118 426.499 366.36 410.759 366.36C395.019 366.36 382.26 379.118 382.26 394.856C382.26 410.595 395.019 423.353 410.759 423.353Z" fill="#54DCFF"/>
<path d="M410.798 420.042C426.538 420.042 439.297 407.284 439.297 391.545C439.297 375.807 426.538 363.049 410.798 363.049C395.058 363.049 382.299 375.807 382.299 391.545C382.299 407.284 395.058 420.042 410.798 420.042Z" fill="#53DBFF"/>
<path d="M410.844 416.731C426.584 416.731 439.343 403.973 439.343 388.234C439.343 372.496 426.584 359.738 410.844 359.738C395.104 359.738 382.345 372.496 382.345 388.234C382.345 403.973 395.104 416.731 410.844 416.731Z" fill="#53DBFF"/>
<path d="M410.883 413.413C426.623 413.413 439.382 400.655 439.382 384.917C439.382 369.179 426.623 356.42 410.883 356.42C395.144 356.42 382.384 369.179 382.384 384.917C382.384 400.655 395.144 413.413 410.883 413.413Z" fill="#53DAFF"/>
<path d="M410.922 410.096C426.662 410.096 439.422 397.337 439.422 381.599C439.422 365.861 426.662 353.103 410.922 353.103C395.183 353.103 382.423 365.861 382.423 381.599C382.423 397.337 395.183 410.096 410.922 410.096Z" fill="#53DAFF"/>
<path d="M410.962 406.778C426.701 406.778 439.461 394.02 439.461 378.282C439.461 362.544 426.701 349.785 410.962 349.785C395.222 349.785 382.463 362.544 382.463 378.282C382.463 394.02 395.222 406.778 410.962 406.778Z" fill="#52D9FF"/>
<path d="M411.001 403.467C426.741 403.467 439.5 390.709 439.5 374.971C439.5 359.233 426.741 346.474 411.001 346.474C395.261 346.474 382.502 359.233 382.502 374.971C382.502 390.709 395.261 403.467 411.001 403.467Z" fill="#52D8FF"/>
<path d="M411.034 400.15C426.773 400.15 439.533 387.391 439.533 371.653C439.533 355.915 426.773 343.157 411.034 343.157C395.294 343.157 382.535 355.915 382.535 371.653C382.535 387.391 395.294 400.15 411.034 400.15Z" fill="#52D8FF"/>
<path d="M411.066 396.832C426.806 396.832 439.566 384.074 439.566 368.336C439.566 352.598 426.806 339.839 411.066 339.839C395.327 339.839 382.567 352.598 382.567 368.336C382.567 384.074 395.327 396.832 411.066 396.832Z" fill="#52D7FF"/>
<path d="M411.093 393.521C426.832 393.521 439.592 380.763 439.592 365.025C439.592 349.287 426.832 336.528 411.093 336.528C395.353 336.528 382.593 349.287 382.593 365.025C382.593 380.763 395.353 393.521 411.093 393.521Z" fill="#51D7FF"/>
<path d="M411.119 390.217C426.858 390.217 439.618 377.459 439.618 361.72C439.618 345.982 426.858 333.224 411.119 333.224C395.379 333.224 382.62 345.982 382.62 361.72C382.62 377.459 395.379 390.217 411.119 390.217Z" fill="#51D6FF"/>
<path d="M411.132 386.912C426.872 386.912 439.631 374.154 439.631 358.416C439.631 342.678 426.872 329.919 411.132 329.919C395.392 329.919 382.633 342.678 382.633 358.416C382.633 374.154 395.392 386.912 411.132 386.912Z" fill="#51D6FF"/>
<path d="M411.145 383.615C426.885 383.615 439.644 370.856 439.644 355.118C439.644 339.38 426.885 326.622 411.145 326.622C395.405 326.622 382.646 339.38 382.646 355.118C382.646 370.856 395.405 383.615 411.145 383.615Z" fill="#51D5FF"/>
<path d="M411.152 380.323C426.891 380.323 439.651 367.565 439.651 351.827C439.651 336.089 426.891 323.33 411.152 323.33C395.412 323.33 382.652 336.089 382.652 351.827C382.652 367.565 395.412 380.323 411.152 380.323Z" fill="#50D5FF"/>
<path d="M411.145 377.039C426.885 377.039 439.644 364.28 439.644 348.542C439.644 332.804 426.885 320.046 411.145 320.046C395.405 320.046 382.646 332.804 382.646 348.542C382.646 364.28 395.405 377.039 411.145 377.039Z" fill="#50D4FF"/>
<path d="M411.138 373.76C426.878 373.76 439.638 361.002 439.638 345.264C439.638 329.526 426.878 316.767 411.138 316.767C395.399 316.767 382.639 329.526 382.639 345.264C382.639 361.002 395.399 373.76 411.138 373.76Z" fill="#50D3FF"/>
<path d="M411.119 370.495C426.858 370.495 439.618 357.737 439.618 341.999C439.618 326.261 426.858 313.502 411.119 313.502C395.379 313.502 382.62 326.261 382.62 341.999C382.62 357.737 395.379 370.495 411.119 370.495Z" fill="#50D3FF"/>
<path d="M411.093 367.237C426.832 367.237 439.592 354.478 439.592 338.74C439.592 323.002 426.832 310.244 411.093 310.244C395.353 310.244 382.593 323.002 382.593 338.74C382.593 354.478 395.353 367.237 411.093 367.237Z" fill="#4FD2FF"/>
<path d="M411.053 363.984C426.793 363.984 439.553 351.226 439.553 335.488C439.553 319.75 426.793 306.991 411.053 306.991C395.314 306.991 382.554 319.75 382.554 335.488C382.554 351.226 395.314 363.984 411.053 363.984Z" fill="#4FD2FF"/>
<path d="M411.008 360.752C426.747 360.752 439.507 347.994 439.507 332.256C439.507 316.517 426.747 303.759 411.008 303.759C395.268 303.759 382.508 316.517 382.508 332.256C382.508 347.994 395.268 360.752 411.008 360.752Z" fill="#4FD1FF"/>
<path d="M410.942 357.526C426.682 357.526 439.441 344.768 439.441 329.03C439.441 313.292 426.682 300.533 410.942 300.533C395.202 300.533 382.443 313.292 382.443 329.03C382.443 344.768 395.202 357.526 410.942 357.526Z" fill="#4FD1FF"/>
<path d="M410.87 354.32C426.61 354.32 439.369 341.562 439.369 325.823C439.369 310.085 426.61 297.327 410.87 297.327C395.13 297.327 382.371 310.085 382.371 325.823C382.371 341.562 395.13 354.32 410.87 354.32Z" fill="#4ED0FF"/>
<path d="M410.785 351.12C426.525 351.12 439.284 338.362 439.284 322.624C439.284 306.886 426.525 294.127 410.785 294.127C395.045 294.127 382.286 306.886 382.286 322.624C382.286 338.362 395.045 351.12 410.785 351.12Z" fill="#4ECFFF"/>
<path d="M410.693 347.94C426.433 347.94 439.193 335.182 439.193 319.444C439.193 303.705 426.433 290.947 410.693 290.947C394.954 290.947 382.194 303.705 382.194 319.444C382.194 335.182 394.954 347.94 410.693 347.94Z" fill="#4ECFFF"/>
<path d="M410.576 344.78C426.315 344.78 439.075 332.021 439.075 316.283C439.075 300.545 426.315 287.787 410.576 287.787C394.836 287.787 382.076 300.545 382.076 316.283C382.076 332.021 394.836 344.78 410.576 344.78Z" fill="#4ECEFF"/>
<path d="M410.451 341.632C426.191 341.632 438.951 328.874 438.951 313.136C438.951 297.397 426.191 284.639 410.451 284.639C394.712 284.639 381.952 297.397 381.952 313.136C381.952 328.874 394.712 341.632 410.451 341.632Z" fill="#4DCEFF"/>
<path d="M410.307 338.498C426.047 338.498 438.807 325.74 438.807 310.001C438.807 294.263 426.047 281.505 410.307 281.505C394.568 281.505 381.808 294.263 381.808 310.001C381.808 325.74 394.568 338.498 410.307 338.498Z" fill="#4DCDFF"/>
<path d="M410.15 335.39C425.89 335.39 438.649 322.631 438.649 306.893C438.649 291.155 425.89 278.397 410.15 278.397C394.411 278.397 381.651 291.155 381.651 306.893C381.651 322.631 394.411 335.39 410.15 335.39Z" fill="#4DCDFF"/>
<path d="M409.98 332.295C425.72 332.295 438.479 319.536 438.479 303.798C438.479 288.06 425.72 275.302 409.98 275.302C394.24 275.302 381.481 288.06 381.481 303.798C381.481 319.536 394.24 332.295 409.98 332.295Z" fill="#4DCCFF"/>
<path d="M409.784 329.226C425.523 329.226 438.283 316.468 438.283 300.729C438.283 284.991 425.523 272.233 409.784 272.233C394.044 272.233 381.285 284.991 381.285 300.729C381.285 316.468 394.044 329.226 409.784 329.226Z" fill="#4CCBFF"/>
<path d="M409.574 326.17C425.314 326.17 438.074 313.412 438.074 297.674C438.074 281.936 425.314 269.177 409.574 269.177C393.835 269.177 381.075 281.936 381.075 297.674C381.075 313.412 393.835 326.17 409.574 326.17Z" fill="#4CCBFF"/>
<path d="M409.352 323.141C425.092 323.141 437.851 310.382 437.851 294.644C437.851 278.906 425.092 266.147 409.352 266.147C393.612 266.147 380.853 278.906 380.853 294.644C380.853 310.382 393.612 323.141 409.352 323.141Z" fill="#4CCAFF"/>
<path d="M409.103 320.137C424.843 320.137 437.602 307.379 437.602 291.641C437.602 275.902 424.843 263.144 409.103 263.144C393.364 263.144 380.604 275.902 380.604 291.641C380.604 307.379 393.364 320.137 409.103 320.137Z" fill="#4CCAFF"/>
<path d="M408.835 317.153C424.575 317.153 437.334 304.395 437.334 288.657C437.334 272.919 424.575 260.16 408.835 260.16C393.095 260.16 380.336 272.919 380.336 288.657C380.336 304.395 393.095 317.153 408.835 317.153Z" fill="#4BC9FF"/>
<path d="M408.547 314.196C424.287 314.196 437.046 301.437 437.046 285.699C437.046 269.961 424.287 257.203 408.547 257.203C392.807 257.203 380.048 269.961 380.048 285.699C380.048 301.437 392.807 314.196 408.547 314.196Z" fill="#4BC9FF"/>
<path d="M408.233 311.264C423.973 311.264 436.732 298.506 436.732 282.768C436.732 267.03 423.973 254.271 408.233 254.271C392.493 254.271 379.734 267.03 379.734 282.768C379.734 298.506 392.493 311.264 408.233 311.264Z" fill="#4BC8FF"/>
<path d="M407.906 308.359C423.645 308.359 436.405 295.601 436.405 279.862C436.405 264.124 423.645 251.366 407.906 251.366C392.166 251.366 379.406 264.124 379.406 279.862C379.406 295.601 392.166 308.359 407.906 308.359Z" fill="#4BC7FF"/>
<path d="M407.552 305.486C423.292 305.486 436.052 292.728 436.052 276.99C436.052 261.252 423.292 248.493 407.552 248.493C391.813 248.493 379.053 261.252 379.053 276.99C379.053 292.728 391.813 305.486 407.552 305.486Z" fill="#4AC7FF"/>
<path d="M407.173 302.634C422.912 302.634 435.672 289.875 435.672 274.137C435.672 258.399 422.912 245.641 407.173 245.641C391.433 245.641 378.674 258.399 378.674 274.137C378.674 289.875 391.433 302.634 407.173 302.634Z" fill="#4AC6FF"/>
<path d="M406.774 299.813C422.513 299.813 435.273 287.055 435.273 271.317C435.273 255.579 422.513 242.82 406.774 242.82C391.034 242.82 378.274 255.579 378.274 271.317C378.274 287.055 391.034 299.813 406.774 299.813Z" fill="#4AC6FF"/>
<path d="M406.348 297.026C422.088 297.026 434.847 284.267 434.847 268.529C434.847 252.791 422.088 240.033 406.348 240.033C390.609 240.033 377.849 252.791 377.849 268.529C377.849 284.267 390.609 297.026 406.348 297.026Z" fill="#4AC5FF"/>
<path d="M405.897 294.265C421.636 294.265 434.396 281.506 434.396 265.768C434.396 250.03 421.636 237.271 405.897 237.271C390.157 237.271 377.397 250.03 377.397 265.768C377.397 281.506 390.157 294.265 405.897 294.265Z" fill="#49C5FF"/>
<path d="M405.419 291.536C421.159 291.536 433.918 278.778 433.918 263.039C433.918 247.301 421.159 234.543 405.419 234.543C389.679 234.543 376.92 247.301 376.92 263.039C376.92 278.778 389.679 291.536 405.419 291.536Z" fill="#49C4FF"/>
<path d="M404.915 288.84C420.655 288.84 433.414 276.082 433.414 260.344C433.414 244.605 420.655 231.847 404.915 231.847C389.175 231.847 376.416 244.605 376.416 260.344C376.416 276.082 389.175 288.84 404.915 288.84Z" fill="#49C4FF"/>
<path d="M404.378 286.177C420.118 286.177 432.878 273.419 432.878 257.68C432.878 241.942 420.118 229.184 404.378 229.184C388.639 229.184 375.879 241.942 375.879 257.68C375.879 273.419 388.639 286.177 404.378 286.177Z" fill="#49C3FF"/>
<path d="M403.822 283.553C419.562 283.553 432.321 270.795 432.321 255.057C432.321 239.318 419.562 226.56 403.822 226.56C388.083 226.56 375.323 239.318 375.323 255.057C375.323 270.795 388.083 283.553 403.822 283.553Z" fill="#48C2FF"/>
<path d="M403.233 280.955C418.973 280.955 431.732 268.197 431.732 252.459C431.732 236.72 418.973 223.962 403.233 223.962C387.494 223.962 374.734 236.72 374.734 252.459C374.734 268.197 387.494 280.955 403.233 280.955Z" fill="#48C2FF"/>
<path d="M402.618 278.403C418.358 278.403 431.117 265.645 431.117 249.907C431.117 234.169 418.358 221.41 402.618 221.41C386.878 221.41 374.119 234.169 374.119 249.907C374.119 265.645 386.878 278.403 402.618 278.403Z" fill="#48C1FF"/>
<path d="M401.97 275.884C417.71 275.884 430.469 263.126 430.469 247.388C430.469 231.649 417.71 218.891 401.97 218.891C386.231 218.891 373.471 231.649 373.471 247.388C373.471 263.126 386.231 275.884 401.97 275.884Z" fill="#48C1FF"/>
<path d="M401.29 273.404C417.029 273.404 429.789 260.646 429.789 244.908C429.789 229.169 417.029 216.411 401.29 216.411C385.55 216.411 372.79 229.169 372.79 244.908C372.79 260.646 385.55 273.404 401.29 273.404Z" fill="#47C0FF"/>
<path d="M400.583 270.957C416.323 270.957 429.082 258.199 429.082 242.46C429.082 226.722 416.323 213.964 400.583 213.964C384.843 213.964 372.084 226.722 372.084 242.46C372.084 258.199 384.843 270.957 400.583 270.957Z" fill="#47C0FF"/>
<path d="M399.837 268.556C415.577 268.556 428.336 255.797 428.336 240.059C428.336 224.321 415.577 211.562 399.837 211.562C384.097 211.562 371.338 224.321 371.338 240.059C371.338 255.797 384.097 268.556 399.837 268.556Z" fill="#47BFFF"/>
<path d="M399.065 266.193C414.804 266.193 427.564 253.435 427.564 237.697C427.564 221.959 414.804 209.2 399.065 209.2C383.325 209.2 370.565 221.959 370.565 237.697C370.565 253.435 383.325 266.193 399.065 266.193Z" fill="#47BEFF"/>
<path d="M398.26 263.87C413.999 263.87 426.759 251.112 426.759 235.374C426.759 219.636 413.999 206.877 398.26 206.877C382.52 206.877 369.761 219.636 369.761 235.374C369.761 251.112 382.52 263.87 398.26 263.87Z" fill="#46BEFF"/>
<path d="M397.416 261.593C413.155 261.593 425.915 248.835 425.915 233.097C425.915 217.359 413.155 204.6 397.416 204.6C381.676 204.6 368.916 217.359 368.916 233.097C368.916 248.835 381.676 261.593 397.416 261.593Z" fill="#46BDFF"/>
<path d="M396.539 259.356C412.278 259.356 425.038 246.597 425.038 230.859C425.038 215.121 412.278 202.363 396.539 202.363C380.799 202.363 368.04 215.121 368.04 230.859C368.04 246.597 380.799 259.356 396.539 259.356Z" fill="#46BDFF"/>
<path d="M395.629 257.17C411.369 257.17 424.128 244.412 424.128 228.674C424.128 212.935 411.369 200.177 395.629 200.177C379.889 200.177 367.13 212.935 367.13 228.674C367.13 244.412 379.889 257.17 395.629 257.17Z" fill="#46BCFF"/>
<path d="M394.68 255.024C410.42 255.024 423.179 242.265 423.179 226.527C423.179 210.789 410.42 198.031 394.68 198.031C378.941 198.031 366.181 210.789 366.181 226.527C366.181 242.265 378.941 255.024 394.68 255.024Z" fill="#45BCFF"/>
<path d="M393.699 252.917C409.438 252.917 422.198 240.159 422.198 224.42C422.198 208.682 409.438 195.924 393.699 195.924C377.959 195.924 365.199 208.682 365.199 224.42C365.199 240.159 377.959 252.917 393.699 252.917Z" fill="#45BBFF"/>
<path d="M392.678 250.869C408.417 250.869 421.177 238.11 421.177 222.372C421.177 206.634 408.417 193.876 392.678 193.876C376.938 193.876 364.179 206.634 364.179 222.372C364.179 238.11 376.938 250.869 392.678 250.869Z" fill="#45BAFF"/>
<path d="M391.618 248.86C407.357 248.86 420.117 236.102 420.117 220.363C420.117 204.625 407.357 191.867 391.618 191.867C375.878 191.867 363.118 204.625 363.118 220.363C363.118 236.102 375.878 248.86 391.618 248.86Z" fill="#44BAFF"/>
<path d="M390.518 246.903C406.258 246.903 419.017 234.145 419.017 218.407C419.017 202.669 406.258 189.91 390.518 189.91C374.779 189.91 362.019 202.669 362.019 218.407C362.019 234.145 374.779 246.903 390.518 246.903Z" fill="#44B9FF"/>
<path d="M389.38 244.993C405.119 244.993 417.879 232.234 417.879 216.496C417.879 200.758 405.119 188 389.38 188C373.64 188 360.88 200.758 360.88 216.496C360.88 232.234 373.64 244.993 389.38 244.993Z" fill="#44B9FF"/>
<path d="M388.202 243.134C403.941 243.134 416.701 230.376 416.701 214.638C416.701 198.9 403.941 186.141 388.202 186.141C372.462 186.141 359.702 198.9 359.702 214.638C359.702 230.376 372.462 243.134 388.202 243.134Z" fill="#44B8FF"/>
<path d="M386.984 241.328C402.724 241.328 415.484 228.57 415.484 212.832C415.484 197.094 402.724 184.335 386.984 184.335C371.245 184.335 358.485 197.094 358.485 212.832C358.485 228.57 371.245 241.328 386.984 241.328Z" fill="#43B8FF"/>
<path d="M385.728 239.568C401.468 239.568 414.227 226.81 414.227 211.072C414.227 195.334 401.468 182.575 385.728 182.575C369.988 182.575 357.229 195.334 357.229 211.072C357.229 226.81 369.988 239.568 385.728 239.568Z" fill="#43B7FF"/>
<path d="M384.426 237.867C400.165 237.867 412.925 225.109 412.925 209.371C412.925 193.632 400.165 180.874 384.426 180.874C368.686 180.874 355.927 193.632 355.927 209.371C355.927 225.109 368.686 237.867 384.426 237.867Z" fill="#43B6FF"/>
<path d="M383.078 236.218C398.817 236.218 411.577 223.46 411.577 207.722C411.577 191.983 398.817 179.225 383.078 179.225C367.338 179.225 354.578 191.983 354.578 207.722C354.578 223.46 367.338 236.218 383.078 236.218Z" fill="#43B6FF"/>
<path d="M381.69 234.621C397.43 234.621 410.19 221.863 410.19 206.125C410.19 190.387 397.43 177.628 381.69 177.628C365.951 177.628 353.191 190.387 353.191 206.125C353.191 221.863 365.951 234.621 381.69 234.621Z" fill="#42B5FF"/>
<path d="M380.257 233.084C395.997 233.084 408.756 220.326 408.756 204.587C408.756 188.849 395.997 176.091 380.257 176.091C364.518 176.091 351.758 188.849 351.758 204.587C351.758 220.326 364.518 233.084 380.257 233.084Z" fill="#42B5FF"/>
<path d="M378.785 231.598C394.524 231.598 407.284 218.84 407.284 203.102C407.284 187.364 394.524 174.605 378.785 174.605C363.045 174.605 350.286 187.364 350.286 203.102C350.286 218.84 363.045 231.598 378.785 231.598Z" fill="#42B4FF"/>
<path d="M377.26 230.179C393 230.179 405.759 217.42 405.759 201.682C405.759 185.944 393 173.186 377.26 173.186C361.52 173.186 348.761 185.944 348.761 201.682C348.761 217.42 361.52 230.179 377.26 230.179Z" fill="#42B4FF"/>
<path d="M375.696 228.811C391.436 228.811 404.195 216.053 404.195 200.314C404.195 184.576 391.436 171.818 375.696 171.818C359.956 171.818 347.197 184.576 347.197 200.314C347.197 216.053 359.956 228.811 375.696 228.811Z" fill="#41B3FF"/>
<path d="M374.08 227.502C389.819 227.502 402.579 214.744 402.579 199.006C402.579 183.268 389.819 170.509 374.08 170.509C358.34 170.509 345.58 183.268 345.58 199.006C345.58 214.744 358.34 227.502 374.08 227.502Z" fill="#41B2FF"/>
<path d="M372.417 226.252C388.157 226.252 400.917 213.494 400.917 197.756C400.917 182.018 388.157 169.259 372.417 169.259C356.678 169.259 343.918 182.018 343.918 197.756C343.918 213.494 356.678 226.252 372.417 226.252Z" fill="#41B2FF"/>
<path d="M370.709 225.062C386.449 225.062 399.209 212.303 399.209 196.565C399.209 180.827 386.449 168.069 370.709 168.069C354.97 168.069 342.21 180.827 342.21 196.565C342.21 212.303 354.97 225.062 370.709 225.062Z" fill="#41B1FF"/>
<path d="M369.093 224.028C384.833 224.028 397.592 211.269 397.592 195.531C397.592 179.793 384.833 167.035 369.093 167.035C353.353 167.035 340.594 179.793 340.594 195.531C340.594 211.269 353.353 224.028 369.093 224.028Z" fill="#40B1FF"/>
<path d="M368.033 223.36C383.773 223.36 396.532 210.602 396.532 194.864C396.532 179.126 383.773 166.367 368.033 166.367C352.293 166.367 339.534 179.126 339.534 194.864C339.534 210.602 352.293 223.36 368.033 223.36Z" fill="#40B0FF"/>
<path d="M366.691 222.549C382.431 222.549 395.191 209.791 395.191 194.052C395.191 178.314 382.431 165.556 366.691 165.556C350.952 165.556 338.192 178.314 338.192 194.052C338.192 209.791 350.952 222.549 366.691 222.549Z" fill="#40B0FF"/>
<path d="M365.088 221.607C380.828 221.607 393.587 208.848 393.587 193.11C393.587 177.372 380.828 164.614 365.088 164.614C349.348 164.614 336.589 177.372 336.589 193.11C336.589 208.848 349.348 221.607 365.088 221.607Z" fill="#40AFFF"/>
<path d="M363.23 220.573C378.969 220.573 391.729 207.815 391.729 192.076C391.729 176.338 378.969 163.58 363.23 163.58C347.49 163.58 334.73 176.338 334.73 192.076C334.73 207.815 347.49 220.573 363.23 220.573Z" fill="#3FAFFF"/>
<path d="M361.122 219.467C376.862 219.467 389.622 206.709 389.622 190.97C389.622 175.232 376.862 162.474 361.122 162.474C345.383 162.474 332.623 175.232 332.623 190.97C332.623 206.709 345.383 219.467 361.122 219.467Z" fill="#3FAEFF"/>
<path d="M358.773 218.328C374.513 218.328 387.272 205.57 387.272 189.832C387.272 174.094 374.513 161.335 358.773 161.335C343.034 161.335 330.274 174.094 330.274 189.832C330.274 205.57 343.034 218.328 358.773 218.328Z" fill="#3FADFF"/>
<path d="M356.201 217.177C371.941 217.177 384.701 204.418 384.701 188.68C384.701 172.942 371.941 160.184 356.201 160.184C340.462 160.184 327.702 172.942 327.702 188.68C327.702 204.418 340.462 217.177 356.201 217.177Z" fill="#3FADFF"/>
<path d="M353.407 216.045C369.147 216.045 381.906 203.286 381.906 187.548C381.906 171.81 369.147 159.052 353.407 159.052C337.667 159.052 324.908 171.81 324.908 187.548C324.908 203.286 337.667 216.045 353.407 216.045Z" fill="#3EACFF"/>
<path d="M350.397 214.965C366.137 214.965 378.896 202.207 378.896 186.468C378.896 170.73 366.137 157.972 350.397 157.972C334.657 157.972 321.898 170.73 321.898 186.468C321.898 202.207 334.657 214.965 350.397 214.965Z" fill="#3EACFF"/>
<path d="M347.19 213.964C362.93 213.964 375.689 201.206 375.689 185.467C375.689 169.729 362.93 156.971 347.19 156.971C331.451 156.971 318.691 169.729 318.691 185.467C318.691 201.206 331.451 213.964 347.19 213.964Z" fill="#3EABFF"/>
<path d="M343.787 213.068C359.527 213.068 372.287 200.309 372.287 184.571C372.287 168.833 359.527 156.074 343.787 156.074C328.048 156.074 315.288 168.833 315.288 184.571C315.288 200.309 328.048 213.068 343.787 213.068Z" fill="#3EABFF"/>
<path d="M340.201 212.315C355.941 212.315 368.7 199.557 368.7 183.819C368.7 168.08 355.941 155.322 340.201 155.322C324.462 155.322 311.702 168.08 311.702 183.819C311.702 199.557 324.462 212.315 340.201 212.315Z" fill="#3DAAFF"/>
<path d="M336.445 211.72C352.185 211.72 364.944 198.961 364.944 183.223C364.944 167.485 352.185 154.727 336.445 154.727C320.705 154.727 307.946 167.485 307.946 183.223C307.946 198.961 320.705 211.72 336.445 211.72Z" fill="#3DA9FF"/>
<path d="M332.519 211.32C348.258 211.32 361.018 198.562 361.018 182.824C361.018 167.086 348.258 154.327 332.519 154.327C316.779 154.327 304.019 167.086 304.019 182.824C304.019 198.562 316.779 211.32 332.519 211.32Z" fill="#3DA9FF"/>
<path d="M328.599 211.15C344.338 211.15 357.098 198.392 357.098 182.654C357.098 166.916 344.338 154.157 328.599 154.157C312.859 154.157 300.1 166.916 300.1 182.654C300.1 198.392 312.859 211.15 328.599 211.15Z" fill="#3DA8FF"/>
<path d="M325.006 211.19C340.746 211.19 353.505 198.431 353.505 182.693C353.505 166.955 340.746 154.197 325.006 154.197C309.266 154.197 296.507 166.955 296.507 182.693C296.507 198.431 309.266 211.19 325.006 211.19Z" fill="#3CA8FF"/>
<path d="M321.466 211.412C337.205 211.412 349.965 198.654 349.965 182.915C349.965 167.177 337.205 154.419 321.466 154.419C305.726 154.419 292.967 167.177 292.967 182.915C292.967 198.654 305.726 211.412 321.466 211.412Z" fill="#3CA7FF"/>
<path d="M317.984 211.818C333.724 211.818 346.484 199.059 346.484 183.321C346.484 167.583 333.724 154.825 317.984 154.825C302.245 154.825 289.485 167.583 289.485 183.321C289.485 199.059 302.245 211.818 317.984 211.818Z" fill="#3CA7FF"/>
<path d="M314.549 212.393C330.288 212.393 343.048 199.635 343.048 183.897C343.048 168.159 330.288 155.4 314.549 155.4C298.809 155.4 286.049 168.159 286.049 183.897C286.049 199.635 298.809 212.393 314.549 212.393Z" fill="#3CA6FF"/>
<path d="M311.172 213.133C326.912 213.133 339.671 200.375 339.671 184.636C339.671 168.898 326.912 156.14 311.172 156.14C295.432 156.14 282.673 168.898 282.673 184.636C282.673 200.375 295.432 213.133 311.172 213.133Z" fill="#3BA5FF"/>
<path d="M307.848 214.029C323.587 214.029 336.347 201.271 336.347 185.533C336.347 169.795 323.587 157.036 307.848 157.036C292.108 157.036 279.348 169.795 279.348 185.533C279.348 201.271 292.108 214.029 307.848 214.029Z" fill="#3BA5FF"/>
<path d="M304.576 215.083C320.315 215.083 333.075 202.325 333.075 186.586C333.075 170.848 320.315 158.09 304.576 158.09C288.836 158.09 276.076 170.848 276.076 186.586C276.076 202.325 288.836 215.083 304.576 215.083Z" fill="#3BA4FF"/>
<path d="M301.363 216.274C317.102 216.274 329.862 203.515 329.862 187.777C329.862 172.039 317.102 159.281 301.363 159.281C285.623 159.281 272.863 172.039 272.863 187.777C272.863 203.515 285.623 216.274 301.363 216.274Z" fill="#3BA4FF"/>
<path d="M298.208 217.609C313.948 217.609 326.708 204.85 326.708 189.112C326.708 173.374 313.948 160.615 298.208 160.615C282.469 160.615 269.709 173.374 269.709 189.112C269.709 204.85 282.469 217.609 298.208 217.609Z" fill="#3AA3FF"/>
<path d="M295.106 219.074C310.846 219.074 323.606 206.316 323.606 190.578C323.606 174.84 310.846 162.081 295.106 162.081C279.367 162.081 266.607 174.84 266.607 190.578C266.607 206.316 279.367 219.074 295.106 219.074Z" fill="#3AA3FF"/>
<path d="M292.057 220.671C307.797 220.671 320.556 207.913 320.556 192.174C320.556 176.436 307.797 163.678 292.057 163.678C276.317 163.678 263.558 176.436 263.558 192.174C263.558 207.913 276.317 220.671 292.057 220.671Z" fill="#3AA2FF"/>
<path d="M289.066 222.379C304.806 222.379 317.566 209.62 317.566 193.882C317.566 178.144 304.806 165.386 289.066 165.386C273.327 165.386 260.567 178.144 260.567 193.882C260.567 209.62 273.327 222.379 289.066 222.379Z" fill="#3AA1FF"/>
<path d="M286.135 224.204C301.874 224.204 314.634 211.446 314.634 195.708C314.634 179.97 301.874 167.211 286.135 167.211C270.395 167.211 257.635 179.97 257.635 195.708C257.635 211.446 270.395 224.204 286.135 224.204Z" fill="#39A1FF"/>
<path d="M283.262 226.135C299.001 226.135 311.761 213.376 311.761 197.638C311.761 181.9 299.001 169.142 283.262 169.142C267.522 169.142 254.763 181.9 254.763 197.638C254.763 213.376 267.522 226.135 283.262 226.135Z" fill="#39A0FF"/>
<path d="M280.441 228.157C296.181 228.157 308.94 215.398 308.94 199.66C308.94 183.922 296.181 171.164 280.441 171.164C264.702 171.164 251.942 183.922 251.942 199.66C251.942 215.398 264.702 228.157 280.441 228.157Z" fill="#39A0FF"/>
<path d="M277.68 230.277C293.419 230.277 306.179 217.518 306.179 201.78C306.179 186.042 293.419 173.284 277.68 173.284C261.94 173.284 249.181 186.042 249.181 201.78C249.181 217.518 261.94 230.277 277.68 230.277Z" fill="#399FFF"/>
<path d="M274.977 232.482C290.717 232.482 303.476 219.723 303.476 203.985C303.476 188.247 290.717 175.489 274.977 175.489C259.237 175.489 246.478 188.247 246.478 203.985C246.478 219.723 259.237 232.482 274.977 232.482Z" fill="#389FFF"/>
<path d="M272.333 234.766C288.073 234.766 300.832 222.007 300.832 206.269C300.832 190.531 288.073 177.772 272.333 177.772C256.594 177.772 243.834 190.531 243.834 206.269C243.834 222.007 256.594 234.766 272.333 234.766Z" fill="#389EFF"/>
<path d="M269.755 237.128C285.495 237.128 298.254 224.369 298.254 208.631C298.254 192.893 285.495 180.135 269.755 180.135C254.015 180.135 241.256 192.893 241.256 208.631C241.256 224.369 254.015 237.128 269.755 237.128Z" fill="#389EFF"/>
<path d="M267.229 239.549C282.969 239.549 295.728 226.79 295.728 211.052C295.728 195.314 282.969 182.556 267.229 182.556C251.489 182.556 238.73 195.314 238.73 211.052C238.73 226.79 251.489 239.549 267.229 239.549Z" fill="#389DFF"/>
<path d="M264.762 242.029C280.502 242.029 293.261 229.27 293.261 213.532C293.261 197.794 280.502 185.036 264.762 185.036C249.022 185.036 236.263 197.794 236.263 213.532C236.263 229.27 249.022 242.029 264.762 242.029Z" fill="#379CFF"/>
<path d="M262.36 244.561C278.1 244.561 290.859 231.803 290.859 216.064C290.859 200.326 278.1 187.568 262.36 187.568C246.621 187.568 233.861 200.326 233.861 216.064C233.861 231.803 246.621 244.561 262.36 244.561Z" fill="#379CFF"/>
<path d="M260.017 247.139C275.757 247.139 288.517 234.381 288.517 218.643C288.517 202.904 275.757 190.146 260.017 190.146C244.278 190.146 231.518 202.904 231.518 218.643C231.518 234.381 244.278 247.139 260.017 247.139Z" fill="#379BFF"/>
<path d="M257.734 249.763C273.473 249.763 286.233 237.004 286.233 221.266C286.233 205.528 273.473 192.77 257.734 192.77C241.994 192.77 229.234 205.528 229.234 221.266C229.234 237.004 241.994 249.763 257.734 249.763Z" fill="#379BFF"/>
<path d="M255.509 252.413C271.248 252.413 284.008 239.655 284.008 223.916C284.008 208.178 271.248 195.42 255.509 195.42C239.769 195.42 227.009 208.178 227.009 223.916C227.009 239.655 239.769 252.413 255.509 252.413Z" fill="#369AFF"/>
<path d="M253.349 255.089C269.089 255.089 281.848 242.331 281.848 226.593C281.848 210.855 269.089 198.096 253.349 198.096C237.609 198.096 224.85 210.855 224.85 226.593C224.85 242.331 237.609 255.089 253.349 255.089Z" fill="#369AFF"/>
<path d="M251.248 257.785C266.988 257.785 279.748 245.027 279.748 229.289C279.748 213.55 266.988 200.792 251.248 200.792C235.509 200.792 222.749 213.55 222.749 229.289C222.749 245.027 235.509 257.785 251.248 257.785Z" fill="#3699FF"/>
<path d="M249.213 260.494C264.953 260.494 277.712 247.736 277.712 231.997C277.712 216.259 264.953 203.501 249.213 203.501C233.474 203.501 220.714 216.259 220.714 231.997C220.714 247.736 233.474 260.494 249.213 260.494Z" fill="#3698FF"/>
<path d="M247.243 263.21C262.983 263.21 275.743 250.451 275.743 234.713C275.743 218.975 262.983 206.217 247.243 206.217C231.504 206.217 218.744 218.975 218.744 234.713C218.744 250.451 231.504 263.21 247.243 263.21Z" fill="#3598FF"/>
<path d="M245.333 265.925C261.072 265.925 273.832 253.167 273.832 237.429C273.832 221.69 261.072 208.932 245.333 208.932C229.593 208.932 216.833 221.69 216.833 237.429C216.833 253.167 229.593 265.925 245.333 265.925Z" fill="#3597FF"/>
<path d="M243.487 268.634C259.227 268.634 271.986 255.876 271.986 240.138C271.986 224.399 259.227 211.641 243.487 211.641C227.748 211.641 214.988 224.399 214.988 240.138C214.988 255.876 227.748 268.634 243.487 268.634Z" fill="#3597FF"/>
<path d="M241.701 271.323C257.44 271.323 270.2 258.565 270.2 242.827C270.2 227.089 257.44 214.33 241.701 214.33C225.961 214.33 213.202 227.089 213.202 242.827C213.202 258.565 225.961 271.323 241.701 271.323Z" fill="#3596FF"/>
<path d="M239.98 274C255.719 274 268.479 261.241 268.479 245.503C268.479 229.765 255.719 217.007 239.98 217.007C224.24 217.007 211.48 229.765 211.48 245.503C211.48 261.241 224.24 274 239.98 274Z" fill="#3496FF"/>
<path d="M238.324 276.643C254.064 276.643 266.823 263.885 266.823 248.147C266.823 232.408 254.064 219.65 238.324 219.65C222.584 219.65 209.825 232.408 209.825 248.147C209.825 263.885 222.584 276.643 238.324 276.643Z" fill="#3495FF"/>
<path d="M236.734 279.254C252.473 279.254 265.233 266.496 265.233 250.758C265.233 235.019 252.473 222.261 236.734 222.261C220.994 222.261 208.235 235.019 208.235 250.758C208.235 266.496 220.994 279.254 236.734 279.254Z" fill="#3494FF"/>
<path d="M235.209 281.826C250.949 281.826 263.708 269.067 263.708 253.329C263.708 237.591 250.949 224.833 235.209 224.833C219.469 224.833 206.71 237.591 206.71 253.329C206.71 269.067 219.469 281.826 235.209 281.826Z" fill="#3394FF"/>
<path d="M233.75 284.351C249.489 284.351 262.249 271.593 262.249 255.855C262.249 240.117 249.489 227.358 233.75 227.358C218.01 227.358 205.251 240.117 205.251 255.855C205.251 271.593 218.01 284.351 233.75 284.351Z" fill="#3393FF"/>
<path d="M232.356 286.818C248.096 286.818 260.855 274.06 260.855 258.322C260.855 242.584 248.096 229.825 232.356 229.825C216.616 229.825 203.857 242.584 203.857 258.322C203.857 274.06 216.616 286.818 232.356 286.818Z" fill="#3393FF"/>
<path d="M231.034 289.233C246.774 289.233 259.533 276.474 259.533 260.736C259.533 244.998 246.774 232.24 231.034 232.24C215.294 232.24 202.535 244.998 202.535 260.736C202.535 276.474 215.294 289.233 231.034 289.233Z" fill="#3392FF"/>
<path d="M229.771 291.575C245.511 291.575 258.27 278.817 258.27 263.079C258.27 247.341 245.511 234.582 229.771 234.582C214.031 234.582 201.272 247.341 201.272 263.079C201.272 278.817 214.031 291.575 229.771 291.575Z" fill="#3292FF"/>
<path d="M228.58 293.839C244.32 293.839 257.079 281.081 257.079 265.343C257.079 249.605 244.32 236.846 228.58 236.846C212.84 236.846 200.081 249.605 200.081 265.343C200.081 281.081 212.84 293.839 228.58 293.839Z" fill="#3291FF"/>
<path d="M227.454 296.031C243.194 296.031 255.954 283.273 255.954 267.535C255.954 251.797 243.194 239.038 227.454 239.038C211.715 239.038 198.955 251.797 198.955 267.535C198.955 283.273 211.715 296.031 227.454 296.031Z" fill="#3290FF"/>
<path d="M226.394 298.132C242.134 298.132 254.893 285.373 254.893 269.635C254.893 253.897 242.134 241.139 226.394 241.139C210.655 241.139 197.895 253.897 197.895 269.635C197.895 285.373 210.655 298.132 226.394 298.132Z" fill="#3290FF"/>
<path d="M225.4 300.141C241.139 300.141 253.899 287.382 253.899 271.644C253.899 255.906 241.139 243.147 225.4 243.147C209.66 243.147 196.9 255.906 196.9 271.644C196.9 287.382 209.66 300.141 225.4 300.141Z" fill="#318FFF"/>
<path d="M224.477 302.051C240.217 302.051 252.976 289.293 252.976 273.555C252.976 257.816 240.217 245.058 224.477 245.058C208.737 245.058 195.978 257.816 195.978 273.555C195.978 289.293 208.737 302.051 224.477 302.051Z" fill="#318FFF"/>
<path d="M223.626 303.851C239.366 303.851 252.125 291.092 252.125 275.354C252.125 259.616 239.366 246.858 223.626 246.858C207.886 246.858 195.127 259.616 195.127 275.354C195.127 291.092 207.886 303.851 223.626 303.851Z" fill="#318EFF"/>
<path d="M222.841 305.539C238.581 305.539 251.34 292.781 251.34 277.042C251.34 261.304 238.581 248.546 222.841 248.546C207.101 248.546 194.342 261.304 194.342 277.042C194.342 292.781 207.101 305.539 222.841 305.539Z" fill="#318EFF"/>
<path d="M222.128 307.109C237.867 307.109 250.627 294.351 250.627 278.613C250.627 262.875 237.867 250.116 222.128 250.116C206.388 250.116 193.628 262.875 193.628 278.613C193.628 294.351 206.388 307.109 222.128 307.109Z" fill="#308DFF"/>
<path d="M221.48 308.549C237.219 308.549 249.979 295.79 249.979 280.052C249.979 264.314 237.219 251.556 221.48 251.556C205.74 251.556 192.98 264.314 192.98 280.052C192.98 295.79 205.74 308.549 221.48 308.549Z" fill="#308CFF"/>
<path d="M220.904 309.858C236.644 309.858 249.403 297.099 249.403 281.361C249.403 265.623 236.644 252.865 220.904 252.865C205.164 252.865 192.405 265.623 192.405 281.361C192.405 297.099 205.164 309.858 220.904 309.858Z" fill="#308CFF"/>
<path d="M220.4 311.029C236.14 311.029 248.899 298.27 248.899 282.532C248.899 266.794 236.14 254.036 220.4 254.036C204.66 254.036 191.901 266.794 191.901 282.532C191.901 298.27 204.66 311.029 220.4 311.029Z" fill="#308BFF"/>
<path d="M219.968 312.049C235.708 312.049 248.467 299.291 248.467 283.553C248.467 267.815 235.708 255.056 219.968 255.056C204.228 255.056 191.469 267.815 191.469 283.553C191.469 299.291 204.228 312.049 219.968 312.049Z" fill="#2F8BFF"/>
<path d="M219.608 312.92C235.348 312.92 248.107 300.161 248.107 284.423C248.107 268.685 235.348 255.927 219.608 255.927C203.868 255.927 191.109 268.685 191.109 284.423C191.109 300.161 203.868 312.92 219.608 312.92Z" fill="#2F8AFF"/>
<path d="M219.314 313.627C235.053 313.627 247.813 300.868 247.813 285.13C247.813 269.392 235.053 256.634 219.314 256.634C203.574 256.634 190.814 269.392 190.814 285.13C190.814 300.868 203.574 313.627 219.314 313.627Z" fill="#2F8AFF"/>
<path d="M219.098 314.17C234.837 314.17 247.597 301.411 247.597 285.673C247.597 269.935 234.837 257.177 219.098 257.177C203.358 257.177 190.598 269.935 190.598 285.673C190.598 301.411 203.358 314.17 219.098 314.17Z" fill="#2F89FF"/>
<path d="M218.954 314.536C234.693 314.536 247.453 301.778 247.453 286.039C247.453 270.301 234.693 257.543 218.954 257.543C203.214 257.543 190.454 270.301 190.454 286.039C190.454 301.778 203.214 314.536 218.954 314.536Z" fill="#2E89FF"/>
<path d="M218.293 316.224C234.032 316.224 246.792 303.466 246.792 287.728C246.792 271.99 234.032 259.231 218.293 259.231C202.553 259.231 189.794 271.99 189.794 287.728C189.794 303.466 202.553 316.224 218.293 316.224Z" fill="#2E88FF"/>
<path d="M217.37 318.613C233.11 318.613 245.869 305.854 245.869 290.116C245.869 274.378 233.11 261.62 217.37 261.62C201.63 261.62 188.871 274.378 188.871 290.116C188.871 305.854 201.63 318.613 217.37 318.613Z" fill="#2E87FF"/>
<path d="M216.428 321.066C232.167 321.066 244.927 308.308 244.927 292.57C244.927 276.832 232.167 264.073 216.428 264.073C200.688 264.073 187.929 276.832 187.929 292.57C187.929 308.308 200.688 321.066 216.428 321.066Z" fill="#2E87FF"/>
<path d="M215.485 323.579C231.225 323.579 243.985 310.821 243.985 295.082C243.985 279.344 231.225 266.586 215.485 266.586C199.746 266.586 186.986 279.344 186.986 295.082C186.986 310.821 199.746 323.579 215.485 323.579Z" fill="#2D86FF"/>
<path d="M214.55 326.144C230.289 326.144 243.049 313.386 243.049 297.647C243.049 281.909 230.289 269.151 214.55 269.151C198.81 269.151 186.05 281.909 186.05 297.647C186.05 313.386 198.81 326.144 214.55 326.144Z" fill="#2D86FF"/>
<path d="M213.627 328.761C229.367 328.761 242.126 316.003 242.126 300.265C242.126 284.527 229.367 271.768 213.627 271.768C197.887 271.768 185.128 284.527 185.128 300.265C185.128 316.003 197.887 328.761 213.627 328.761Z" fill="#2D85FF"/>
<path d="M212.73 331.424C228.47 331.424 241.23 318.666 241.23 302.928C241.23 287.19 228.47 274.431 212.73 274.431C196.991 274.431 184.231 287.19 184.231 302.928C184.231 318.666 196.991 331.424 212.73 331.424Z" fill="#2D85FF"/>
<path d="M211.867 334.127C227.606 334.127 240.366 321.369 240.366 305.631C240.366 289.892 227.606 277.134 211.867 277.134C196.127 277.134 183.367 289.892 183.367 305.631C183.367 321.369 196.127 334.127 211.867 334.127Z" fill="#2C84FF"/>
<path d="M211.042 336.869C226.782 336.869 239.541 324.11 239.541 308.372C239.541 292.634 226.782 279.876 211.042 279.876C195.302 279.876 182.543 292.634 182.543 308.372C182.543 324.11 195.302 336.869 211.042 336.869Z" fill="#2C83FF"/>
<path d="M210.27 339.637C226.009 339.637 238.769 326.878 238.769 311.14C238.769 295.402 226.009 282.644 210.27 282.644C194.53 282.644 181.771 295.402 181.771 311.14C181.771 326.878 194.53 339.637 210.27 339.637Z" fill="#2C83FF"/>
<path d="M209.556 342.437C225.296 342.437 238.056 329.679 238.056 313.941C238.056 298.202 225.296 285.444 209.556 285.444C193.817 285.444 181.057 298.202 181.057 313.941C181.057 329.679 193.817 342.437 209.556 342.437Z" fill="#2C82FF"/>
<path d="M208.915 345.257C224.655 345.257 237.414 332.499 237.414 316.761C237.414 301.022 224.655 288.264 208.915 288.264C193.176 288.264 180.416 301.022 180.416 316.761C180.416 332.499 193.176 345.257 208.915 345.257Z" fill="#2B82FF"/>
<path d="M208.352 348.097C224.092 348.097 236.852 335.339 236.852 319.601C236.852 303.862 224.092 291.104 208.352 291.104C192.613 291.104 179.853 303.862 179.853 319.601C179.853 335.339 192.613 348.097 208.352 348.097Z" fill="#2B81FF"/>
<path d="M207.881 350.95C223.621 350.95 236.38 338.192 236.38 322.454C236.38 306.715 223.621 293.957 207.881 293.957C192.142 293.957 179.382 306.715 179.382 322.454C179.382 338.192 192.142 350.95 207.881 350.95Z" fill="#2B81FF"/>
<path d="M207.502 353.809C223.241 353.809 236.001 341.051 236.001 325.313C236.001 309.575 223.241 296.816 207.502 296.816C191.762 296.816 179.002 309.575 179.002 325.313C179.002 341.051 191.762 353.809 207.502 353.809Z" fill="#2B80FF"/>
<path d="M207.227 356.676C222.966 356.676 235.726 343.917 235.726 328.179C235.726 312.441 222.966 299.683 207.227 299.683C191.487 299.683 178.728 312.441 178.728 328.179C178.728 343.917 191.487 356.676 207.227 356.676Z" fill="#2A7FFF"/>
<path d="M207.07 359.542C222.809 359.542 235.569 346.783 235.569 331.045C235.569 315.307 222.809 302.549 207.07 302.549C191.33 302.549 178.571 315.307 178.571 331.045C178.571 346.783 191.33 359.542 207.07 359.542Z" fill="#2A7FFF"/>
<path d="M207.037 362.401C222.777 362.401 235.536 349.643 235.536 333.904C235.536 318.166 222.777 305.408 207.037 305.408C191.297 305.408 178.538 318.166 178.538 333.904C178.538 349.643 191.297 362.401 207.037 362.401Z" fill="#2A7EFF"/>
<path d="M207.142 365.247C222.881 365.247 235.641 352.489 235.641 336.751C235.641 321.013 222.881 308.254 207.142 308.254C191.402 308.254 178.643 321.013 178.643 336.751C178.643 352.489 191.402 365.247 207.142 365.247Z" fill="#2A7EFF"/>
<path d="M207.384 368.087C223.124 368.087 235.883 355.329 235.883 339.591C235.883 323.853 223.124 311.094 207.384 311.094C191.644 311.094 178.885 323.853 178.885 339.591C178.885 355.329 191.644 368.087 207.384 368.087Z" fill="#297DFF"/>
<path d="M207.777 370.901C223.516 370.901 236.276 358.143 236.276 342.404C236.276 326.666 223.516 313.908 207.777 313.908C192.037 313.908 179.277 326.666 179.277 342.404C179.277 358.143 192.037 370.901 207.777 370.901Z" fill="#297DFF"/>
<path d="M208.333 373.695C224.072 373.695 236.832 360.937 236.832 345.198C236.832 329.46 224.072 316.702 208.333 316.702C192.593 316.702 179.834 329.46 179.834 345.198C179.834 360.937 192.593 373.695 208.333 373.695Z" fill="#297CFF"/>
<path d="M209.059 376.463C224.799 376.463 237.558 363.704 237.558 347.966C237.558 332.228 224.799 319.47 209.059 319.47C193.319 319.47 180.56 332.228 180.56 347.966C180.56 363.704 193.319 376.463 209.059 376.463Z" fill="#297BFF"/>
<path d="M209.962 379.198C225.702 379.198 238.461 366.44 238.461 350.701C238.461 334.963 225.702 322.205 209.962 322.205C194.223 322.205 181.463 334.963 181.463 350.701C181.463 366.44 194.223 379.198 209.962 379.198Z" fill="#287BFF"/>
<path d="M211.055 381.894C226.795 381.894 239.554 369.136 239.554 353.397C239.554 337.659 226.795 324.901 211.055 324.901C195.315 324.901 182.556 337.659 182.556 353.397C182.556 369.136 195.315 381.894 211.055 381.894Z" fill="#287AFF"/>
<path d="M212.344 384.544C228.084 384.544 240.843 371.786 240.843 356.047C240.843 340.309 228.084 327.551 212.344 327.551C196.605 327.551 183.845 340.309 183.845 356.047C183.845 371.786 196.605 384.544 212.344 384.544Z" fill="#287AFF"/>
<path d="M213.836 387.155C229.576 387.155 242.336 374.396 242.336 358.658C242.336 342.92 229.576 330.162 213.836 330.162C198.097 330.162 185.337 342.92 185.337 358.658C185.337 374.396 198.097 387.155 213.836 387.155Z" fill="#2879FF"/>
<path d="M215.368 389.464C231.107 389.464 243.867 376.706 243.867 360.968C243.867 345.23 231.107 332.471 215.368 332.471C199.628 332.471 186.868 345.23 186.868 360.968C186.868 376.706 199.628 389.464 215.368 389.464Z" fill="#2779FF"/>
<path d="M216.964 391.585C232.704 391.585 245.464 378.826 245.464 363.088C245.464 347.35 232.704 334.592 216.964 334.592C201.225 334.592 188.465 347.35 188.465 363.088C188.465 378.826 201.225 391.585 216.964 391.585Z" fill="#2778FF"/>
<path d="M218.698 393.633C234.438 393.633 247.198 380.874 247.198 365.136C247.198 349.398 234.438 336.64 218.698 336.64C202.959 336.64 190.199 349.398 190.199 365.136C190.199 380.874 202.959 393.633 218.698 393.633Z" fill="#2778FF"/>
<path d="M220.557 395.596C236.297 395.596 249.056 382.837 249.056 367.099C249.056 351.361 236.297 338.603 220.557 338.603C204.817 338.603 192.058 351.361 192.058 367.099C192.058 382.837 204.817 395.596 220.557 395.596Z" fill="#2777FF"/>
<path d="M222.54 397.48C238.279 397.48 251.039 384.722 251.039 368.984C251.039 353.245 238.279 340.487 222.54 340.487C206.8 340.487 194.041 353.245 194.041 368.984C194.041 384.722 206.8 397.48 222.54 397.48Z" fill="#2676FF"/>
<path d="M224.634 399.273C240.374 399.273 253.133 386.515 253.133 370.777C253.133 355.038 240.374 342.28 224.634 342.28C208.894 342.28 196.135 355.038 196.135 370.777C196.135 386.515 208.894 399.273 224.634 399.273Z" fill="#2676FF"/>
<path d="M226.839 400.968C242.579 400.968 255.338 388.21 255.338 372.471C255.338 356.733 242.579 343.975 226.839 343.975C211.1 343.975 198.34 356.733 198.34 372.471C198.34 388.21 211.1 400.968 226.839 400.968Z" fill="#2675FF"/>
<path d="M229.149 402.558C244.889 402.558 257.648 389.8 257.648 374.061C257.648 358.323 244.889 345.565 229.149 345.565C213.41 345.565 200.65 358.323 200.65 374.061C200.65 389.8 213.41 402.558 229.149 402.558Z" fill="#2675FF"/>
<path d="M231.557 404.037C247.297 404.037 260.057 391.278 260.057 375.54C260.057 359.802 247.297 347.044 231.557 347.044C215.818 347.044 203.058 359.802 203.058 375.54C203.058 391.278 215.818 404.037 231.557 404.037Z" fill="#2574FF"/>
<path d="M234.057 405.398C249.797 405.398 262.557 392.64 262.557 376.901C262.557 361.163 249.797 348.405 234.057 348.405C218.318 348.405 205.558 361.163 205.558 376.901C205.558 392.64 218.318 405.398 234.057 405.398Z" fill="#2574FF"/>
<path d="M236.649 406.641C252.388 406.641 265.148 393.883 265.148 378.144C265.148 362.406 252.388 349.648 236.649 349.648C220.909 349.648 208.15 362.406 208.15 378.144C208.15 393.883 220.909 406.641 236.649 406.641Z" fill="#2573FF"/>
<path d="M239.312 407.747C255.052 407.747 267.811 394.989 267.811 379.25C267.811 363.512 255.052 350.754 239.312 350.754C223.572 350.754 210.813 363.512 210.813 379.25C210.813 394.989 223.572 407.747 239.312 407.747Z" fill="#2572FF"/>
<path d="M242.048 408.722C257.787 408.722 270.547 395.963 270.547 380.225C270.547 364.487 257.787 351.729 242.048 351.729C226.308 351.729 213.548 364.487 213.548 380.225C213.548 395.963 226.308 408.722 242.048 408.722Z" fill="#2472FF"/>
<path d="M244.855 409.553C260.595 409.553 273.354 396.795 273.354 381.056C273.354 365.318 260.595 352.56 244.855 352.56C229.115 352.56 216.356 365.318 216.356 381.056C216.356 396.795 229.115 409.553 244.855 409.553Z" fill="#2471FF"/>
<path d="M247.721 410.233C263.461 410.233 276.22 397.475 276.22 381.737C276.22 365.999 263.461 353.24 247.721 353.24C231.982 353.24 219.222 365.999 219.222 381.737C219.222 397.475 231.982 410.233 247.721 410.233Z" fill="#2471FF"/>
<path d="M250.64 410.763C266.379 410.763 279.139 398.005 279.139 382.267C279.139 366.529 266.379 353.77 250.64 353.77C234.9 353.77 222.141 366.529 222.141 382.267C222.141 398.005 234.9 410.763 250.64 410.763Z" fill="#2470FF"/>
<path d="M253.611 411.13C269.35 411.13 282.11 398.371 282.11 382.633C282.11 366.895 269.35 354.137 253.611 354.137C237.871 354.137 225.112 366.895 225.112 382.633C225.112 398.371 237.871 411.13 253.611 411.13Z" fill="#2370FF"/>
<path d="M256.575 411.326C272.315 411.326 285.074 398.568 285.074 382.83C285.074 367.091 272.315 354.333 256.575 354.333C240.836 354.333 228.076 367.091 228.076 382.83C228.076 398.568 240.836 411.326 256.575 411.326Z" fill="#236FFF"/>
<path d="M259.592 411.123C275.332 411.123 288.091 398.365 288.091 382.627C288.091 366.888 275.332 354.13 259.592 354.13C243.852 354.13 231.093 366.888 231.093 382.627C231.093 398.365 243.852 411.123 259.592 411.123Z" fill="#246FFF"/>
<path d="M262.563 410.757C278.303 410.757 291.062 397.998 291.062 382.26C291.062 366.522 278.303 353.764 262.563 353.764C246.823 353.764 234.064 366.522 234.064 382.26C234.064 397.998 246.823 410.757 262.563 410.757Z" fill="#246FFF"/>
<path d="M265.488 410.227C281.228 410.227 293.987 397.468 293.987 381.73C293.987 365.992 281.228 353.234 265.488 353.234C249.749 353.234 236.989 365.992 236.989 381.73C236.989 397.468 249.749 410.227 265.488 410.227Z" fill="#256FFF"/>
<path d="M268.354 409.546C284.094 409.546 296.854 396.788 296.854 381.05C296.854 365.312 284.094 352.553 268.354 352.553C252.615 352.553 239.855 365.312 239.855 381.05C239.855 396.788 252.615 409.546 268.354 409.546Z" fill="#2670FF"/>
<path d="M271.162 408.709C286.902 408.709 299.661 395.95 299.661 380.212C299.661 364.474 286.902 351.716 271.162 351.716C255.422 351.716 242.663 364.474 242.663 380.212C242.663 395.95 255.422 408.709 271.162 408.709Z" fill="#2670FF"/>
<path d="M273.904 407.734C289.643 407.734 302.403 394.975 302.403 379.237C302.403 363.499 289.643 350.741 273.904 350.741C258.164 350.741 245.405 363.499 245.405 379.237C245.405 394.975 258.164 407.734 273.904 407.734Z" fill="#2770FF"/>
<path d="M276.567 406.621C292.307 406.621 305.066 393.863 305.066 378.125C305.066 362.387 292.307 349.628 276.567 349.628C260.828 349.628 248.068 362.387 248.068 378.125C248.068 393.863 260.828 406.621 276.567 406.621Z" fill="#2770FF"/>
<path d="M279.152 405.378C294.892 405.378 307.651 392.62 307.651 376.882C307.651 361.143 294.892 348.385 279.152 348.385C263.412 348.385 250.653 361.143 250.653 376.882C250.653 392.62 263.412 405.378 279.152 405.378Z" fill="#2870FF"/>
<path d="M281.658 404.011C297.398 404.011 310.158 391.252 310.158 375.514C310.158 359.776 297.398 347.018 281.658 347.018C265.919 347.018 253.159 359.776 253.159 375.514C253.159 391.252 265.919 404.011 281.658 404.011Z" fill="#2970FF"/>
<path d="M284.067 402.532C299.806 402.532 312.566 389.773 312.566 374.035C312.566 358.297 299.806 345.539 284.067 345.539C268.327 345.539 255.568 358.297 255.568 374.035C255.568 389.773 268.327 402.532 284.067 402.532Z" fill="#2971FF"/>
<path d="M286.377 400.935C302.116 400.935 314.876 388.177 314.876 372.439C314.876 356.7 302.116 343.942 286.377 343.942C270.637 343.942 257.878 356.7 257.878 372.439C257.878 388.177 270.637 400.935 286.377 400.935Z" fill="#2A71FF"/>
<path d="M288.582 399.24C304.322 399.24 317.081 386.482 317.081 370.744C317.081 355.006 304.322 342.247 288.582 342.247C272.842 342.247 260.083 355.006 260.083 370.744C260.083 386.482 272.842 399.24 288.582 399.24Z" fill="#2B71FF"/>
<path d="M290.683 397.441C306.422 397.441 319.182 384.683 319.182 368.945C319.182 353.206 306.422 340.448 290.683 340.448C274.943 340.448 262.183 353.206 262.183 368.945C262.183 384.683 274.943 397.441 290.683 397.441Z" fill="#2B71FF"/>
<path d="M292.659 395.556C308.399 395.556 321.158 382.798 321.158 367.06C321.158 351.322 308.399 338.563 292.659 338.563C276.919 338.563 264.16 351.322 264.16 367.06C264.16 382.798 276.919 395.556 292.659 395.556Z" fill="#2C71FF"/>
<path d="M294.517 393.587C310.257 393.587 323.017 380.828 323.017 365.09C323.017 349.352 310.257 336.594 294.517 336.594C278.778 336.594 266.018 349.352 266.018 365.09C266.018 380.828 278.778 393.587 294.517 393.587Z" fill="#2D71FF"/>
<path d="M296.245 391.532C311.985 391.532 324.744 378.774 324.744 363.036C324.744 347.297 311.985 334.539 296.245 334.539C280.505 334.539 267.746 347.297 267.746 363.036C267.746 378.774 280.505 391.532 296.245 391.532Z" fill="#2D71FF"/>
<path d="M297.842 389.412C313.582 389.412 326.341 376.654 326.341 360.916C326.341 345.178 313.582 332.419 297.842 332.419C282.102 332.419 269.343 345.178 269.343 360.916C269.343 376.654 282.102 389.412 297.842 389.412Z" fill="#2E72FF"/>
<path d="M299.38 387.089C315.119 387.089 327.879 374.331 327.879 358.593C327.879 342.855 315.119 330.096 299.38 330.096C283.64 330.096 270.88 342.855 270.88 358.593C270.88 374.331 283.64 387.089 299.38 387.089Z" fill="#2E72FF"/>
<path d="M300.872 384.478C316.611 384.478 329.371 371.72 329.371 355.982C329.371 340.244 316.611 327.485 300.872 327.485C285.132 327.485 272.372 340.244 272.372 355.982C272.372 371.72 285.132 384.478 300.872 384.478Z" fill="#2F72FF"/>
<path d="M302.154 381.822C317.894 381.822 330.654 369.064 330.654 353.325C330.654 337.587 317.894 324.829 302.154 324.829C286.415 324.829 273.655 337.587 273.655 353.325C273.655 369.064 286.415 381.822 302.154 381.822Z" fill="#3072FF"/>
<path d="M303.241 379.119C318.98 379.119 331.74 366.361 331.74 350.623C331.74 334.885 318.98 322.126 303.241 322.126C287.501 322.126 274.741 334.885 274.741 350.623C274.741 366.361 287.501 379.119 303.241 379.119Z" fill="#3072FF"/>
<path d="M304.144 376.384C319.883 376.384 332.643 363.626 332.643 347.888C332.643 332.149 319.883 319.391 304.144 319.391C288.404 319.391 275.645 332.149 275.645 347.888C275.645 363.626 288.404 376.384 304.144 376.384Z" fill="#3172FF"/>
<path d="M304.864 373.61C320.603 373.61 333.363 360.851 333.363 345.113C333.363 329.375 320.603 316.617 304.864 316.617C289.124 316.617 276.364 329.375 276.364 345.113C276.364 360.851 289.124 373.61 304.864 373.61Z" fill="#3273FF"/>
<path d="M305.413 370.816C321.153 370.816 333.912 358.057 333.912 342.319C333.912 326.581 321.153 313.823 305.413 313.823C289.674 313.823 276.914 326.581 276.914 342.319C276.914 358.057 289.674 370.816 305.413 370.816Z" fill="#3273FF"/>
<path d="M305.806 367.996C321.546 367.996 334.305 355.237 334.305 339.499C334.305 323.761 321.546 311.003 305.806 311.003C290.066 311.003 277.307 323.761 277.307 339.499C277.307 355.237 290.066 367.996 305.806 367.996Z" fill="#3373FF"/>
<path d="M306.042 365.156C321.781 365.156 334.541 352.398 334.541 336.659C334.541 320.921 321.781 308.163 306.042 308.163C290.302 308.163 277.542 320.921 277.542 336.659C277.542 352.398 290.302 365.156 306.042 365.156Z" fill="#3473FF"/>
<path d="M306.14 362.303C321.879 362.303 334.639 349.545 334.639 333.806C334.639 318.068 321.879 305.31 306.14 305.31C290.4 305.31 277.64 318.068 277.64 333.806C277.64 349.545 290.4 362.303 306.14 362.303Z" fill="#3473FF"/>
<path d="M306.1 359.437C321.84 359.437 334.6 346.679 334.6 330.94C334.6 315.202 321.84 302.444 306.1 302.444C290.361 302.444 277.601 315.202 277.601 330.94C277.601 346.679 290.361 359.437 306.1 359.437Z" fill="#3573FF"/>
<path d="M305.937 356.571C321.676 356.571 334.436 343.813 334.436 328.074C334.436 312.336 321.676 299.578 305.937 299.578C290.197 299.578 277.438 312.336 277.438 328.074C277.438 343.813 290.197 356.571 305.937 356.571Z" fill="#3573FF"/>
<path d="M305.662 353.705C321.402 353.705 334.161 340.946 334.161 325.208C334.161 309.47 321.402 296.712 305.662 296.712C289.922 296.712 277.163 309.47 277.163 325.208C277.163 340.946 289.922 353.705 305.662 353.705Z" fill="#3674FF"/>
<path d="M305.282 350.839C321.022 350.839 333.782 338.08 333.782 322.342C333.782 306.604 321.022 293.846 305.282 293.846C289.543 293.846 276.783 306.604 276.783 322.342C276.783 338.08 289.543 350.839 305.282 350.839Z" fill="#3774FF"/>
<path d="M304.805 347.986C320.544 347.986 333.304 335.228 333.304 319.489C333.304 303.751 320.544 290.993 304.805 290.993C289.065 290.993 276.305 303.751 276.305 319.489C276.305 335.228 289.065 347.986 304.805 347.986Z" fill="#3774FF"/>
<path d="M304.235 345.146C319.975 345.146 332.735 332.388 332.735 316.65C332.735 300.911 319.975 288.153 304.235 288.153C288.496 288.153 275.736 300.911 275.736 316.65C275.736 332.388 288.496 345.146 304.235 345.146Z" fill="#3874FF"/>
<path d="M303.587 342.326C319.327 342.326 332.087 329.567 332.087 313.829C332.087 298.091 319.327 285.333 303.587 285.333C287.848 285.333 275.088 298.091 275.088 313.829C275.088 329.567 287.848 342.326 303.587 342.326Z" fill="#3974FF"/>
<path d="M302.874 339.525C318.614 339.525 331.373 326.767 331.373 311.029C331.373 295.291 318.614 282.532 302.874 282.532C287.135 282.532 274.375 295.291 274.375 311.029C274.375 326.767 287.135 339.525 302.874 339.525Z" fill="#3974FF"/>
<path d="M302.102 336.751C317.842 336.751 330.601 323.993 330.601 308.254C330.601 292.516 317.842 279.758 302.102 279.758C286.362 279.758 273.603 292.516 273.603 308.254C273.603 323.993 286.362 336.751 302.102 336.751Z" fill="#3A75FF"/>
<path d="M301.277 334.009C317.017 334.009 329.777 321.251 329.777 305.513C329.777 289.774 317.017 277.016 301.277 277.016C285.538 277.016 272.778 289.774 272.778 305.513C272.778 321.251 285.538 334.009 301.277 334.009Z" fill="#3B75FF"/>
<path d="M300.407 331.307C316.147 331.307 328.906 318.548 328.906 302.81C328.906 287.072 316.147 274.314 300.407 274.314C284.667 274.314 271.908 287.072 271.908 302.81C271.908 318.548 284.667 331.307 300.407 331.307Z" fill="#3B75FF"/>
<path d="M299.511 328.644C315.25 328.644 328.01 315.885 328.01 300.147C328.01 284.409 315.25 271.651 299.511 271.651C283.771 271.651 271.011 284.409 271.011 300.147C271.011 315.885 283.771 328.644 299.511 328.644Z" fill="#3C75FF"/>
<path d="M298.581 326.026C314.321 326.026 327.08 313.268 327.08 297.53C327.08 281.792 314.321 269.033 298.581 269.033C282.842 269.033 270.082 281.792 270.082 297.53C270.082 313.268 282.842 326.026 298.581 326.026Z" fill="#3C75FF"/>
<path d="M297.646 323.461C313.385 323.461 326.145 310.703 326.145 294.965C326.145 279.227 313.385 266.468 297.646 266.468C281.906 266.468 269.146 279.227 269.146 294.965C269.146 310.703 281.906 323.461 297.646 323.461Z" fill="#3D75FF"/>
<path d="M296.703 320.949C312.443 320.949 325.202 308.19 325.202 292.452C325.202 276.714 312.443 263.956 296.703 263.956C280.963 263.956 268.204 276.714 268.204 292.452C268.204 308.19 280.963 320.949 296.703 320.949Z" fill="#3E75FF"/>
<path d="M295.761 318.495C311.501 318.495 324.26 305.736 324.26 289.998C324.26 274.26 311.501 261.502 295.761 261.502C280.021 261.502 267.262 274.26 267.262 289.998C267.262 305.736 280.021 318.495 295.761 318.495Z" fill="#3E76FF"/>
<path d="M294.838 316.106C310.578 316.106 323.337 303.348 323.337 287.61C323.337 271.872 310.578 259.113 294.838 259.113C279.098 259.113 266.339 271.872 266.339 287.61C266.339 303.348 279.098 316.106 294.838 316.106Z" fill="#3E76FF"/>
<path d="M294.216 314.523C309.956 314.523 322.716 301.764 322.716 286.026C322.716 270.288 309.956 257.53 294.216 257.53C278.477 257.53 265.717 270.288 265.717 286.026C265.717 301.764 278.477 314.523 294.216 314.523Z" fill="#4076FF"/>
<path d="M294.066 314.143C309.806 314.143 322.565 301.385 322.565 285.647C322.565 269.909 309.806 257.15 294.066 257.15C278.326 257.15 265.567 269.909 265.567 285.647C265.567 301.385 278.326 314.143 294.066 314.143Z" fill="#4076FF"/>
<path d="M293.843 313.594C309.583 313.594 322.343 300.836 322.343 285.097C322.343 269.359 309.583 256.601 293.843 256.601C278.104 256.601 265.344 269.359 265.344 285.097C265.344 300.836 278.104 313.594 293.843 313.594Z" fill="#4176FF"/>
<path d="M293.549 312.874C309.289 312.874 322.048 300.116 322.048 284.377C322.048 268.639 309.289 255.881 293.549 255.881C277.809 255.881 265.05 268.639 265.05 284.377C265.05 300.116 277.809 312.874 293.549 312.874Z" fill="#4276FF"/>
<path d="M293.182 311.997C308.922 311.997 321.682 299.239 321.682 283.501C321.682 267.762 308.922 255.004 293.182 255.004C277.443 255.004 264.683 267.762 264.683 283.501C264.683 299.239 277.443 311.997 293.182 311.997Z" fill="#4277FF"/>
<path d="M292.744 310.963C308.484 310.963 321.243 298.205 321.243 282.467C321.243 266.729 308.484 253.97 292.744 253.97C277.004 253.97 264.245 266.729 264.245 282.467C264.245 298.205 277.004 310.963 292.744 310.963Z" fill="#4377FF"/>
<path d="M292.24 309.786C307.98 309.786 320.739 297.027 320.739 281.289C320.739 265.551 307.98 252.792 292.24 252.792C276.5 252.792 263.741 265.551 263.741 281.289C263.741 297.027 276.5 309.786 292.24 309.786Z" fill="#4377FF"/>
<path d="M291.658 308.47C307.397 308.47 320.157 295.712 320.157 279.974C320.157 264.236 307.397 251.477 291.658 251.477C275.918 251.477 263.159 264.236 263.159 279.974C263.159 295.712 275.918 308.47 291.658 308.47Z" fill="#4577FF"/>
<path d="M291.01 307.018C306.75 307.018 319.509 294.259 319.509 278.521C319.509 262.783 306.75 250.025 291.01 250.025C275.27 250.025 262.511 262.783 262.511 278.521C262.511 294.259 275.27 307.018 291.01 307.018Z" fill="#4577FF"/>
<path d="M290.29 305.441C306.03 305.441 318.789 292.682 318.789 276.944C318.789 261.206 306.03 248.448 290.29 248.448C274.55 248.448 261.791 261.206 261.791 276.944C261.791 292.682 274.55 305.441 290.29 305.441Z" fill="#4577FF"/>
<path d="M289.498 303.746C305.238 303.746 317.997 290.988 317.997 275.249C317.997 259.511 305.238 246.753 289.498 246.753C273.759 246.753 260.999 259.511 260.999 275.249C260.999 290.988 273.759 303.746 289.498 303.746Z" fill="#4677FF"/>
<path d="M288.641 301.933C304.381 301.933 317.14 289.175 317.14 273.437C317.14 257.699 304.381 244.94 288.641 244.94C272.901 244.94 260.142 257.699 260.142 273.437C260.142 289.175 272.901 301.933 288.641 301.933Z" fill="#4778FF"/>
<path d="M287.712 300.023C303.451 300.023 316.211 287.264 316.211 271.526C316.211 255.788 303.451 243.03 287.712 243.03C271.972 243.03 259.212 255.788 259.212 271.526C259.212 287.264 271.972 300.023 287.712 300.023Z" fill="#4778FF"/>
<path d="M286.717 298.001C302.457 298.001 315.216 285.243 315.216 269.504C315.216 253.766 302.457 241.008 286.717 241.008C270.977 241.008 258.218 253.766 258.218 269.504C258.218 285.243 270.977 298.001 286.717 298.001Z" fill="#4878FF"/>
<path d="M285.65 295.894C301.39 295.894 314.15 283.136 314.15 267.397C314.15 251.659 301.39 238.901 285.65 238.901C269.911 238.901 257.151 251.659 257.151 267.397C257.151 283.136 269.911 295.894 285.65 295.894Z" fill="#4978FF"/>
<path d="M284.525 293.695C300.264 293.695 313.024 280.937 313.024 265.199C313.024 249.46 300.264 236.702 284.525 236.702C268.785 236.702 256.026 249.46 256.026 265.199C256.026 280.937 268.785 293.695 284.525 293.695Z" fill="#4978FF"/>
<path d="M283.321 291.418C299.06 291.418 311.82 278.66 311.82 262.922C311.82 247.183 299.06 234.425 283.321 234.425C267.581 234.425 254.821 247.183 254.821 262.922C254.821 278.66 267.581 291.418 283.321 291.418Z" fill="#4A78FF"/>
<path d="M282.058 289.069C297.797 289.069 310.557 276.311 310.557 260.573C310.557 244.835 297.797 232.076 282.058 232.076C266.318 232.076 253.558 244.835 253.558 260.573C253.558 276.311 266.318 289.069 282.058 289.069Z" fill="#4A79FF"/>
<path d="M280.723 286.655C296.462 286.655 309.222 273.896 309.222 258.158C309.222 242.42 296.462 229.662 280.723 229.662C264.983 229.662 252.223 242.42 252.223 258.158C252.223 273.896 264.983 286.655 280.723 286.655Z" fill="#4B79FF"/>
<path d="M279.322 284.175C295.062 284.175 307.821 271.416 307.821 255.678C307.821 239.94 295.062 227.182 279.322 227.182C263.583 227.182 250.823 239.94 250.823 255.678C250.823 271.416 263.583 284.175 279.322 284.175Z" fill="#4C79FF"/>
<path d="M277.856 281.649C293.596 281.649 306.356 268.89 306.356 253.152C306.356 237.414 293.596 224.656 277.856 224.656C262.117 224.656 249.357 237.414 249.357 253.152C249.357 268.89 262.117 281.649 277.856 281.649Z" fill="#4C79FF"/>
<path d="M276.325 279.071C292.065 279.071 304.824 266.312 304.824 250.574C304.824 234.836 292.065 222.078 276.325 222.078C260.585 222.078 247.826 234.836 247.826 250.574C247.826 266.312 260.585 279.071 276.325 279.071Z" fill="#4D79FF"/>
<path d="M274.728 276.453C290.468 276.453 303.228 263.695 303.228 247.957C303.228 232.219 290.468 219.46 274.728 219.46C258.989 219.46 246.229 232.219 246.229 247.957C246.229 263.695 258.989 276.453 274.728 276.453Z" fill="#4E79FF"/>
<path d="M273.073 273.803C288.812 273.803 301.572 261.045 301.572 245.307C301.572 229.569 288.812 216.81 273.073 216.81C257.333 216.81 244.574 229.569 244.574 245.307C244.574 261.045 257.333 273.803 273.073 273.803Z" fill="#4E79FF"/>
<path d="M271.345 271.127C287.085 271.127 299.844 258.369 299.844 242.631C299.844 226.892 287.085 214.134 271.345 214.134C255.605 214.134 242.846 226.892 242.846 242.631C242.846 258.369 255.605 271.127 271.345 271.127Z" fill="#4F7AFF"/>
<path d="M269.552 268.431C285.292 268.431 298.051 255.673 298.051 239.935C298.051 224.197 285.292 211.438 269.552 211.438C253.812 211.438 241.053 224.197 241.053 239.935C241.053 255.673 253.812 268.431 269.552 268.431Z" fill="#507AFF"/>
<path d="M267.7 265.716C283.44 265.716 296.199 252.957 296.199 237.219C296.199 221.481 283.44 208.723 267.7 208.723C251.96 208.723 239.201 221.481 239.201 237.219C239.201 252.957 251.96 265.716 267.7 265.716Z" fill="#507AFF"/>
<path d="M265.783 263C281.522 263 294.282 250.242 294.282 234.504C294.282 218.765 281.522 206.007 265.783 206.007C250.043 206.007 237.284 218.765 237.284 234.504C237.284 250.242 250.043 263 265.783 263Z" fill="#517AFF"/>
<path d="M263.806 260.285C279.546 260.285 292.306 247.526 292.306 231.788C292.306 216.05 279.546 203.292 263.806 203.292C248.067 203.292 235.307 216.05 235.307 231.788C235.307 247.526 248.067 260.285 263.806 260.285Z" fill="#517AFF"/>
<path d="M261.758 257.569C277.498 257.569 290.257 244.811 290.257 229.073C290.257 213.334 277.498 200.576 261.758 200.576C246.018 200.576 233.259 213.334 233.259 229.073C233.259 244.811 246.018 257.569 261.758 257.569Z" fill="#527AFF"/>
<path d="M259.657 254.873C275.397 254.873 288.157 242.115 288.157 226.377C288.157 210.638 275.397 197.88 259.657 197.88C243.918 197.88 231.158 210.638 231.158 226.377C231.158 242.115 243.918 254.873 259.657 254.873Z" fill="#537BFF"/>
<path d="M257.485 252.197C273.225 252.197 285.984 239.439 285.984 223.701C285.984 207.962 273.225 195.204 257.485 195.204C241.745 195.204 228.986 207.962 228.986 223.701C228.986 239.439 241.745 252.197 257.485 252.197Z" fill="#537BFF"/>
<path d="M255.26 249.547C271 249.547 283.759 236.789 283.759 221.05C283.759 205.312 271 192.554 255.26 192.554C239.52 192.554 226.761 205.312 226.761 221.05C226.761 236.789 239.52 249.547 255.26 249.547Z" fill="#547BFF"/>
<path d="M252.97 246.93C268.709 246.93 281.469 234.171 281.469 218.433C281.469 202.695 268.709 189.937 252.97 189.937C237.23 189.937 224.47 202.695 224.47 218.433C224.47 234.171 237.23 246.93 252.97 246.93Z" fill="#557BFF"/>
<path d="M250.62 244.345C266.36 244.345 279.119 231.587 279.119 215.848C279.119 200.11 266.36 187.352 250.62 187.352C234.881 187.352 222.121 200.11 222.121 215.848C222.121 231.587 234.881 244.345 250.62 244.345Z" fill="#557BFF"/>
<path d="M248.205 241.813C263.945 241.813 276.705 229.054 276.705 213.316C276.705 197.578 263.945 184.82 248.205 184.82C232.466 184.82 219.706 197.578 219.706 213.316C219.706 229.054 232.466 241.813 248.205 241.813Z" fill="#567BFF"/>
<path d="M245.732 239.339C261.471 239.339 274.231 226.581 274.231 210.843C274.231 195.105 261.471 182.346 245.732 182.346C229.992 182.346 217.233 195.105 217.233 210.843C217.233 226.581 229.992 239.339 245.732 239.339Z" fill="#577BFF"/>
<path d="M243.199 236.918C258.939 236.918 271.698 224.16 271.698 208.422C271.698 192.683 258.939 179.925 243.199 179.925C227.46 179.925 214.7 192.683 214.7 208.422C214.7 224.16 227.46 236.918 243.199 236.918Z" fill="#577CFF"/>
<path d="M240.608 234.563C256.348 234.563 269.107 221.804 269.107 206.066C269.107 190.328 256.348 177.57 240.608 177.57C224.868 177.57 212.109 190.328 212.109 206.066C212.109 221.804 224.868 234.563 240.608 234.563Z" fill="#587CFF"/>
<path d="M237.958 232.286C253.697 232.286 266.457 219.527 266.457 203.789C266.457 188.051 253.697 175.292 237.958 175.292C222.218 175.292 209.458 188.051 209.458 203.789C209.458 219.527 222.218 232.286 237.958 232.286Z" fill="#587CFF"/>
<path d="M235.248 230.087C250.988 230.087 263.747 217.328 263.747 201.59C263.747 185.852 250.988 173.094 235.248 173.094C219.509 173.094 206.749 185.852 206.749 201.59C206.749 217.328 219.509 230.087 235.248 230.087Z" fill="#597CFF"/>
<path d="M232.48 227.973C248.22 227.973 260.979 215.215 260.979 199.477C260.979 183.739 248.22 170.98 232.48 170.98C216.741 170.98 203.981 183.739 203.981 199.477C203.981 215.215 216.741 227.973 232.48 227.973Z" fill="#5A7CFF"/>
<path d="M229.653 225.952C245.393 225.952 258.152 213.193 258.152 197.455C258.152 181.717 245.393 168.958 229.653 168.958C213.914 168.958 201.154 181.717 201.154 197.455C201.154 213.193 213.914 225.952 229.653 225.952Z" fill="#5A7CFF"/>
<path d="M226.774 224.028C242.513 224.028 255.273 211.269 255.273 195.531C255.273 179.793 242.513 167.035 226.774 167.035C211.034 167.035 198.275 179.793 198.275 195.531C198.275 211.269 211.034 224.028 226.774 224.028Z" fill="#5B7DFF"/>
<path d="M223.829 222.215C239.569 222.215 252.328 209.457 252.328 193.719C252.328 177.98 239.569 165.222 223.829 165.222C208.089 165.222 195.33 177.98 195.33 193.719C195.33 209.457 208.089 222.215 223.829 222.215Z" fill="#5C7DFF"/>
<path d="M220.832 220.514C236.572 220.514 249.331 207.755 249.331 192.017C249.331 176.279 236.572 163.521 220.832 163.521C205.092 163.521 192.333 176.279 192.333 192.017C192.333 207.755 205.092 220.514 220.832 220.514Z" fill="#5C7DFF"/>
<path d="M217.776 218.93C233.515 218.93 246.275 206.172 246.275 190.434C246.275 174.696 233.515 161.937 217.776 161.937C202.036 161.937 189.277 174.696 189.277 190.434C189.277 206.172 202.036 218.93 217.776 218.93Z" fill="#5D7DFF"/>
<path d="M214.667 217.478C230.407 217.478 243.167 204.719 243.167 188.981C243.167 173.243 230.407 160.485 214.667 160.485C198.928 160.485 186.168 173.243 186.168 188.981C186.168 204.719 198.928 217.478 214.667 217.478Z" fill="#5E7DFF"/>
<path d="M211.5 216.156C227.24 216.156 239.999 203.398 239.999 187.659C239.999 171.921 227.24 159.163 211.5 159.163C195.76 159.163 183.001 171.921 183.001 187.659C183.001 203.398 195.76 216.156 211.5 216.156Z" fill="#5E7DFF"/>
<path d="M208.28 214.972C224.02 214.972 236.78 202.213 236.78 186.475C236.78 170.737 224.02 157.979 208.28 157.979C192.541 157.979 179.781 170.737 179.781 186.475C179.781 202.213 192.541 214.972 208.28 214.972Z" fill="#5F7DFF"/>
<path d="M205.002 213.931C220.742 213.931 233.501 201.173 233.501 185.435C233.501 169.697 220.742 156.938 205.002 156.938C189.262 156.938 176.503 169.697 176.503 185.435C176.503 201.173 189.262 213.931 205.002 213.931Z" fill="#5F7EFF"/>
<path d="M201.671 213.048C217.411 213.048 230.17 200.289 230.17 184.551C230.17 168.813 217.411 156.055 201.671 156.055C185.931 156.055 173.172 168.813 173.172 184.551C173.172 200.289 185.931 213.048 201.671 213.048Z" fill="#607EFF"/>
<path d="M198.281 212.322C214.021 212.322 226.78 199.563 226.78 183.825C226.78 168.087 214.021 155.329 198.281 155.329C182.541 155.329 169.782 168.087 169.782 183.825C169.782 199.563 182.541 212.322 198.281 212.322Z" fill="#617EFF"/>
<path d="M194.839 211.765C210.579 211.765 223.338 199.007 223.338 183.269C223.338 167.531 210.579 154.772 194.839 154.772C179.099 154.772 166.34 167.531 166.34 183.269C166.34 199.007 179.099 211.765 194.839 211.765Z" fill="#617EFF"/>
<path d="M191.344 211.379C207.084 211.379 219.844 198.621 219.844 182.883C219.844 167.145 207.084 154.386 191.344 154.386C175.605 154.386 162.845 167.145 162.845 182.883C162.845 198.621 175.605 211.379 191.344 211.379Z" fill="#627EFF"/>
<path d="M187.798 211.176C203.537 211.176 216.297 198.418 216.297 182.68C216.297 166.942 203.537 154.183 187.798 154.183C172.058 154.183 159.298 166.942 159.298 182.68C159.298 198.418 172.058 211.176 187.798 211.176Z" fill="#637EFF"/>
<path d="M184.198 211.157C199.938 211.157 212.698 198.399 212.698 182.66C212.698 166.922 199.938 154.164 184.198 154.164C168.459 154.164 155.699 166.922 155.699 182.66C155.699 198.399 168.459 211.157 184.198 211.157Z" fill="#637FFF"/>
<path d="M180.233 211.353C195.972 211.353 208.732 198.595 208.732 182.857C208.732 167.118 195.972 154.36 180.233 154.36C164.493 154.36 151.734 167.118 151.734 182.857C151.734 198.595 164.493 211.353 180.233 211.353Z" fill="#647FFF"/>
<path d="M176.319 211.785C192.059 211.785 204.819 199.027 204.819 183.289C204.819 167.55 192.059 154.792 176.319 154.792C160.58 154.792 147.82 167.55 147.82 183.289C147.82 199.027 160.58 211.785 176.319 211.785Z" fill="#657FFF"/>
<path d="M172.583 212.407C188.322 212.407 201.082 199.648 201.082 183.91C201.082 168.172 188.322 155.414 172.583 155.414C156.843 155.414 144.084 168.172 144.084 183.91C144.084 199.648 156.843 212.407 172.583 212.407Z" fill="#657FFF"/>
<path d="M169.016 213.192C184.756 213.192 197.515 200.433 197.515 184.695C197.515 168.957 184.756 156.199 169.016 156.199C153.277 156.199 140.517 168.957 140.517 184.695C140.517 200.433 153.277 213.192 169.016 213.192Z" fill="#667FFF"/>
<path d="M165.64 214.114C181.379 214.114 194.139 201.356 194.139 185.618C194.139 169.88 181.379 157.121 165.64 157.121C149.9 157.121 137.14 169.88 137.14 185.618C137.14 201.356 149.9 214.114 165.64 214.114Z" fill="#677FFF"/>
<path d="M162.459 215.142C178.199 215.142 190.958 202.383 190.958 186.645C190.958 170.907 178.199 158.149 162.459 158.149C146.72 158.149 133.96 170.907 133.96 186.645C133.96 202.383 146.72 215.142 162.459 215.142Z" fill="#6780FF"/>
<path d="M159.475 216.241C175.215 216.241 187.974 203.483 187.974 187.745C187.974 172.006 175.215 159.248 159.475 159.248C143.735 159.248 130.976 172.006 130.976 187.745C130.976 203.483 143.735 216.241 159.475 216.241Z" fill="#6880FF"/>
<path d="M156.707 217.386C172.447 217.386 185.206 204.628 185.206 188.89C185.206 173.151 172.447 160.393 156.707 160.393C140.967 160.393 128.208 173.151 128.208 188.89C128.208 204.628 140.967 217.386 156.707 217.386Z" fill="#6880FF"/>
<path d="M154.161 218.544C169.901 218.544 182.661 205.786 182.661 190.048C182.661 174.31 169.901 161.551 154.161 161.551C138.422 161.551 125.662 174.31 125.662 190.048C125.662 205.786 138.422 218.544 154.161 218.544Z" fill="#6980FF"/>
<path d="M151.838 219.689C167.578 219.689 180.337 206.931 180.337 191.193C180.337 175.455 167.578 162.696 151.838 162.696C136.099 162.696 123.339 175.455 123.339 191.193C123.339 206.931 136.099 219.689 151.838 219.689Z" fill="#6A80FF"/>
<path d="M149.757 220.789C165.497 220.789 178.256 208.03 178.256 192.292C178.256 176.554 165.497 163.796 149.757 163.796C134.018 163.796 121.258 176.554 121.258 192.292C121.258 208.03 134.018 220.789 149.757 220.789Z" fill="#6A80FF"/>
<path d="M147.918 221.803C163.658 221.803 176.418 209.045 176.418 193.306C176.418 177.568 163.658 164.81 147.918 164.81C132.179 164.81 119.419 177.568 119.419 193.306C119.419 209.045 132.179 221.803 147.918 221.803Z" fill="#6B80FF"/>
<path d="M146.335 222.719C162.074 222.719 174.834 209.961 174.834 194.223C174.834 178.484 162.074 165.726 146.335 165.726C130.595 165.726 117.836 178.484 117.836 194.223C117.836 209.961 130.595 222.719 146.335 222.719Z" fill="#6C81FF"/>
<path d="M145.013 223.491C160.753 223.491 173.512 210.733 173.512 194.995C173.512 179.256 160.753 166.498 145.013 166.498C129.273 166.498 116.514 179.256 116.514 194.995C116.514 210.733 129.273 223.491 145.013 223.491Z" fill="#6C81FF"/>
<path d="M143.966 224.1C159.705 224.1 172.465 211.341 172.465 195.603C172.465 179.865 159.705 167.107 143.966 167.107C128.226 167.107 115.467 179.865 115.467 195.603C115.467 211.341 128.226 224.1 143.966 224.1Z" fill="#6D81FF"/>
<path d="M142.212 225.127C157.952 225.127 170.711 212.369 170.711 196.631C170.711 180.892 157.952 168.134 142.212 168.134C126.472 168.134 113.713 180.892 113.713 196.631C113.713 212.369 126.472 225.127 142.212 225.127Z" fill="#6E81FF"/>
<path d="M140.478 226.239C156.218 226.239 168.977 213.481 168.977 197.743C168.977 182.005 156.218 169.246 140.478 169.246C124.738 169.246 111.979 182.005 111.979 197.743C111.979 213.481 124.738 226.239 140.478 226.239Z" fill="#6E81FF"/>
<path d="M138.789 227.417C154.529 227.417 167.289 214.659 167.289 198.921C167.289 183.182 154.529 170.424 138.789 170.424C123.05 170.424 110.29 183.182 110.29 198.921C110.29 214.659 123.05 227.417 138.789 227.417Z" fill="#6F81FF"/>
<path d="M137.147 228.661C152.887 228.661 165.646 215.902 165.646 200.164C165.646 184.426 152.887 171.667 137.147 171.667C121.407 171.667 108.648 184.426 108.648 200.164C108.648 215.902 121.407 228.661 137.147 228.661Z" fill="#6F82FF"/>
<path d="M135.557 229.963C151.296 229.963 164.056 217.204 164.056 201.466C164.056 185.728 151.296 172.969 135.557 172.969C119.817 172.969 107.058 185.728 107.058 201.466C107.058 217.204 119.817 229.963 135.557 229.963Z" fill="#7082FF"/>
<path d="M134.012 231.33C149.752 231.33 162.512 218.572 162.512 202.834C162.512 187.095 149.752 174.337 134.012 174.337C118.273 174.337 105.513 187.095 105.513 202.834C105.513 218.572 118.273 231.33 134.012 231.33Z" fill="#7182FF"/>
<path d="M132.52 232.756C148.26 232.756 161.02 219.998 161.02 204.26C161.02 188.522 148.26 175.763 132.52 175.763C116.781 175.763 104.021 188.522 104.021 204.26C104.021 219.998 116.781 232.756 132.52 232.756Z" fill="#7182FF"/>
<path d="M131.068 234.242C146.807 234.242 159.567 221.483 159.567 205.745C159.567 190.007 146.807 177.249 131.068 177.249C115.328 177.249 102.568 190.007 102.568 205.745C102.568 221.483 115.328 234.242 131.068 234.242Z" fill="#7282FF"/>
<path d="M129.661 235.786C145.4 235.786 158.16 223.028 158.16 207.29C158.16 191.552 145.4 178.793 129.661 178.793C113.921 178.793 101.161 191.552 101.161 207.29C101.161 223.028 113.921 235.786 129.661 235.786Z" fill="#7382FF"/>
<path d="M128.299 237.383C144.039 237.383 156.799 224.624 156.799 208.886C156.799 193.148 144.039 180.39 128.299 180.39C112.56 180.39 99.8002 193.148 99.8002 208.886C99.8002 224.624 112.56 237.383 128.299 237.383Z" fill="#7382FF"/>
<path d="M126.984 239.045C142.724 239.045 155.483 226.286 155.483 210.548C155.483 194.81 142.724 182.052 126.984 182.052C111.244 182.052 98.4849 194.81 98.4849 210.548C98.4849 226.286 111.244 239.045 126.984 239.045Z" fill="#7483FF"/>
<path d="M125.715 240.759C141.454 240.759 154.214 228.001 154.214 212.263C154.214 196.524 141.454 183.766 125.715 183.766C109.975 183.766 97.2153 196.524 97.2153 212.263C97.2153 228.001 109.975 240.759 125.715 240.759Z" fill="#7583FF"/>
<path d="M124.484 242.526C140.224 242.526 152.983 229.768 152.983 214.029C152.983 198.291 140.224 185.533 124.484 185.533C108.745 185.533 95.985 198.291 95.985 214.029C95.985 229.768 108.745 242.526 124.484 242.526Z" fill="#7583FF"/>
<path d="M123.293 244.351C139.033 244.351 151.792 231.593 151.792 215.855C151.792 200.117 139.033 187.358 123.293 187.358C107.554 187.358 94.794 200.117 94.794 215.855C94.794 231.593 107.554 244.351 123.293 244.351Z" fill="#7683FF"/>
<path d="M122.148 246.229C137.888 246.229 150.647 233.471 150.647 217.733C150.647 201.995 137.888 189.236 122.148 189.236C106.408 189.236 93.6488 201.995 93.6488 217.733C93.6488 233.471 106.408 246.229 122.148 246.229Z" fill="#7683FF"/>
<path d="M121.042 248.153C136.782 248.153 149.541 235.395 149.541 219.657C149.541 203.918 136.782 191.16 121.042 191.16C105.302 191.16 92.5429 203.918 92.5429 219.657C92.5429 235.395 105.302 248.153 121.042 248.153Z" fill="#7783FF"/>
<path d="M119.975 250.136C135.715 250.136 148.475 237.378 148.475 221.639C148.475 205.901 135.715 193.143 119.975 193.143C104.236 193.143 91.4762 205.901 91.4762 221.639C91.4762 237.378 104.236 250.136 119.975 250.136Z" fill="#7884FF"/>
<path d="M118.948 252.164C134.688 252.164 147.447 239.406 147.447 223.668C147.447 207.93 134.688 195.171 118.948 195.171C103.208 195.171 90.4488 207.93 90.4488 223.668C90.4488 239.406 103.208 252.164 118.948 252.164Z" fill="#7884FF"/>
<path d="M117.953 254.245C133.693 254.245 146.453 241.487 146.453 225.748C146.453 210.01 133.693 197.252 117.953 197.252C102.214 197.252 89.4541 210.01 89.4541 225.748C89.4541 241.487 102.214 254.245 117.953 254.245Z" fill="#7984FF"/>
<path d="M117.004 256.372C132.744 256.372 145.504 243.613 145.504 227.875C145.504 212.137 132.744 199.379 117.004 199.379C101.265 199.379 88.5052 212.137 88.5052 227.875C88.5052 243.613 101.265 256.372 117.004 256.372Z" fill="#7A84FF"/>
<path d="M116.088 258.544C131.828 258.544 144.587 245.786 144.587 230.048C144.587 214.309 131.828 201.551 116.088 201.551C100.349 201.551 87.5891 214.309 87.5891 230.048C87.5891 245.786 100.349 258.544 116.088 258.544Z" fill="#7A84FF"/>
<path d="M115.211 260.762C130.951 260.762 143.711 248.004 143.711 232.266C143.711 216.528 130.951 203.769 115.211 203.769C99.4717 203.769 86.7122 216.528 86.7122 232.266C86.7122 248.004 99.4717 260.762 115.211 260.762Z" fill="#7B84FF"/>
<path d="M114.367 263.033C130.107 263.033 142.866 250.275 142.866 234.536C142.866 218.798 130.107 206.04 114.367 206.04C98.6275 206.04 85.868 218.798 85.868 234.536C85.868 250.275 98.6275 263.033 114.367 263.033Z" fill="#7C84FF"/>
<path d="M113.562 265.343C129.302 265.343 142.061 252.584 142.061 236.846C142.061 221.108 129.302 208.35 113.562 208.35C97.8226 208.35 85.0631 221.108 85.0631 236.846C85.0631 252.584 97.8226 265.343 113.562 265.343Z" fill="#7C85FF"/>
<path d="M112.784 267.698C128.523 267.698 141.283 254.94 141.283 239.202C141.283 223.464 128.523 210.705 112.784 210.705C97.0439 210.705 84.2844 223.464 84.2844 239.202C84.2844 254.94 97.0439 267.698 112.784 267.698Z" fill="#7D85FF"/>
<path d="M112.044 270.093C127.784 270.093 140.543 257.335 140.543 241.597C140.543 225.858 127.784 213.1 112.044 213.1C96.3044 213.1 83.5449 225.858 83.5449 241.597C83.5449 257.335 96.3044 270.093 112.044 270.093Z" fill="#7D85FF"/>
<path d="M111.337 272.527C127.077 272.527 139.837 259.769 139.837 244.031C139.837 228.293 127.077 215.534 111.337 215.534C95.5977 215.534 82.8381 228.293 82.8381 244.031C82.8381 259.769 95.5977 272.527 111.337 272.527Z" fill="#7E85FF"/>
<path d="M110.663 275.007C126.403 275.007 139.162 262.249 139.162 246.511C139.162 230.773 126.403 218.014 110.663 218.014C94.9236 218.014 82.1641 230.773 82.1641 246.511C82.1641 262.249 94.9236 275.007 110.663 275.007Z" fill="#7F85FF"/>
<path d="M110.022 277.526C125.762 277.526 138.521 264.768 138.521 249.03C138.521 233.292 125.762 220.533 110.022 220.533C94.2823 220.533 81.5228 233.292 81.5228 249.03C81.5228 264.768 94.2823 277.526 110.022 277.526Z" fill="#7F85FF"/>
<path d="M109.407 280.085C125.147 280.085 137.906 267.327 137.906 251.589C137.906 235.85 125.147 223.092 109.407 223.092C93.6672 223.092 80.9077 235.85 80.9077 251.589C80.9077 267.327 93.6672 280.085 109.407 280.085Z" fill="#8086FF"/>
<path d="M108.824 282.683C124.564 282.683 137.324 269.924 137.324 254.186C137.324 238.448 124.564 225.69 108.824 225.69C93.0848 225.69 80.3252 238.448 80.3252 254.186C80.3252 269.924 93.0848 282.683 108.824 282.683Z" fill="#8186FF"/>
<path d="M108.268 285.313C124.008 285.313 136.767 272.555 136.767 256.817C136.767 241.078 124.008 228.32 108.268 228.32C92.5285 228.32 79.769 241.078 79.769 256.817C79.769 272.555 92.5285 285.313 108.268 285.313Z" fill="#8186FF"/>
<path d="M107.745 287.983C123.484 287.983 136.244 275.224 136.244 259.486C136.244 243.748 123.484 230.99 107.745 230.99C92.005 230.99 79.2455 243.748 79.2455 259.486C79.2455 275.224 92.005 287.983 107.745 287.983Z" fill="#8286FF"/>
<path d="M107.247 290.685C122.987 290.685 135.747 277.927 135.747 262.189C135.747 246.451 122.987 233.692 107.247 233.692C91.5076 233.692 78.7481 246.451 78.7481 262.189C78.7481 277.927 91.5076 290.685 107.247 290.685Z" fill="#8386FF"/>
<path d="M106.776 293.421C122.516 293.421 135.275 280.662 135.275 264.924C135.275 249.186 122.516 236.427 106.776 236.427C91.0365 236.427 78.2769 249.186 78.2769 264.924C78.2769 280.662 91.0365 293.421 106.776 293.421Z" fill="#8386FF"/>
<path d="M106.338 296.195C122.077 296.195 134.837 283.437 134.837 267.698C134.837 251.96 122.077 239.202 106.338 239.202C90.598 239.202 77.8385 251.96 77.8385 267.698C77.8385 283.437 90.598 296.195 106.338 296.195Z" fill="#8486FF"/>
<path d="M105.919 298.995C121.659 298.995 134.418 286.237 134.418 270.499C134.418 254.761 121.659 242.002 105.919 242.002C90.1792 242.002 77.4197 254.761 77.4197 270.499C77.4197 286.237 90.1792 298.995 105.919 298.995Z" fill="#8487FF"/>
<path d="M105.526 301.829C121.266 301.829 134.025 289.07 134.025 273.332C134.025 257.594 121.266 244.836 105.526 244.836C89.7866 244.836 77.027 257.594 77.027 273.332C77.027 289.07 89.7866 301.829 105.526 301.829Z" fill="#8587FF"/>
<path d="M105.16 304.695C120.899 304.695 133.659 291.936 133.659 276.198C133.659 260.46 120.899 247.702 105.16 247.702C89.4201 247.702 76.6606 260.46 76.6606 276.198C76.6606 291.936 89.4201 304.695 105.16 304.695Z" fill="#8687FF"/>
<path d="M104.813 307.587C120.553 307.587 133.312 294.829 133.312 279.091C133.312 263.352 120.553 250.594 104.813 250.594C89.0733 250.594 76.3138 263.352 76.3138 279.091C76.3138 294.829 89.0733 307.587 104.813 307.587Z" fill="#8687FF"/>
<path d="M104.492 310.512C120.232 310.512 132.991 297.754 132.991 282.015C132.991 266.277 120.232 253.519 104.492 253.519C88.7526 253.519 75.9931 266.277 75.9931 282.015C75.9931 297.754 88.7526 310.512 104.492 310.512Z" fill="#8787FF"/>
<path d="M104.198 313.463C119.937 313.463 132.697 300.705 132.697 284.967C132.697 269.228 119.937 256.47 104.198 256.47C88.4581 256.47 75.6986 269.228 75.6986 284.967C75.6986 300.705 88.4581 313.463 104.198 313.463Z" fill="#8887FF"/>
<path d="M103.916 316.434C119.656 316.434 132.416 303.675 132.416 287.937C132.416 272.199 119.656 259.441 103.916 259.441C88.1767 259.441 75.4172 272.199 75.4172 287.937C75.4172 303.675 88.1767 316.434 103.916 316.434Z" fill="#8888FF"/>
<path d="M103.661 319.437C119.401 319.437 132.16 306.679 132.16 290.941C132.16 275.202 119.401 262.444 103.661 262.444C87.9215 262.444 75.162 275.202 75.162 290.941C75.162 306.679 87.9215 319.437 103.661 319.437Z" fill="#8988FF"/>
<path d="M103.426 322.467C119.165 322.467 131.925 309.708 131.925 293.97C131.925 278.232 119.165 265.474 103.426 265.474C87.6859 265.474 74.9264 278.232 74.9264 293.97C74.9264 309.708 87.6859 322.467 103.426 322.467Z" fill="#8A88FF"/>
<path d="M103.21 325.516C118.949 325.516 131.709 312.757 131.709 297.019C131.709 281.281 118.949 268.523 103.21 268.523C87.47 268.523 74.7104 281.281 74.7104 297.019C74.7104 312.757 87.47 325.516 103.21 325.516Z" fill="#8A88FF"/>
<path d="M103.013 328.585C118.753 328.585 131.513 315.826 131.513 300.088C131.513 284.35 118.753 271.592 103.013 271.592C87.2737 271.592 74.5141 284.35 74.5141 300.088C74.5141 315.826 87.2737 328.585 103.013 328.585Z" fill="#8B88FF"/>
<path d="M102.837 331.68C118.576 331.68 131.336 318.921 131.336 303.183C131.336 287.445 118.576 274.687 102.837 274.687C87.097 274.687 74.3375 287.445 74.3375 303.183C74.3375 318.921 87.097 331.68 102.837 331.68Z" fill="#8B88FF"/>
<path d="M102.673 334.794C118.413 334.794 131.172 322.036 131.172 306.298C131.172 290.56 118.413 277.801 102.673 277.801C86.9334 277.801 74.1739 290.56 74.1739 306.298C74.1739 322.036 86.9334 334.794 102.673 334.794Z" fill="#8C88FF"/>
<path d="M102.529 337.929C118.269 337.929 131.028 325.17 131.028 309.432C131.028 293.694 118.269 280.936 102.529 280.936C86.7894 280.936 74.0299 293.694 74.0299 309.432C74.0299 325.17 86.7894 337.929 102.529 337.929Z" fill="#8D89FF"/>
<path d="M102.398 341.083C118.138 341.083 130.897 328.324 130.897 312.586C130.897 296.848 118.138 284.09 102.398 284.09C86.6585 284.09 73.899 296.848 73.899 312.586C73.899 328.324 86.6585 341.083 102.398 341.083Z" fill="#8D89FF"/>
<path d="M102.287 344.256C118.027 344.256 130.786 331.498 130.786 315.76C130.786 300.022 118.027 287.263 102.287 287.263C86.5473 287.263 73.7878 300.022 73.7878 315.76C73.7878 331.498 86.5473 344.256 102.287 344.256Z" fill="#8E89FF"/>
<path d="M102.189 347.443C117.928 347.443 130.688 334.684 130.688 318.946C130.688 303.208 117.928 290.45 102.189 290.45C86.4491 290.45 73.6896 303.208 73.6896 318.946C73.6896 334.684 86.4491 347.443 102.189 347.443Z" fill="#8F89FF"/>
<path d="M102.104 350.649C117.843 350.649 130.603 337.891 130.603 322.153C130.603 306.414 117.843 293.656 102.104 293.656C86.364 293.656 73.6045 306.414 73.6045 322.153C73.6045 337.891 86.364 350.649 102.104 350.649Z" fill="#8F89FF"/>
<path d="M102.032 353.869C117.771 353.869 130.531 341.11 130.531 325.372C130.531 309.634 117.771 296.875 102.032 296.875C86.2921 296.875 73.5325 309.634 73.5325 325.372C73.5325 341.11 86.2921 353.869 102.032 353.869Z" fill="#9089FF"/>
<path d="M101.979 357.107C117.719 357.107 130.479 344.349 130.479 328.611C130.479 312.873 117.719 300.114 101.979 300.114C86.2397 300.114 73.4802 312.873 73.4802 328.611C73.4802 344.349 86.2397 357.107 101.979 357.107Z" fill="#918AFF"/>
<path d="M101.927 360.353C117.667 360.353 130.426 347.595 130.426 331.856C130.426 316.118 117.667 303.36 101.927 303.36C86.1874 303.36 73.4278 316.118 73.4278 331.856C73.4278 347.595 86.1874 360.353 101.927 360.353Z" fill="#918AFF"/>
<path d="M101.894 363.611C117.634 363.611 130.394 350.853 130.394 335.115C130.394 319.377 117.634 306.618 101.894 306.618C86.1546 306.618 73.3951 319.377 73.3951 335.115C73.3951 350.853 86.1546 363.611 101.894 363.611Z" fill="#928AFF"/>
<path d="M101.868 366.883C117.608 366.883 130.367 354.125 130.367 338.387C130.367 322.648 117.608 309.89 101.868 309.89C86.1285 309.89 73.3689 322.648 73.3689 338.387C73.3689 354.125 86.1285 366.883 101.868 366.883Z" fill="#928AFF"/>
<path d="M101.855 370.168C117.595 370.168 130.354 357.41 130.354 341.672C130.354 325.933 117.595 313.175 101.855 313.175C86.1154 313.175 73.3558 325.933 73.3558 341.672C73.3558 357.41 86.1154 370.168 101.855 370.168Z" fill="#938AFF"/>
<path d="M101.849 373.459C117.588 373.459 130.348 360.701 130.348 344.963C130.348 329.225 117.588 316.466 101.849 316.466C86.1088 316.466 73.3493 329.225 73.3493 344.963C73.3493 360.701 86.1088 373.459 101.849 373.459Z" fill="#948AFF"/>
<path d="M101.849 376.757C117.588 376.757 130.348 363.999 130.348 348.261C130.348 332.522 117.588 319.764 101.849 319.764C86.1088 319.764 73.3493 332.522 73.3493 348.261C73.3493 363.999 86.1088 376.757 101.849 376.757Z" fill="#948AFF"/>
<path d="M101.862 380.068C117.601 380.068 130.361 367.31 130.361 351.572C130.361 335.834 117.601 323.075 101.862 323.075C86.1219 323.075 73.3624 335.834 73.3624 351.572C73.3624 367.31 86.1219 380.068 101.862 380.068Z" fill="#958BFF"/>
<path d="M101.881 383.379C117.621 383.379 130.38 370.621 130.38 354.883C130.38 339.145 117.621 326.386 101.881 326.386C86.1415 326.386 73.382 339.145 73.382 354.883C73.382 370.621 86.1415 383.379 101.881 383.379Z" fill="#968BFF"/>
<path d="M101.901 386.697C117.641 386.697 130.4 373.938 130.4 358.2C130.4 342.462 117.641 329.704 101.901 329.704C86.1612 329.704 73.4016 342.462 73.4016 358.2C73.4016 373.938 86.1612 386.697 101.901 386.697Z" fill="#968BFF"/>
<path d="M101.934 390.021C117.673 390.021 130.433 377.262 130.433 361.524C130.433 345.786 117.673 333.028 101.934 333.028C86.1939 333.028 73.4344 345.786 73.4344 361.524C73.4344 377.262 86.1939 390.021 101.934 390.021Z" fill="#978BFF"/>
<path d="M101.966 393.351C117.706 393.351 130.466 380.593 130.466 364.855C130.466 349.117 117.706 336.358 101.966 336.358C86.2266 336.358 73.4671 349.117 73.4671 364.855C73.4671 380.593 86.2266 393.351 101.966 393.351Z" fill="#988BFF"/>
<path d="M102.006 396.682C117.745 396.682 130.505 383.924 130.505 368.185C130.505 352.447 117.745 339.689 102.006 339.689C86.2659 339.689 73.5063 352.447 73.5063 368.185C73.5063 383.924 86.2659 396.682 102.006 396.682Z" fill="#988BFF"/>
<path d="M102.045 400.019C117.784 400.019 130.544 387.261 130.544 371.522C130.544 355.784 117.784 343.026 102.045 343.026C86.3051 343.026 73.5456 355.784 73.5456 371.522C73.5456 387.261 86.3051 400.019 102.045 400.019Z" fill="#998CFF"/>
<path d="M102.091 403.35C117.83 403.35 130.59 390.591 130.59 374.853C130.59 359.115 117.83 346.357 102.091 346.357C86.351 346.357 73.5914 359.115 73.5914 374.853C73.5914 390.591 86.351 403.35 102.091 403.35Z" fill="#998CFF"/>
<path d="M102.143 406.687C117.883 406.687 130.642 393.929 130.642 378.19C130.642 362.452 117.883 349.694 102.143 349.694C86.4033 349.694 73.6438 362.452 73.6438 378.19C73.6438 393.929 86.4033 406.687 102.143 406.687Z" fill="#9A8CFF"/>
<path d="M102.189 410.017C117.928 410.017 130.688 397.259 130.688 381.521C130.688 365.783 117.928 353.024 102.189 353.024C86.4491 353.024 73.6896 365.783 73.6896 381.521C73.6896 397.259 86.4491 410.017 102.189 410.017Z" fill="#9B8CFF"/>
<path d="M102.235 413.348C117.974 413.348 130.734 400.59 130.734 384.851C130.734 369.113 117.974 356.355 102.235 356.355C86.4949 356.355 73.7354 369.113 73.7354 384.851C73.7354 400.59 86.4949 413.348 102.235 413.348Z" fill="#9B8CFF"/>
<path d="M102.287 416.679C118.027 416.679 130.786 403.92 130.786 388.182C130.786 372.444 118.027 359.686 102.287 359.686C86.5473 359.686 73.7878 372.444 73.7878 388.182C73.7878 403.92 86.5473 416.679 102.287 416.679Z" fill="#9C8CFF"/>
<path d="M102.333 420.003C118.072 420.003 130.832 407.244 130.832 391.506C130.832 375.768 118.072 363.01 102.333 363.01C86.5931 363.01 73.8336 375.768 73.8336 391.506C73.8336 407.244 86.5931 420.003 102.333 420.003Z" fill="#9D8CFF"/>
<path d="M102.385 423.32C118.125 423.32 130.884 410.562 130.884 394.824C130.884 379.085 118.125 366.327 102.385 366.327C86.6455 366.327 73.8859 379.085 73.8859 394.824C73.8859 410.562 86.6455 423.32 102.385 423.32Z" fill="#9D8DFF"/>
<path d="M102.431 426.638C118.171 426.638 130.93 413.879 130.93 398.141C130.93 382.403 118.171 369.645 102.431 369.645C86.6913 369.645 73.9317 382.403 73.9317 398.141C73.9317 413.879 86.6913 426.638 102.431 426.638Z" fill="#9E8DFF"/>
<path d="M102.47 429.942C118.21 429.942 130.969 417.184 130.969 401.445C130.969 385.707 118.21 372.949 102.47 372.949C86.7305 372.949 73.971 385.707 73.971 401.445C73.971 417.184 86.7305 429.942 102.47 429.942Z" fill="#9F8DFF"/>
<path d="M102.509 433.246C118.249 433.246 131.009 420.488 131.009 404.75C131.009 389.012 118.249 376.253 102.509 376.253C86.7698 376.253 74.0103 389.012 74.0103 404.75C74.0103 420.488 86.7698 433.246 102.509 433.246Z" fill="#9F8DFF"/>
<path d="M102.549 436.538C118.288 436.538 131.048 423.779 131.048 408.041C131.048 392.303 118.288 379.545 102.549 379.545C86.809 379.545 74.0495 392.303 74.0495 408.041C74.0495 423.779 86.809 436.538 102.549 436.538Z" fill="#A08DFF"/>
<path d="M102.575 439.816C118.315 439.816 131.074 427.058 131.074 411.32C131.074 395.581 118.315 382.823 102.575 382.823C86.8352 382.823 74.0757 395.581 74.0757 411.32C74.0757 427.058 86.8352 439.816 102.575 439.816Z" fill="#A08DFF"/>
<path d="M102.601 443.088C118.341 443.088 131.1 430.329 131.1 414.591C131.1 398.853 118.341 386.095 102.601 386.095C86.8614 386.095 74.1019 398.853 74.1019 414.591C74.1019 430.329 86.8614 443.088 102.601 443.088Z" fill="#A18EFF"/>
<path d="M102.621 446.353C118.36 446.353 131.12 433.595 131.12 417.856C131.12 402.118 118.36 389.36 102.621 389.36C86.881 389.36 74.1215 402.118 74.1215 417.856C74.1215 433.595 86.881 446.353 102.621 446.353Z" fill="#A28EFF"/>
<path d="M102.634 449.599C118.373 449.599 131.133 436.84 131.133 421.102C131.133 405.364 118.373 392.605 102.634 392.605C86.8941 392.605 74.1346 405.364 74.1346 421.102C74.1346 436.84 86.8941 449.599 102.634 449.599Z" fill="#A28EFF"/>
<path d="M102.634 452.831C118.373 452.831 131.133 440.073 131.133 424.334C131.133 408.596 118.373 395.838 102.634 395.838C86.8941 395.838 74.1346 408.596 74.1346 424.334C74.1346 440.073 86.8941 452.831 102.634 452.831Z" fill="#A38EFF"/>
<path d="M259.527 305.087C254.095 285.411 244.947 267.594 232.349 252.132C225.262 243.436 217.102 235.551 208.091 228.706L213.784 221.214C223.384 228.51 232.088 236.912 239.646 246.184C253.074 262.667 262.818 281.636 268.603 302.581L259.533 305.087H259.527Z" fill="white"/>
<path d="M185.403 144.82C200.77 144.82 213.228 132.363 213.228 116.997C213.228 101.631 200.77 89.1748 185.403 89.1748C170.035 89.1748 157.577 101.631 157.577 116.997C157.577 132.363 170.035 144.82 185.403 144.82Z" fill="#657FFF"/>
<path d="M327.597 144.82C342.965 144.82 355.423 132.363 355.423 116.997C355.423 101.631 342.965 89.1748 327.597 89.1748C312.23 89.1748 299.772 101.631 299.772 116.997C299.772 132.363 312.23 144.82 327.597 144.82Z" fill="#3CA6FF"/>
</g>
<defs>
<clipPath id="clip0_123_68">
<rect width="371" height="327" fill="white" transform="translate(71 85)"/>
</clipPath>
</defs>
</svg>
