<svg width="25" height="25" viewBox="0 0 25 25" fill="none" xmlns="http://www.w3.org/2000/svg">
<path d="M2.71143 8.23787C2.71143 6.37103 2.71143 5.43761 3.07474 4.72457C3.39432 4.09737 3.90425 3.58743 4.53146 3.26785C5.2445 2.90454 6.17792 2.90454 8.04476 2.90454H17.3781C19.2449 2.90454 20.1784 2.90454 20.8914 3.26785C21.5186 3.58743 22.0285 4.09737 22.3481 4.72457C22.7114 5.43761 22.7114 6.37103 22.7114 8.23787V17.5712C22.7114 19.4381 22.7114 20.3715 22.3481 21.0845C22.0285 21.7117 21.5186 22.2217 20.8914 22.5412C20.1784 22.9045 19.2449 22.9045 17.3781 22.9045H8.04476C6.17792 22.9045 5.2445 22.9045 4.53146 22.5412C3.90425 22.2217 3.39432 21.7117 3.07474 21.0845C2.71143 20.3715 2.71143 19.438 2.71143 17.5712V8.23787Z" fill="#236FFF"/>
<path d="M7.71143 11.8969L11.5921 15.9045L17.7114 9.90454" stroke="white" stroke-width="2" stroke-linecap="round" stroke-linejoin="round"/>
</svg>
