<svg width="25" height="25" viewBox="0 0 25 25" fill="none" xmlns="http://www.w3.org/2000/svg">
<path d="M3.46143 8.23787C3.46143 7.29208 3.46201 6.62784 3.50435 6.10962C3.54597 5.60016 3.62419 5.29823 3.74299 5.06507C3.99067 4.57898 4.38587 4.18378 4.87195 3.93611C5.10512 3.8173 5.40705 3.73909 5.91651 3.69746C6.43472 3.65512 7.09896 3.65454 8.04476 3.65454H17.3781C18.3239 3.65454 18.9881 3.65512 19.5063 3.69746C20.0158 3.73909 20.3177 3.8173 20.5509 3.93611C21.037 4.18378 21.4322 4.57898 21.6799 5.06506C21.7987 5.29823 21.8769 5.60016 21.9185 6.10962C21.9608 6.62784 21.9614 7.29208 21.9614 8.23787V17.5712C21.9614 18.517 21.9608 19.1812 21.9185 19.6995C21.8769 20.2089 21.7987 20.5108 21.6799 20.744C21.4322 21.2301 21.037 21.6253 20.5509 21.873C20.3177 21.9918 20.0158 22.07 19.5063 22.1116C18.9881 22.154 18.3239 22.1545 17.3781 22.1545H8.04476C7.09896 22.1545 6.43472 22.154 5.91651 22.1116C5.40705 22.07 5.10512 21.9918 4.87195 21.873C4.38587 21.6253 3.99067 21.2301 3.74299 20.744C3.62419 20.5108 3.54597 20.2089 3.50435 19.6995C3.46201 19.1812 3.46143 18.517 3.46143 17.5712V8.23787Z" stroke="#D2D3D6" stroke-width="1.5" stroke-linecap="round" stroke-linejoin="round"/>
</svg>
