<svg width="25" height="25" viewBox="0 0 25 25" fill="none" xmlns="http://www.w3.org/2000/svg">
<path d="M5.21143 8.88052L21.7114 17.2805M21.7114 7.28052L5.21143 15.6805M6.71143 3.28052C8.36828 3.28052 9.71143 4.62366 9.71143 6.28052C9.71143 7.93737 8.36828 9.28052 6.71143 9.28052C5.05457 9.28052 3.71143 7.93737 3.71143 6.28052C3.71143 4.62366 5.05457 3.28052 6.71143 3.28052ZM6.71143 15.2805C8.36828 15.2805 9.71143 16.6237 9.71143 18.2805C9.71143 19.9374 8.36828 21.2805 6.71143 21.2805C5.05457 21.2805 3.71143 19.9374 3.71143 18.2805C3.71143 16.6237 5.05457 15.2805 6.71143 15.2805Z" stroke="black" stroke-width="1.5" stroke-linecap="round" stroke-linejoin="round"/>
</svg>
