<svg width="95" height="96" viewBox="0 0 95 96" fill="none" xmlns="http://www.w3.org/2000/svg">
<g filter="url(#filter0_diii_758_5733)">
<path fill-rule="evenodd" clip-rule="evenodd" d="M34.6878 16.5662C38.5897 15.2555 42.3809 13.4184 46.5041 13.353C50.6143 13.2878 54.599 14.6541 58.4337 16.1894C62.2021 17.6982 65.6518 19.8112 68.8709 22.3082C72.1766 24.8724 75.7401 27.3989 77.6815 31.1199C79.6196 34.8349 79.1932 39.2499 79.8659 43.3827C80.5552 47.6174 83.0942 51.9613 81.7323 56.0061C80.3472 60.1198 75.0085 61.4293 72.5837 65.0107C70.1249 68.6423 70.791 74.1929 67.4822 77.0532C64.2423 79.8539 59.2979 79.1506 55.1259 80.1017C50.9271 81.059 46.8358 83.5271 42.5874 82.7289C38.3346 81.93 35.453 77.9375 31.7223 75.705C28.0274 73.4938 23.5358 72.6045 20.5136 69.5194C17.4422 66.384 15.5661 62.2076 14.3593 57.9801C13.1654 53.7985 13.0162 49.3912 13.5389 45.0882C14.0484 40.8941 15.8566 37.0815 17.3752 33.1535C18.948 29.0854 19.5863 24.3442 22.7191 21.3427C25.8527 18.3404 30.5806 17.9458 34.6878 16.5662Z" fill="#236FFF"/>
<path fill-rule="evenodd" clip-rule="evenodd" d="M34.6878 16.5662C38.5897 15.2555 42.3809 13.4184 46.5041 13.353C50.6143 13.2878 54.599 14.6541 58.4337 16.1894C62.2021 17.6982 65.6518 19.8112 68.8709 22.3082C72.1766 24.8724 75.7401 27.3989 77.6815 31.1199C79.6196 34.8349 79.1932 39.2499 79.8659 43.3827C80.5552 47.6174 83.0942 51.9613 81.7323 56.0061C80.3472 60.1198 75.0085 61.4293 72.5837 65.0107C70.1249 68.6423 70.791 74.1929 67.4822 77.0532C64.2423 79.8538 59.2979 79.1506 55.1259 80.1017C50.9271 81.059 46.8358 83.5271 42.5874 82.7289C38.3346 81.93 35.453 77.9375 31.7223 75.705C28.0274 73.4938 23.5358 72.6045 20.5136 69.5194C17.4422 66.384 15.5661 62.2075 14.3593 57.9801C13.1654 53.7985 13.0162 49.3912 13.5389 45.0882C14.0484 40.8941 15.8566 37.0815 17.3752 33.1535C18.948 29.0854 19.5863 24.3442 22.7191 21.3427C25.8527 18.3404 30.5806 17.9458 34.6878 16.5662Z" stroke="#1D2330" stroke-width="0.5"/>
</g>
<g filter="url(#filter1_ddi_758_5733)">
<path d="M57.3361 72.3783C71.0552 66.535 77.4398 50.6765 71.5965 36.9574C65.7532 23.2383 49.8948 16.8536 36.1756 22.6969C22.4565 28.5402 16.0719 44.3987 21.9152 58.1178C27.7585 71.8369 43.617 78.2216 57.3361 72.3783Z" fill="#236FFF"/>
<path d="M57.3361 72.3783C71.0552 66.535 77.4398 50.6765 71.5965 36.9574C65.7532 23.2383 49.8948 16.8536 36.1756 22.6969C22.4565 28.5402 16.0719 44.3987 21.9152 58.1178C27.7585 71.8369 43.617 78.2216 57.3361 72.3783Z" stroke="#1D2330" stroke-width="0.5"/>
</g>
<g filter="url(#filter2_dii_758_5733)">
<path d="M65.8917 58.0806C63.5953 59.0587 62.0801 57.9511 61.1923 55.8667C60.0336 53.1463 60.5407 47.3792 61.0674 44.108C61.5221 41.4518 62.1436 38.5993 62.7847 35.9889C63.0595 34.8702 63.0563 34.0785 62.8907 33.6899C62.7704 33.4073 62.5688 33.3262 62.3215 33.4315C61.8623 33.6271 61.225 34.4829 60.7677 36.055C58.8737 41.9955 56.9018 48.9291 55.5776 52.5817C55.3441 53.3073 54.9751 53.7149 54.6218 53.8653C54.1272 54.076 53.6437 53.8228 53.433 53.3282C53.3126 53.0456 53.2629 52.7329 53.3192 52.375C53.7098 49.0783 56.0382 42.7858 57.4318 37.4341C57.6149 36.6883 57.6064 35.9824 57.4259 35.5584C57.2754 35.2051 57.0287 35.018 56.6755 35.1685C56.2162 35.3641 55.6346 36.1544 54.9751 37.9379C54.2796 40.0288 53.6188 42.3972 52.7363 44.7348C50.555 50.5889 43.8779 64.7022 36.9887 67.6364C33.3852 69.1713 30.8016 67.8091 29.6429 65.0888C28.8755 63.287 28.7296 60.8866 29.3655 58.3619C29.7064 57.0063 30.2389 55.6108 30.9579 54.2611C29.3204 53.7482 28.2088 52.5104 27.637 51.1679C26.1774 47.741 26.799 40.3808 34.642 37.0403C40.5066 34.5424 45.5593 36.6058 49.8694 34.7701C51.2119 34.1983 52.4896 33.2784 53.6882 31.6827L53.9349 31.8698C52.2306 34.14 50.5387 35.3615 48.7369 36.1289C45.098 37.6788 41.0653 37.2261 35.6953 39.5133C28.0289 42.7786 26.5052 47.7266 27.9197 51.0475C28.4764 52.3547 29.5579 53.5218 31.0947 53.9942C32.7957 50.9324 35.5298 48.1401 39.2746 46.545C42.2776 45.266 44.0761 45.9608 44.7683 47.5859C45.7163 49.8117 44.7866 52.9206 43.0463 55.4983C41.7614 57.3812 40.0486 58.9455 38.3528 59.6678C37.081 60.2095 35.1595 60.4018 34.254 59.4519L34.3606 59.1143C35.1954 60.0943 37.0666 59.8817 38.2678 59.3701C39.8929 58.6779 41.5704 57.1287 42.82 55.2608C44.2161 53.2471 44.4215 51.5735 43.9099 50.3724C43.0372 48.3233 39.9629 47.671 36.854 48.9952C34.8755 49.8378 32.8651 51.4872 31.3819 54.0806C32.5006 54.3553 33.9177 54.2526 35.5782 53.5454C35.8961 53.41 37.2439 52.7525 38.5772 51.7672L38.6479 51.7371C38.7892 51.6769 38.9148 51.8738 38.7683 52.0197C37.3996 53.02 36.0165 53.6926 35.6986 53.828C33.9321 54.5804 32.4647 54.6628 31.1948 54.3272C30.5719 55.5107 30.0243 56.8709 29.6377 58.4129C29.1745 60.3632 29.1863 61.8608 29.6377 62.9206C30.5405 65.0404 33.1771 65.253 36.604 63.7934C43.1045 61.0247 48.26 55.4898 51.3434 47.5402C53.6509 41.5905 55.049 36.4456 56.7533 31.9215C57.2708 30.4907 57.9028 29.7206 58.3974 29.51C58.7507 29.3595 59.053 29.4812 59.2185 29.8698C59.369 30.2231 59.3879 30.7576 59.2401 31.4884C58.1135 36.9768 55.8393 43.7888 54.9437 47.4675C54.7808 48.163 54.7997 48.6975 54.9352 49.0155C55.1007 49.4041 55.4029 49.5258 55.7209 49.3904C56.1095 49.2248 56.5394 48.6661 56.8541 47.7391C58.0323 43.9399 60.4557 35.8123 62.0638 31.4544C62.6474 29.7867 63.5528 28.4828 64.1181 28.2421C64.3301 28.1518 64.5165 28.1976 64.6219 28.4449C64.8024 28.8688 64.7246 29.862 64.2718 31.6409C63.1328 35.9242 62.0291 40.1924 61.3748 44.144C60.7559 48.0806 60.8737 51.7868 61.8217 54.0126C62.544 55.7083 63.7523 56.4875 65.4835 55.7502C66.0487 55.5095 66.6748 55.1176 67.3467 54.5392C67.473 54.4437 67.5639 54.3632 67.6699 54.3181C67.8466 54.2429 67.9624 54.3187 68.0527 54.5307C68.5191 55.6259 67.6581 57.3283 65.8917 58.0806Z" fill="#236FFF"/>
<mask id="mask0_758_5733" style="mask-type:luminance" maskUnits="userSpaceOnUse" x="18" y="23" width="60" height="51">
<path d="M77.1506 23.3104H18.7461V73.7924H77.1506V23.3104Z" fill="white"/>
<path d="M65.8917 58.0806C63.5953 59.0587 62.0801 57.9511 61.1923 55.8667C60.0336 53.1463 60.5407 47.3792 61.0674 44.108C61.5221 41.4518 62.1436 38.5993 62.7847 35.9889C63.0595 34.8702 63.0563 34.0785 62.8907 33.6899C62.7704 33.4073 62.5688 33.3262 62.3215 33.4315C61.8623 33.6271 61.225 34.4829 60.7677 36.055C58.8737 41.9955 56.9018 48.9291 55.5776 52.5817C55.3441 53.3073 54.9751 53.7149 54.6218 53.8653C54.1272 54.076 53.6437 53.8228 53.433 53.3282C53.3126 53.0456 53.2629 52.7329 53.3192 52.375C53.7098 49.0783 56.0382 42.7858 57.4318 37.4341C57.6149 36.6883 57.6064 35.9824 57.4259 35.5584C57.2754 35.2051 57.0287 35.018 56.6755 35.1685C56.2162 35.3641 55.6346 36.1544 54.9751 37.9379C54.2796 40.0288 53.6188 42.3972 52.7363 44.7348C50.555 50.5889 43.8779 64.7022 36.9887 67.6364C33.3852 69.1713 30.8016 67.8091 29.6429 65.0888C28.8755 63.287 28.7296 60.8866 29.3655 58.3619C29.7064 57.0063 30.2389 55.6108 30.9579 54.2611C29.3204 53.7482 28.2088 52.5104 27.637 51.1679C26.1774 47.741 26.799 40.3808 34.642 37.0403C40.5066 34.5424 45.5593 36.6058 49.8694 34.7701C51.2119 34.1983 52.4896 33.2784 53.6882 31.6827L53.9349 31.8698C52.2306 34.14 50.5387 35.3615 48.7369 36.1289C45.098 37.6788 41.0653 37.2261 35.6953 39.5133C28.0289 42.7786 26.5052 47.7266 27.9197 51.0475C28.4764 52.3547 29.5579 53.5218 31.0947 53.9942C32.7957 50.9324 35.5298 48.1401 39.2746 46.545C42.2776 45.266 44.0761 45.9608 44.7683 47.5859C45.7163 49.8117 44.7866 52.9206 43.0463 55.4983C41.7614 57.3812 40.0486 58.9455 38.3528 59.6678C37.081 60.2095 35.1595 60.4018 34.254 59.4519L34.3606 59.1143C35.1954 60.0943 37.0666 59.8817 38.2678 59.3701C39.8929 58.6779 41.5704 57.1287 42.82 55.2608C44.2161 53.2471 44.4215 51.5735 43.9099 50.3724C43.0372 48.3233 39.9629 47.671 36.854 48.9952C34.8755 49.8378 32.8651 51.4872 31.3819 54.0806C32.5006 54.3553 33.9177 54.2526 35.5782 53.5454C35.8961 53.41 37.2439 52.7525 38.5772 51.7672L38.6479 51.7371C38.7892 51.6769 38.9148 51.8738 38.7683 52.0197C37.3996 53.02 36.0165 53.6926 35.6986 53.828C33.9321 54.5804 32.4647 54.6628 31.1948 54.3272C30.5719 55.5107 30.0243 56.8709 29.6377 58.4129C29.1745 60.3632 29.1863 61.8608 29.6377 62.9206C30.5405 65.0404 33.1771 65.253 36.604 63.7934C43.1045 61.0247 48.26 55.4898 51.3434 47.5402C53.6509 41.5905 55.049 36.4456 56.7533 31.9215C57.2708 30.4907 57.9028 29.7206 58.3974 29.51C58.7507 29.3595 59.053 29.4812 59.2185 29.8698C59.369 30.2231 59.3879 30.7576 59.2401 31.4884C58.1135 36.9768 55.8393 43.7888 54.9437 47.4675C54.7808 48.163 54.7997 48.6975 54.9352 49.0155C55.1007 49.4041 55.4029 49.5258 55.7209 49.3904C56.1095 49.2248 56.5394 48.6661 56.8541 47.7391C58.0323 43.9399 60.4557 35.8123 62.0638 31.4544C62.6474 29.7867 63.5528 28.4828 64.1181 28.2421C64.3301 28.1518 64.5165 28.1976 64.6219 28.4449C64.8024 28.8688 64.7246 29.862 64.2718 31.6409C63.1328 35.9242 62.0291 40.1924 61.3748 44.144C60.7559 48.0806 60.8737 51.7868 61.8217 54.0126C62.544 55.7083 63.7523 56.4875 65.4835 55.7502C66.0487 55.5095 66.6748 55.1176 67.3467 54.5392C67.473 54.4437 67.5639 54.3632 67.6699 54.3181C67.8466 54.2429 67.9624 54.3187 68.0527 54.5307C68.5191 55.6259 67.6581 57.3283 65.8917 58.0806Z" fill="black"/>
</mask>
<g mask="url(#mask0_758_5733)">
<path d="M61.0671 44.108L60.5742 44.0237L60.5734 44.0286L61.0671 44.108ZM60.7674 36.055L61.244 36.2069L61.2475 36.1947L60.7674 36.055ZM55.5773 52.5817L55.1073 52.4113L55.1042 52.4199L55.1014 52.4285L55.5773 52.5817ZM53.3189 52.375L53.8128 52.4526L53.8143 52.4433L53.8154 52.4338L53.3189 52.375ZM57.4315 37.4341L57.9154 37.5601L57.917 37.5534L57.4315 37.4341ZM54.9748 37.9379L54.5058 37.7645L54.503 37.7722L54.5003 37.7801L54.9748 37.9379ZM52.736 44.7348L52.2682 44.5582L52.2674 44.5602L52.736 44.7348ZM30.9576 54.2611L31.3989 54.4962L31.6824 53.9642L31.1071 53.784L30.9576 54.2611ZM53.6879 31.6827L53.9901 31.2844L53.5899 30.9807L53.2881 31.3824L53.6879 31.6827ZM53.9346 31.8698L54.3344 32.17L54.6331 31.7722L54.2367 31.4715L53.9346 31.8698ZM31.0944 53.9942L30.9475 54.4721L31.3347 54.5912L31.5315 54.237L31.0944 53.9942ZM43.046 55.4983L43.459 55.7802L43.4604 55.7781L43.046 55.4983ZM34.2537 59.4519L33.7769 59.3013L33.6879 59.583L33.8918 59.7969L34.2537 59.4519ZM34.3603 59.1143L34.741 58.7901L34.1555 58.1028L33.8836 58.9637L34.3603 59.1143ZM42.8197 55.2608L42.4087 54.9759L42.4041 54.9828L42.8197 55.2608ZM31.3816 54.0806L30.9476 53.8323L30.6184 54.408L31.2623 54.5661L31.3816 54.0806ZM38.5769 51.7672L38.381 51.3072L38.327 51.3302L38.2798 51.3651L38.5769 51.7672ZM38.768 52.0197L39.063 52.4234L39.0937 52.4009L39.1207 52.3741L38.768 52.0197ZM31.1945 54.3272L31.3222 53.8438L30.9374 53.7421L30.752 54.0944L31.1945 54.3272ZM29.6374 58.4129L29.1524 58.2913L29.1509 58.2974L29.6374 58.4129ZM56.753 31.9215L57.221 32.0978L57.2232 32.0916L56.753 31.9215ZM59.2398 31.4884L59.7296 31.5889L59.7299 31.5876L59.2398 31.4884ZM54.9434 47.4675L54.4575 47.3493L54.4566 47.3535L54.9434 47.4675ZM56.8538 47.7391L57.3274 47.8998L57.3313 47.8872L56.8538 47.7391ZM62.0635 31.4544L62.5326 31.6275L62.5354 31.6195L62.0635 31.4544ZM64.2715 31.6409L64.7548 31.7694L64.7561 31.7642L64.2715 31.6409ZM61.3745 44.144L60.8812 44.0623L60.8806 44.0664L61.3745 44.144ZM67.3464 54.5392L67.0448 54.1405L67.0322 54.15L67.0202 54.1603L67.3464 54.5392ZM65.6955 57.6206C64.6535 58.0644 63.8636 58.0095 63.2492 57.6811C62.6125 57.3408 62.0728 56.6586 61.652 55.6707L60.732 56.0626C61.199 57.1591 61.8609 58.073 62.7778 58.563C63.717 59.065 64.8329 59.0749 66.0873 58.5406L65.6955 57.6206ZM61.652 55.6707C61.118 54.4171 60.9498 52.39 60.9974 50.2048C61.0446 48.0422 61.3001 45.8061 61.5607 44.1875L60.5734 44.0286C60.3073 45.6811 60.046 47.9642 59.9977 50.183C59.9498 52.3793 60.1073 54.5959 60.732 56.0626L61.652 55.6707ZM61.5599 44.1924C62.0121 41.5509 62.6309 38.7104 63.27 36.1082L62.2989 35.8697C61.6557 38.4883 61.0314 41.3528 60.5742 44.0237L61.5599 44.1924ZM63.27 36.1082C63.4136 35.5236 63.488 35.0109 63.5023 34.5822C63.5162 34.164 63.4744 33.785 63.3504 33.494L62.4304 33.8859C62.472 33.9835 62.5146 34.1945 62.5028 34.549C62.4914 34.893 62.4301 35.3354 62.2989 35.8697L63.27 36.1082ZM63.3504 33.494C63.26 33.2816 63.1063 33.0684 62.855 32.9577C62.5972 32.8441 62.336 32.8817 62.1253 32.9715L62.5172 33.8915C62.536 33.8835 62.537 33.8863 62.5227 33.8871C62.5061 33.8879 62.4799 33.8852 62.4518 33.8728C62.4245 33.8607 62.4105 33.8463 62.4079 33.8433C62.4065 33.8417 62.4162 33.8524 62.4304 33.8859L63.3504 33.494ZM62.1253 32.9715C61.7559 33.1288 61.4138 33.4949 61.1205 33.9606C60.8166 34.4432 60.5259 35.0951 60.2873 35.9153L61.2475 36.1947C61.4662 35.4427 61.7229 34.8807 61.9667 34.4935C62.2212 34.0894 62.4273 33.9298 62.5172 33.8915L62.1253 32.9715ZM60.2911 35.9031C58.3873 41.8742 56.4279 48.7685 55.1073 52.4113L56.0474 52.7521C57.3751 49.0897 59.3597 42.1168 61.244 36.2069L60.2911 35.9031ZM55.1014 52.4285C54.894 53.0728 54.5989 53.3315 54.4256 53.4053L54.8174 54.3254C55.3506 54.0982 55.7936 53.5417 56.0533 52.7349L55.1014 52.4285ZM54.4256 53.4053C54.2344 53.4867 54.0175 53.4253 53.8927 53.1323L52.9727 53.5241C53.2693 54.2204 54.0193 54.6653 54.8174 54.3254L54.4256 53.4053ZM53.8927 53.1323C53.8077 52.9326 53.7717 52.7145 53.8128 52.4526L52.825 52.2973C52.7536 52.7513 52.817 53.1586 52.9727 53.5241L53.8927 53.1323ZM53.8154 52.4338C54.0045 50.8378 54.6692 48.485 55.4775 45.8203C56.2794 43.1768 57.2153 40.2488 57.9154 37.5601L56.9476 37.3081C56.2542 39.9712 55.329 42.8652 54.5206 45.53C53.7187 48.1737 53.0239 50.6154 52.8224 52.3162L53.8154 52.4338ZM57.917 37.5534C58.112 36.7597 58.1269 35.9291 57.8856 35.3625L56.9656 35.7544C57.0854 36.0356 57.1173 36.6169 56.9459 37.3149L57.917 37.5534ZM57.8856 35.3625C57.7891 35.136 57.633 34.8901 57.3769 34.7418C57.0938 34.578 56.7753 34.5824 56.4792 34.7085L56.8711 35.6285C56.9058 35.6137 56.9163 35.6163 56.9076 35.6161C56.8967 35.6158 56.8839 35.6119 56.876 35.6073C56.8707 35.6043 56.8795 35.6078 56.8979 35.6318C56.9166 35.6561 56.9405 35.6954 56.9656 35.7544L57.8856 35.3625ZM56.4792 34.7085C56.1107 34.8654 55.7827 35.2143 55.4791 35.6879C55.1673 36.1744 54.8424 36.8542 54.5058 37.7645L55.4438 38.1113C55.7666 37.2381 56.0623 36.6311 56.321 36.2276C56.5879 35.8113 56.7803 35.6672 56.8711 35.6285L56.4792 34.7085ZM54.5003 37.7801C53.7934 39.9057 53.1473 42.2297 52.2682 44.5582L53.2037 44.9114C54.0897 42.5647 54.7653 40.152 55.4492 38.0957L54.5003 37.7801ZM52.2674 44.5602C51.1859 47.4628 48.9843 52.4256 46.2 57.0215C44.8081 59.319 43.2772 61.5138 41.6754 63.3107C40.0686 65.1131 38.4177 66.4842 36.7925 67.1764L37.1843 68.0964C39.0037 67.3215 40.7709 65.8281 42.4218 63.9761C44.0777 62.1186 45.6441 59.8689 47.0553 57.5396C49.8772 52.8818 52.1048 47.8609 53.2045 44.9094L52.2674 44.5602ZM36.7925 67.1764C35.0796 67.906 33.672 67.9223 32.5819 67.4931C31.4909 67.0635 30.6413 66.1576 30.1026 64.8929L29.1826 65.2847C29.8026 66.7403 30.8241 67.8757 32.2155 68.4235C33.6077 68.9717 35.2937 68.9017 37.1843 68.0964L36.7925 67.1764ZM30.1026 64.8929C29.3863 63.211 29.2351 60.9254 29.8501 58.484L28.8804 58.2398C28.2235 60.8478 28.3641 63.363 29.1826 65.2847L30.1026 64.8929ZM29.8501 58.484C30.1809 57.1685 30.6987 55.8107 31.3989 54.4962L30.5164 54.0261C29.7786 55.411 29.2313 56.8442 28.8804 58.2398L29.8501 58.484ZM31.1071 53.784C29.6347 53.3228 28.6226 52.2065 28.0967 50.972L27.1767 51.3638C27.7945 52.8143 29.0054 54.1736 30.8082 54.7383L31.1071 53.784ZM28.0967 50.972C26.7296 47.7622 27.284 40.7175 34.8376 37.5003L34.4458 36.5802C26.3133 40.0441 25.6246 47.7198 27.1767 51.3638L28.0967 50.972ZM34.8376 37.5003C37.6732 36.2925 40.3175 36.1826 42.8434 36.1568C45.3402 36.1314 47.7978 36.1957 50.065 35.2301L49.6732 34.31C47.6303 35.1802 45.4065 35.1307 42.8332 35.1569C40.2892 35.1828 37.4748 35.2901 34.4458 36.5802L34.8376 37.5003ZM50.065 35.2301C51.4894 34.6234 52.8371 33.648 54.0877 31.983L53.2881 31.3824C52.1416 32.9088 50.9338 33.7731 49.6732 34.31L50.065 35.2301ZM53.3857 32.0811L53.6324 32.2682L54.2367 31.4715L53.9901 31.2844L53.3857 32.0811ZM53.5347 31.5696C51.8801 33.7736 50.2571 34.9378 48.5407 35.6689L48.9325 36.5889C50.8197 35.7851 52.5804 34.5064 54.3344 32.17L53.5347 31.5696ZM48.5407 35.6689C46.7879 36.4155 44.9394 36.6811 42.7804 37.0518C40.6359 37.42 38.2389 37.8863 35.4991 39.0533L35.8909 39.9733C38.5211 38.853 40.8255 38.4021 42.9496 38.0374C45.0591 37.6752 47.0465 37.3922 48.9325 36.5889L48.5407 35.6689ZM35.4991 39.0533C31.5973 40.7151 29.1981 42.8308 27.9664 45.0138C26.731 47.2034 26.6885 49.4337 27.4593 51.2434L28.3794 50.8516C27.7357 49.3404 27.7479 47.4362 28.8373 45.5052C29.9305 43.5677 32.1264 41.5767 35.8909 39.9733L35.4991 39.0533ZM27.4593 51.2434C28.0633 52.6615 29.2461 53.9492 30.9475 54.4721L31.2413 53.5163C29.8691 53.0945 28.8889 52.0479 28.3794 50.8516L27.4593 51.2434ZM31.5315 54.237C33.1857 51.2594 35.8406 48.551 39.4703 47.0051L39.0784 46.085C35.2184 47.7291 32.4051 50.6053 30.6573 53.7514L31.5315 54.237ZM39.4703 47.0051C40.9178 46.3885 42.0033 46.2799 42.7719 46.4628C43.5164 46.6401 44.0188 47.1028 44.308 47.7819L45.228 47.39C44.825 46.4439 44.082 45.7467 43.0035 45.49C41.9491 45.2391 40.6338 45.4225 39.0784 46.085L39.4703 47.0051ZM44.308 47.7819C44.7263 48.764 44.7449 49.9802 44.429 51.2932C44.114 52.6024 43.4748 53.9696 42.6316 55.2185L43.4604 55.7781C44.3575 54.4494 45.0533 52.9732 45.4012 51.5271C45.7482 50.0848 45.7577 48.6336 45.228 47.39L44.308 47.7819ZM42.633 55.2165C41.384 57.0468 39.7392 58.5337 38.1566 59.2078L38.5484 60.1278C40.3574 59.3573 42.1382 57.7157 43.459 55.7802L42.633 55.2165ZM38.1566 59.2078C37.5767 59.4548 36.8454 59.6219 36.1677 59.6192C35.4788 59.6165 34.9341 59.441 34.6156 59.1069L33.8918 59.7969C34.4788 60.4127 35.3476 60.616 36.1638 60.6192C36.9911 60.6224 37.8565 60.4225 38.5484 60.1278L38.1566 59.2078ZM34.7305 59.6025L34.8371 59.2649L33.8836 58.9637L33.7769 59.3013L34.7305 59.6025ZM33.9797 59.4385C34.5325 60.0875 35.3841 60.2957 36.1728 60.3016C36.9725 60.3075 37.8084 60.1091 38.4634 59.8301L38.0715 58.9101C37.5253 59.1427 36.8251 59.3064 36.1802 59.3016C35.5244 59.2967 35.023 59.1211 34.741 58.7901L33.9797 59.4385ZM38.4634 59.8301C40.2047 59.0884 41.9506 57.4591 43.2352 55.5388L42.4041 54.9828C41.1895 56.7982 39.5805 58.2674 38.0715 58.9101L38.4634 59.8301ZM43.2306 55.5457C44.6808 53.4539 44.974 51.5953 44.3696 50.1764L43.4496 50.5683C43.8685 51.5518 43.7507 53.0403 42.4087 54.9759L43.2306 55.5457ZM44.3696 50.1764C43.8514 48.9596 42.6979 48.2049 41.3184 47.9285C39.9383 47.652 38.2898 47.84 36.6577 48.5352L37.0496 49.4552C38.5265 48.8261 39.9696 48.6782 41.122 48.909C42.2751 49.1401 43.0951 49.736 43.4496 50.5683L44.3696 50.1764ZM36.6577 48.5352C34.5752 49.4222 32.4828 51.1479 30.9476 53.8323L31.8156 54.3288C33.2467 51.8264 35.1753 50.2535 37.0496 49.4552L36.6577 48.5352ZM31.2623 54.5661C32.5071 54.8719 34.0357 54.7457 35.7738 54.0054L35.382 53.0854C33.7992 53.7595 32.4936 53.8388 31.5009 53.595L31.2623 54.5661ZM35.7738 54.0054C36.122 53.8571 37.5048 53.1811 38.8741 52.1693L38.2798 51.3651C36.9824 52.3238 35.6696 52.9629 35.382 53.0854L35.7738 54.0054ZM38.7728 52.2272L38.8435 52.1971L38.4516 51.2771L38.381 51.3072L38.7728 52.2272ZM38.8435 52.1971C38.7561 52.2343 38.6503 52.237 38.5537 52.1966C38.4638 52.159 38.404 52.0939 38.3708 52.0293C38.2965 51.8844 38.3435 51.7367 38.4152 51.6654L39.1207 52.3741C39.3389 52.1568 39.3964 51.8377 39.2606 51.5729C39.131 51.3203 38.8036 51.1272 38.4516 51.2771L38.8435 52.1971ZM38.4729 51.616C37.1395 52.5906 35.7907 53.2452 35.5023 53.368L35.8942 54.288C36.2417 54.14 37.6591 53.4495 39.063 52.4234L38.4729 51.616ZM35.5023 53.368C33.8214 54.084 32.4682 54.1467 31.3222 53.8438L31.0667 54.8106C32.4605 55.179 34.0422 55.0768 35.8942 54.288L35.5023 53.368ZM30.752 54.0944C30.1118 55.3109 29.5493 56.7082 29.1524 58.2913L30.1224 58.5345C30.4987 57.0335 31.0315 55.7106 31.6369 54.5601L30.752 54.0944ZM29.1509 58.2974C28.6781 60.2881 28.6642 61.9117 29.1774 63.1166L30.0974 62.7247C29.7077 61.8098 29.6702 60.4383 30.1239 58.5285L29.1509 58.2974ZM29.1774 63.1166C29.71 64.3671 30.7671 65.0434 32.1179 65.1961C33.4388 65.3454 35.0468 65 36.7997 64.2534L36.4078 63.3334C34.7338 64.0464 33.31 64.3245 32.2302 64.2024C31.1802 64.0838 30.4676 63.594 30.0974 62.7247L29.1774 63.1166ZM36.7997 64.2534C43.4429 61.4239 48.6849 55.776 51.8093 47.721L50.8769 47.3593C47.8344 55.2036 42.7656 60.6254 36.4078 63.3334L36.7997 64.2534ZM51.8093 47.721C52.9681 44.7331 53.8979 41.9489 54.7494 39.352C55.6022 36.7511 56.3737 34.347 57.221 32.0978L56.2851 31.7452C55.4281 34.0201 54.6484 36.4505 53.7991 39.0405C52.9486 41.6345 52.0256 44.3975 50.8769 47.3593L51.8093 47.721ZM57.2232 32.0916C57.4704 31.4082 57.7384 30.9012 57.9903 30.5491C58.2484 30.1883 58.4645 30.0247 58.5931 29.97L58.2012 29.05C57.8351 29.2059 57.4879 29.5327 57.177 29.9673C56.8599 30.4106 56.5532 31.004 56.2828 31.7514L57.2232 32.0916ZM58.5931 29.97C58.677 29.9342 58.6955 29.9535 58.6811 29.9473C58.6704 29.9427 58.7099 29.9524 58.7582 30.0657L59.6782 29.6739C59.5609 29.3986 59.3666 29.1532 59.0751 29.0282C58.7798 28.9016 58.4705 28.9353 58.2012 29.05L58.5931 29.97ZM58.7582 30.0657C58.8494 30.28 58.8905 30.6936 58.7497 31.3893L59.7299 31.5876C59.8848 30.8217 59.8879 30.1662 59.6782 29.6739L58.7582 30.0657ZM58.75 31.3879C58.191 34.1112 57.3456 37.17 56.5245 40.0181C55.7068 42.8547 54.9086 45.4963 54.4575 47.3493L55.4292 47.5858C55.8737 45.76 56.6606 43.1562 57.4854 40.2951C58.3069 37.4454 59.162 34.354 59.7296 31.5889L58.75 31.3879ZM54.4566 47.3535C54.284 48.0902 54.2782 48.7497 54.4749 49.2114L55.3949 48.8195C55.3207 48.6453 55.2769 48.2358 55.4302 47.5816L54.4566 47.3535ZM54.4749 49.2114C54.5922 49.4868 54.7841 49.727 55.063 49.8543C55.3481 49.9844 55.6516 49.9632 55.9165 49.8504L55.5247 48.9303C55.4962 48.9425 55.4806 48.9436 55.4766 48.9437C55.4739 48.9437 55.4759 48.9435 55.4782 48.9446C55.4851 48.9477 55.4431 48.9328 55.3949 48.8195L54.4749 49.2114ZM55.9165 49.8504C56.2279 49.7177 56.4985 49.4566 56.7231 49.139C56.9524 48.8148 57.1584 48.3977 57.3274 47.8998L56.3803 47.5783C56.2346 48.0075 56.0682 48.3332 55.9067 48.5616C55.7405 48.7965 55.6019 48.8975 55.5247 48.9303L55.9165 49.8504ZM57.3313 47.8872C58.5139 44.0741 60.9305 35.9689 62.5326 31.6275L61.5944 31.2813C59.9802 35.6556 57.5502 43.8057 56.3762 47.5909L57.3313 47.8872ZM62.5354 31.6195C62.8148 30.821 63.1697 30.1152 63.5157 29.5872C63.6888 29.3231 63.8549 29.1108 64.0025 28.9559C64.1569 28.7937 64.2639 28.7233 64.3137 28.7021L63.9219 27.7821C63.6891 27.8812 63.4709 28.0641 63.2783 28.2662C63.0789 28.4756 62.8762 28.7387 62.6793 29.0391C62.2854 29.6402 61.8957 30.4201 61.5915 31.2892L62.5354 31.6195ZM64.3137 28.7021C64.3492 28.687 64.3123 28.7133 64.2402 28.6873C64.2049 28.6746 64.1795 28.6551 64.1649 28.6397C64.152 28.626 64.1535 28.622 64.1615 28.6408L65.0816 28.249C64.9916 28.0376 64.8323 27.8377 64.5791 27.7465C64.3345 27.6584 64.0984 27.7069 63.9219 27.7821L64.3137 28.7021ZM64.1615 28.6408C64.1988 28.7283 64.2389 28.9726 64.1866 29.484C64.1367 29.9732 64.0104 30.6398 63.787 31.5175L64.7561 31.7642C64.9854 30.8631 65.1245 30.1436 65.1814 29.5856C65.2362 29.0497 65.2249 28.5855 65.0816 28.249L64.1615 28.6408ZM63.7883 31.5124C62.6499 35.7935 61.5399 40.0838 60.8812 44.0623L61.8678 44.2257C62.5176 40.3011 63.6152 36.0549 64.7548 31.7694L63.7883 31.5124ZM60.8806 44.0664C60.2572 48.0315 60.3576 51.8519 61.3614 54.2085L62.2814 53.8166C61.3892 51.7218 61.2541 48.1296 61.8685 44.2217L60.8806 44.0664ZM61.3614 54.2085C61.7469 55.1137 62.2927 55.8495 63.0444 56.238C63.8156 56.6366 64.7109 56.6226 65.6791 56.2102L65.2872 55.2902C64.5243 55.6152 63.9498 55.5803 63.5035 55.3496C63.0377 55.1089 62.6181 54.6072 62.2814 53.8166L61.3614 54.2085ZM65.6791 56.2102C66.3008 55.9454 66.97 55.523 67.6726 54.9182L67.0202 54.1603C66.3791 54.7122 65.7961 55.0735 65.2872 55.2902L65.6791 56.2102ZM67.6481 54.938C67.8212 54.807 67.8342 54.7914 67.8656 54.7781L67.4737 53.8581C67.293 53.935 67.1242 54.0804 67.0448 54.1405L67.6481 54.938ZM67.8656 54.7781C67.8652 54.7783 67.8389 54.7896 67.7933 54.7898C67.7428 54.79 67.6894 54.7763 67.6429 54.7495C67.6005 54.7249 67.5803 54.6989 67.5766 54.6939C67.5734 54.6895 67.5798 54.6973 67.5923 54.7267L68.5124 54.3348C68.4529 54.1951 68.347 54.0015 68.1438 53.884C67.9061 53.7463 67.6593 53.779 67.4737 53.8581L67.8656 54.7781ZM67.5923 54.7267C67.7449 55.0848 67.7035 55.6154 67.3758 56.1849C67.0541 56.7441 66.4822 57.2855 65.6955 57.6206L66.0873 58.5406C67.0671 58.1233 67.8089 57.4374 68.2426 56.6836C68.6705 55.94 68.8263 55.0718 68.5124 54.3348L67.5923 54.7267Z" fill="#1D2330"/>
</g>
</g>
<defs>
<filter id="filter0_diii_758_5733" x="10.1229" y="10.2207" width="75.135" height="78.6745" filterUnits="userSpaceOnUse" color-interpolation-filters="sRGB">
<feFlood flood-opacity="0" result="BackgroundImageFix"/>
<feColorMatrix in="SourceAlpha" type="matrix" values="0 0 0 0 0 0 0 0 0 0 0 0 0 0 0 0 0 0 127 0" result="hardAlpha"/>
<feOffset dy="2.88"/>
<feGaussianBlur stdDeviation="1.44"/>
<feComposite in2="hardAlpha" operator="out"/>
<feColorMatrix type="matrix" values="0 0 0 0 0 0 0 0 0 0 0 0 0 0 0 0 0 0 0.25 0"/>
<feBlend mode="normal" in2="BackgroundImageFix" result="effect1_dropShadow_758_5733"/>
<feBlend mode="normal" in="SourceGraphic" in2="effect1_dropShadow_758_5733" result="shape"/>
<feColorMatrix in="SourceAlpha" type="matrix" values="0 0 0 0 0 0 0 0 0 0 0 0 0 0 0 0 0 0 127 0" result="hardAlpha"/>
<feOffset dy="-4.32"/>
<feGaussianBlur stdDeviation="1.44"/>
<feComposite in2="hardAlpha" operator="arithmetic" k2="-1" k3="1"/>
<feColorMatrix type="matrix" values="0 0 0 0 0 0 0 0 0 0 0 0 0 0 0 0 0 0 0.25 0"/>
<feBlend mode="normal" in2="shape" result="effect2_innerShadow_758_5733"/>
<feColorMatrix in="SourceAlpha" type="matrix" values="0 0 0 0 0 0 0 0 0 0 0 0 0 0 0 0 0 0 127 0" result="hardAlpha"/>
<feOffset dx="0.72" dy="-1.44"/>
<feGaussianBlur stdDeviation="0.36"/>
<feComposite in2="hardAlpha" operator="arithmetic" k2="-1" k3="1"/>
<feColorMatrix type="matrix" values="0 0 0 0 1 0 0 0 0 1 0 0 0 0 1 0 0 0 0.5 0"/>
<feBlend mode="normal" in2="effect2_innerShadow_758_5733" result="effect3_innerShadow_758_5733"/>
<feColorMatrix in="SourceAlpha" type="matrix" values="0 0 0 0 0 0 0 0 0 0 0 0 0 0 0 0 0 0 127 0" result="hardAlpha"/>
<feOffset dx="-0.72" dy="1.44"/>
<feGaussianBlur stdDeviation="0.36"/>
<feComposite in2="hardAlpha" operator="arithmetic" k2="-1" k3="1"/>
<feColorMatrix type="matrix" values="0 0 0 0 1 0 0 0 0 1 0 0 0 0 1 0 0 0 0.5 0"/>
<feBlend mode="normal" in2="effect3_innerShadow_758_5733" result="effect4_innerShadow_758_5733"/>
</filter>
<filter id="filter1_ddi_758_5733" x="17.339" y="14.5206" width="60.2737" height="64.594" filterUnits="userSpaceOnUse" color-interpolation-filters="sRGB">
<feFlood flood-opacity="0" result="BackgroundImageFix"/>
<feColorMatrix in="SourceAlpha" type="matrix" values="0 0 0 0 0 0 0 0 0 0 0 0 0 0 0 0 0 0 127 0" result="hardAlpha"/>
<feOffset dx="0.72" dy="-2.88"/>
<feGaussianBlur stdDeviation="1.44"/>
<feComposite in2="hardAlpha" operator="out"/>
<feColorMatrix type="matrix" values="0 0 0 0 0 0 0 0 0 0 0 0 0 0 0 0 0 0 0.25 0"/>
<feBlend mode="normal" in2="BackgroundImageFix" result="effect1_dropShadow_758_5733"/>
<feColorMatrix in="SourceAlpha" type="matrix" values="0 0 0 0 0 0 0 0 0 0 0 0 0 0 0 0 0 0 127 0" result="hardAlpha"/>
<feOffset dx="-0.72" dy="1.44"/>
<feComposite in2="hardAlpha" operator="out"/>
<feColorMatrix type="matrix" values="0 0 0 0 1 0 0 0 0 1 0 0 0 0 1 0 0 0 0.5 0"/>
<feBlend mode="normal" in2="effect1_dropShadow_758_5733" result="effect2_dropShadow_758_5733"/>
<feBlend mode="normal" in="SourceGraphic" in2="effect2_dropShadow_758_5733" result="shape"/>
<feColorMatrix in="SourceAlpha" type="matrix" values="0 0 0 0 0 0 0 0 0 0 0 0 0 0 0 0 0 0 127 0" result="hardAlpha"/>
<feOffset dx="-0.72" dy="4.32"/>
<feGaussianBlur stdDeviation="2.16"/>
<feComposite in2="hardAlpha" operator="arithmetic" k2="-1" k3="1"/>
<feColorMatrix type="matrix" values="0 0 0 0 0 0 0 0 0 0 0 0 0 0 0 0 0 0 0.25 0"/>
<feBlend mode="normal" in2="shape" result="effect3_innerShadow_758_5733"/>
</filter>
<filter id="filter2_dii_758_5733" x="25.7917" y="26.9792" width="45.046" height="43.9593" filterUnits="userSpaceOnUse" color-interpolation-filters="sRGB">
<feFlood flood-opacity="0" result="BackgroundImageFix"/>
<feColorMatrix in="SourceAlpha" type="matrix" values="0 0 0 0 0 0 0 0 0 0 0 0 0 0 0 0 0 0 127 0" result="hardAlpha"/>
<feOffset dx="0.72" dy="0.72"/>
<feGaussianBlur stdDeviation="0.72"/>
<feComposite in2="hardAlpha" operator="out"/>
<feColorMatrix type="matrix" values="0 0 0 0 0 0 0 0 0 0 0 0 0 0 0 0 0 0 0.5 0"/>
<feBlend mode="normal" in2="BackgroundImageFix" result="effect1_dropShadow_758_5733"/>
<feBlend mode="normal" in="SourceGraphic" in2="effect1_dropShadow_758_5733" result="shape"/>
<feColorMatrix in="SourceAlpha" type="matrix" values="0 0 0 0 0 0 0 0 0 0 0 0 0 0 0 0 0 0 127 0" result="hardAlpha"/>
<feOffset dx="0.72" dy="-1.44"/>
<feGaussianBlur stdDeviation="0.36"/>
<feComposite in2="hardAlpha" operator="arithmetic" k2="-1" k3="1"/>
<feColorMatrix type="matrix" values="0 0 0 0 0 0 0 0 0 0 0 0 0 0 0 0 0 0 0.25 0"/>
<feBlend mode="normal" in2="shape" result="effect2_innerShadow_758_5733"/>
<feColorMatrix in="SourceAlpha" type="matrix" values="0 0 0 0 0 0 0 0 0 0 0 0 0 0 0 0 0 0 127 0" result="hardAlpha"/>
<feOffset dx="-0.72" dy="1.44"/>
<feGaussianBlur stdDeviation="0.36"/>
<feComposite in2="hardAlpha" operator="arithmetic" k2="-1" k3="1"/>
<feColorMatrix type="matrix" values="0 0 0 0 1 0 0 0 0 1 0 0 0 0 1 0 0 0 0.5 0"/>
<feBlend mode="normal" in2="effect2_innerShadow_758_5733" result="effect3_innerShadow_758_5733"/>
</filter>
</defs>
</svg>
