<svg width="47" height="48" viewBox="0 0 47 48" fill="none" xmlns="http://www.w3.org/2000/svg">
<g clip-path="url(#clip0_758_5734)">
<g filter="url(#filter0_diii_758_5734)">
<path fill-rule="evenodd" clip-rule="evenodd" d="M21.3929 1.9098C23.7866 2.09828 26.2412 1.97893 28.469 2.88633C30.6898 3.79087 32.5159 5.43504 34.223 7.1356C35.9005 8.80675 37.269 10.7292 38.4258 12.8051C39.6138 14.937 40.9487 17.1074 41.14 19.5482C41.331 21.985 40.0929 24.2569 39.5093 26.6287C38.9112 29.059 39.2808 31.9707 37.6254 33.8301C35.9417 35.7213 32.7772 35.2037 30.6572 36.5715C28.5075 37.9585 27.5962 41.0897 25.1665 41.8683C22.7876 42.6308 20.2948 41.1231 17.8383 40.6799C15.3661 40.2339 12.6062 40.6232 10.5086 39.2238C8.40886 37.8229 7.77498 35.0215 6.28312 32.9706C4.80555 30.9393 2.5983 29.4353 1.68158 27.0887C0.749914 24.7039 0.697702 22.0337 1.01632 19.4891C1.3315 16.972 2.25883 14.5725 3.52298 12.3826C4.75512 10.2482 6.59708 8.61538 8.30993 6.85446C10.0839 5.03068 11.5103 2.63215 13.8777 1.7374C16.2457 0.842416 18.8732 1.7114 21.3929 1.9098Z" fill="white"/>
<path fill-rule="evenodd" clip-rule="evenodd" d="M21.3929 1.9098C23.7866 2.09828 26.2412 1.97893 28.469 2.88633C30.6898 3.79087 32.5159 5.43504 34.223 7.1356C35.9005 8.80675 37.269 10.7292 38.4258 12.8051C39.6138 14.937 40.9487 17.1074 41.14 19.5482C41.331 21.985 40.0929 24.2569 39.5093 26.6287C38.9112 29.059 39.2808 31.9707 37.6254 33.8301C35.9417 35.7213 32.7772 35.2037 30.6572 36.5715C28.5075 37.9585 27.5962 41.0897 25.1665 41.8683C22.7876 42.6308 20.2948 41.1231 17.8383 40.6799C15.3661 40.2339 12.6062 40.6232 10.5086 39.2238C8.40886 37.8229 7.77498 35.0215 6.28312 32.9706C4.80555 30.9393 2.5983 29.4353 1.68158 27.0887C0.749914 24.7039 0.697702 22.0337 1.01632 19.4891C1.3315 16.972 2.25883 14.5725 3.52298 12.3826C4.75512 10.2482 6.59708 8.61538 8.30993 6.85446C10.0839 5.03068 11.5103 2.63215 13.8777 1.7374C16.2457 0.842416 18.8732 1.7114 21.3929 1.9098Z" stroke="#8E9197" stroke-width="0.3"/>
</g>
<g filter="url(#filter1_dii_758_5734)">
<circle cx="20.79" cy="21.2901" r="15.75" fill="white"/>
<circle cx="20.79" cy="21.2901" r="15.75" stroke="#8E9197" stroke-width="0.3"/>
</g>
<g filter="url(#filter2_dii_758_5734)">
<mask id="path-3-outside-1_758_5734" maskUnits="userSpaceOnUse" x="7.24023" y="11.9401" width="28" height="20" fill="black">
<rect fill="white" x="7.24023" y="11.9401" width="28" height="20"/>
<path d="M28.6501 31.3225C27.1941 31.3225 26.6341 30.3817 26.6341 29.0601C26.6341 27.3353 28.2245 24.3561 29.2549 22.7209C30.1061 21.3993 31.0917 20.0105 32.0325 18.7561C32.4357 18.2185 32.6149 17.7929 32.6149 17.5465C32.6149 17.3673 32.5253 17.2777 32.3685 17.2777C32.0773 17.2777 31.5397 17.5913 30.9349 18.3305C28.5605 21.0857 25.9173 24.3561 24.3717 26.0137C24.0805 26.3497 23.7893 26.4841 23.5653 26.4841C23.2517 26.4841 23.0501 26.2377 23.0501 25.9241C23.0501 25.7449 23.0949 25.5657 23.2069 25.3865C24.1701 23.7065 26.8581 20.8617 28.8293 18.3081C29.0981 17.9497 29.2549 17.5689 29.2549 17.3001C29.2549 17.0761 29.1653 16.9193 28.9413 16.9193C28.6501 16.9193 28.1573 17.2105 27.3957 18.0169C26.5445 18.9801 25.6485 20.1001 24.6405 21.1529C22.1317 23.7961 15.3221 29.8441 10.9541 29.8441C8.66934 29.8441 7.59414 28.5225 7.59414 26.7977C7.59414 25.6553 8.06454 24.3337 8.98294 23.1241C9.47574 22.4745 10.0805 21.8473 10.7749 21.2873C10.0133 20.6377 9.69974 19.7193 9.69974 18.8681C9.69974 16.6953 11.7157 12.8873 16.6885 12.8873C20.4069 12.8873 22.6469 15.1497 25.3797 15.1497C26.2309 15.1497 27.1269 14.9481 28.1349 14.3657L28.2245 14.5225C26.7909 15.3513 25.6037 15.6201 24.4613 15.6201C22.1541 15.6201 20.0933 14.4553 16.6885 14.4553C11.8277 14.4553 9.87894 16.7625 9.87894 18.8681C9.87894 19.6969 10.1925 20.5705 10.9093 21.1753C12.5221 19.9209 14.6277 19.0473 17.0021 19.0473C18.9061 19.0473 19.7125 19.8313 19.7125 20.8617C19.7125 22.2729 18.5029 23.7289 16.9797 24.7145C15.8597 25.4313 14.5829 25.8793 13.5077 25.8793C12.7013 25.8793 11.6261 25.5433 11.3573 24.8265L11.4917 24.6697C11.7157 25.3865 12.7685 25.7001 13.5301 25.7001C14.5605 25.7001 15.8149 25.2521 16.9125 24.5353C18.1221 23.7737 18.6149 22.9225 18.6149 22.1609C18.6149 20.8617 17.1141 19.8089 15.1429 19.8089C13.8885 19.8089 12.4325 20.2345 11.0437 21.2873C11.5813 21.6905 12.3653 21.9593 13.4181 21.9593C13.6197 21.9593 14.4933 21.9145 15.4341 21.6905H15.4789C15.5685 21.6905 15.5909 21.8249 15.4789 21.8697C14.5157 22.0937 13.6197 22.1385 13.4181 22.1385C12.2981 22.1385 11.4917 21.8473 10.8869 21.3769C10.2821 21.8697 9.67734 22.4745 9.11734 23.2137C8.42294 24.1545 8.08694 24.9609 8.08694 25.6329C8.08694 26.9769 9.45334 27.6937 11.6261 27.6937C15.7477 27.6937 19.7797 25.9017 23.2517 22.3401C25.8501 19.6745 27.7765 17.2329 29.7253 15.1945C30.3301 14.5449 30.8453 14.2761 31.1589 14.2761C31.3829 14.2761 31.5173 14.4105 31.5173 14.6569C31.5173 14.8809 31.4053 15.1721 31.1589 15.5305C29.2997 18.2185 26.5221 21.3545 25.2005 23.1241C24.9541 23.4601 24.8421 23.7513 24.8421 23.9529C24.8421 24.1993 24.9765 24.3337 25.1781 24.3337C25.4245 24.3337 25.7829 24.1321 26.1637 23.7065C27.6645 21.9369 30.8229 18.1289 32.6821 16.1577C33.3765 15.3961 34.1605 14.9033 34.5189 14.9033C34.6533 14.9033 34.7429 14.9705 34.7429 15.1273C34.7429 15.3961 34.4741 15.9113 33.8245 16.7625C32.2341 18.8009 30.6661 20.8393 29.4117 22.8105C28.1797 24.7817 27.3957 26.7977 27.3957 28.2089C27.3957 29.2841 27.8661 29.9785 28.9637 29.9785C29.3221 29.9785 29.7477 29.9113 30.2405 29.7545C30.3301 29.7321 30.3973 29.7097 30.4645 29.7097C30.5765 29.7097 30.6213 29.7769 30.6213 29.9113C30.6213 30.6057 29.7701 31.3225 28.6501 31.3225Z"/>
</mask>
<path d="M28.6501 31.3225C27.1941 31.3225 26.6341 30.3817 26.6341 29.0601C26.6341 27.3353 28.2245 24.3561 29.2549 22.7209C30.1061 21.3993 31.0917 20.0105 32.0325 18.7561C32.4357 18.2185 32.6149 17.7929 32.6149 17.5465C32.6149 17.3673 32.5253 17.2777 32.3685 17.2777C32.0773 17.2777 31.5397 17.5913 30.9349 18.3305C28.5605 21.0857 25.9173 24.3561 24.3717 26.0137C24.0805 26.3497 23.7893 26.4841 23.5653 26.4841C23.2517 26.4841 23.0501 26.2377 23.0501 25.9241C23.0501 25.7449 23.0949 25.5657 23.2069 25.3865C24.1701 23.7065 26.8581 20.8617 28.8293 18.3081C29.0981 17.9497 29.2549 17.5689 29.2549 17.3001C29.2549 17.0761 29.1653 16.9193 28.9413 16.9193C28.6501 16.9193 28.1573 17.2105 27.3957 18.0169C26.5445 18.9801 25.6485 20.1001 24.6405 21.1529C22.1317 23.7961 15.3221 29.8441 10.9541 29.8441C8.66934 29.8441 7.59414 28.5225 7.59414 26.7977C7.59414 25.6553 8.06454 24.3337 8.98294 23.1241C9.47574 22.4745 10.0805 21.8473 10.7749 21.2873C10.0133 20.6377 9.69974 19.7193 9.69974 18.8681C9.69974 16.6953 11.7157 12.8873 16.6885 12.8873C20.4069 12.8873 22.6469 15.1497 25.3797 15.1497C26.2309 15.1497 27.1269 14.9481 28.1349 14.3657L28.2245 14.5225C26.7909 15.3513 25.6037 15.6201 24.4613 15.6201C22.1541 15.6201 20.0933 14.4553 16.6885 14.4553C11.8277 14.4553 9.87894 16.7625 9.87894 18.8681C9.87894 19.6969 10.1925 20.5705 10.9093 21.1753C12.5221 19.9209 14.6277 19.0473 17.0021 19.0473C18.9061 19.0473 19.7125 19.8313 19.7125 20.8617C19.7125 22.2729 18.5029 23.7289 16.9797 24.7145C15.8597 25.4313 14.5829 25.8793 13.5077 25.8793C12.7013 25.8793 11.6261 25.5433 11.3573 24.8265L11.4917 24.6697C11.7157 25.3865 12.7685 25.7001 13.5301 25.7001C14.5605 25.7001 15.8149 25.2521 16.9125 24.5353C18.1221 23.7737 18.6149 22.9225 18.6149 22.1609C18.6149 20.8617 17.1141 19.8089 15.1429 19.8089C13.8885 19.8089 12.4325 20.2345 11.0437 21.2873C11.5813 21.6905 12.3653 21.9593 13.4181 21.9593C13.6197 21.9593 14.4933 21.9145 15.4341 21.6905H15.4789C15.5685 21.6905 15.5909 21.8249 15.4789 21.8697C14.5157 22.0937 13.6197 22.1385 13.4181 22.1385C12.2981 22.1385 11.4917 21.8473 10.8869 21.3769C10.2821 21.8697 9.67734 22.4745 9.11734 23.2137C8.42294 24.1545 8.08694 24.9609 8.08694 25.6329C8.08694 26.9769 9.45334 27.6937 11.6261 27.6937C15.7477 27.6937 19.7797 25.9017 23.2517 22.3401C25.8501 19.6745 27.7765 17.2329 29.7253 15.1945C30.3301 14.5449 30.8453 14.2761 31.1589 14.2761C31.3829 14.2761 31.5173 14.4105 31.5173 14.6569C31.5173 14.8809 31.4053 15.1721 31.1589 15.5305C29.2997 18.2185 26.5221 21.3545 25.2005 23.1241C24.9541 23.4601 24.8421 23.7513 24.8421 23.9529C24.8421 24.1993 24.9765 24.3337 25.1781 24.3337C25.4245 24.3337 25.7829 24.1321 26.1637 23.7065C27.6645 21.9369 30.8229 18.1289 32.6821 16.1577C33.3765 15.3961 34.1605 14.9033 34.5189 14.9033C34.6533 14.9033 34.7429 14.9705 34.7429 15.1273C34.7429 15.3961 34.4741 15.9113 33.8245 16.7625C32.2341 18.8009 30.6661 20.8393 29.4117 22.8105C28.1797 24.7817 27.3957 26.7977 27.3957 28.2089C27.3957 29.2841 27.8661 29.9785 28.9637 29.9785C29.3221 29.9785 29.7477 29.9113 30.2405 29.7545C30.3301 29.7321 30.3973 29.7097 30.4645 29.7097C30.5765 29.7097 30.6213 29.7769 30.6213 29.9113C30.6213 30.6057 29.7701 31.3225 28.6501 31.3225Z" fill="white"/>
<path d="M29.2549 22.7209L29.0027 22.5585L29.0011 22.561L29.2549 22.7209ZM32.0325 18.7561L31.7925 18.5761V18.5761L32.0325 18.7561ZM30.9349 18.3305L31.1623 18.5264L31.1671 18.5205L30.9349 18.3305ZM24.3717 26.0137L24.1522 25.809L24.145 25.8172L24.3717 26.0137ZM23.2069 25.3865L23.4615 25.5456L23.4672 25.5357L23.2069 25.3865ZM28.8293 18.3081L29.0668 18.4915L29.0693 18.4881L28.8293 18.3081ZM27.3957 18.0169L27.1775 17.8108L27.1709 17.8183L27.3957 18.0169ZM24.6405 21.1529L24.4238 20.9455L24.4229 20.9464L24.6405 21.1529ZM8.98294 23.1241L9.22188 23.3055L9.22195 23.3054L8.98294 23.1241ZM10.7749 21.2873L10.9633 21.5208L11.2448 21.2938L10.9696 21.0591L10.7749 21.2873ZM28.1349 14.3657L28.3954 14.2169L28.2459 13.9552L27.9849 14.106L28.1349 14.3657ZM28.2245 14.5225L28.3747 14.7822L28.6331 14.6328L28.485 14.3737L28.2245 14.5225ZM10.9093 21.1753L10.7159 21.4046L10.9017 21.5614L11.0935 21.4121L10.9093 21.1753ZM16.9797 24.7145L17.1415 24.9672L17.1427 24.9664L16.9797 24.7145ZM11.3573 24.8265L11.1296 24.6313L11.0142 24.7659L11.0764 24.9319L11.3573 24.8265ZM11.4917 24.6697L11.7781 24.5802L11.6165 24.0632L11.264 24.4745L11.4917 24.6697ZM16.9125 24.5353L16.7527 24.2814L16.7485 24.2841L16.9125 24.5353ZM11.0437 21.2873L10.8625 21.0483L10.5454 21.2886L10.8637 21.5273L11.0437 21.2873ZM15.4341 21.6905V21.3905H15.3989L15.3647 21.3987L15.4341 21.6905ZM15.4789 21.8697L15.5469 22.1619L15.5691 22.1568L15.5904 22.1483L15.4789 21.8697ZM10.8869 21.3769L11.0711 21.1401L10.8826 20.9935L10.6974 21.1444L10.8869 21.3769ZM9.11734 23.2137L8.8782 23.0326L8.87597 23.0356L9.11734 23.2137ZM23.2517 22.3401L23.4666 22.5495L23.4666 22.5495L23.2517 22.3401ZM29.7253 15.1945L29.9422 15.4019L29.9449 15.3989L29.7253 15.1945ZM31.1589 15.5305L31.4057 15.7012L31.4062 15.7005L31.1589 15.5305ZM25.2005 23.1241L24.9602 22.9446L24.9586 22.9467L25.2005 23.1241ZM26.1637 23.7065L26.3874 23.9066L26.3925 23.9006L26.1637 23.7065ZM32.6821 16.1577L32.9004 16.3636L32.9038 16.3599L32.6821 16.1577ZM33.8245 16.7625L34.0611 16.9471L34.063 16.9445L33.8245 16.7625ZM29.4117 22.8105L29.1586 22.6495L29.1573 22.6515L29.4117 22.8105ZM30.2405 29.7545L30.1678 29.4635L30.1586 29.4658L30.1496 29.4686L30.2405 29.7545ZM28.6501 31.0225C27.9914 31.0225 27.5827 30.8132 27.3299 30.4989C27.0677 30.1728 26.9341 29.6855 26.9341 29.0601H26.3341C26.3341 29.7564 26.4806 30.4002 26.8624 30.8749C27.2536 31.3614 27.8529 31.6225 28.6501 31.6225V31.0225ZM26.9341 29.0601C26.9341 28.2672 27.3065 27.1422 27.8315 25.9805C28.351 24.831 28.9991 23.6897 29.5088 22.8809L29.0011 22.561C28.4804 23.3873 27.8181 24.5532 27.2848 25.7334C26.757 26.9012 26.3341 28.1283 26.3341 29.0601H26.9341ZM29.5072 22.8834C30.3535 21.5693 31.3348 20.1865 32.2725 18.9361L31.7925 18.5761C30.8487 19.8346 29.8588 21.2294 29.0027 22.5585L29.5072 22.8834ZM32.2725 18.9361C32.4835 18.6549 32.641 18.3962 32.7469 18.1688C32.8502 17.947 32.9149 17.7328 32.9149 17.5465H32.3149C32.3149 17.6067 32.2901 17.7284 32.203 17.9155C32.1185 18.0968 31.9848 18.3198 31.7925 18.5761L32.2725 18.9361ZM32.9149 17.5465C32.9149 17.4106 32.8809 17.2587 32.7694 17.1397C32.655 17.0177 32.5037 16.9777 32.3685 16.9777V17.5777C32.3797 17.5777 32.3786 17.5794 32.3696 17.5761C32.3594 17.5723 32.3449 17.5642 32.3317 17.5501C32.3042 17.5208 32.3149 17.5033 32.3149 17.5465H32.9149ZM32.3685 16.9777C32.1318 16.9777 31.8628 17.0971 31.5984 17.2804C31.3242 17.4704 31.0187 17.7544 30.7028 18.1406L31.1671 18.5205C31.456 18.1674 31.7217 17.925 31.9403 17.7735C32.1687 17.6151 32.3141 17.5777 32.3685 17.5777V16.9777ZM30.7077 18.1347C28.3207 20.9045 25.6936 24.1561 24.1523 25.8091L24.5912 26.2183C26.141 24.5561 28.8004 21.267 31.1622 18.5264L30.7077 18.1347ZM24.145 25.8172C23.8874 26.1145 23.672 26.1841 23.5653 26.1841V26.7841C23.9067 26.7841 24.2737 26.5849 24.5984 26.2102L24.145 25.8172ZM23.5653 26.1841C23.4497 26.1841 23.3501 26.1062 23.3501 25.9241H22.7501C22.7501 26.3692 23.0538 26.7841 23.5653 26.7841V26.1841ZM23.3501 25.9241C23.3501 25.799 23.3803 25.6752 23.4613 25.5455L22.9525 25.2275C22.8096 25.4562 22.7501 25.6909 22.7501 25.9241H23.3501ZM23.4672 25.5357C23.9331 24.7232 24.8271 23.613 25.8701 22.3675C26.9047 21.1323 28.0764 19.7745 29.0668 18.4914L28.5919 18.1248C27.6111 19.3953 26.4532 20.7368 25.4101 21.9823C24.3756 23.2177 23.444 24.3699 22.9467 25.2373L23.4672 25.5357ZM29.0693 18.4881C29.3559 18.1061 29.5549 17.662 29.5549 17.3001H28.9549C28.9549 17.4759 28.8404 17.7934 28.5893 18.1281L29.0693 18.4881ZM29.5549 17.3001C29.5549 17.1556 29.5273 16.9859 29.4221 16.8457C29.3058 16.6907 29.1312 16.6193 28.9413 16.6193V17.2193C28.9624 17.2193 28.9662 17.2229 28.9603 17.2203C28.9532 17.217 28.9461 17.2111 28.9421 17.2057C28.9392 17.2019 28.9427 17.2047 28.9469 17.221C28.9512 17.2375 28.9549 17.2633 28.9549 17.3001H29.5549ZM28.9413 16.6193C28.7052 16.6193 28.4477 16.7327 28.176 16.9178C27.8968 17.108 27.5666 17.3991 27.1776 17.8109L27.6138 18.2229C27.9865 17.8283 28.2835 17.5706 28.5139 17.4137C28.7518 17.2515 28.8863 17.2193 28.9413 17.2193V16.6193ZM27.1709 17.8183C26.3052 18.7979 25.4278 19.8969 24.4239 20.9455L24.8572 21.3604C25.8693 20.3034 26.7838 19.1624 27.6205 18.2156L27.1709 17.8183ZM24.4229 20.9464C23.1793 22.2566 20.8637 24.4165 18.3194 26.2462C17.0474 27.1609 15.7246 27.9885 14.4548 28.5864C13.181 29.1862 11.9828 29.5441 10.9541 29.5441V30.1441C12.1094 30.1441 13.4005 29.746 14.7104 29.1292C16.0243 28.5106 17.3796 27.661 18.6697 26.7333C21.2493 24.8782 23.593 22.6924 24.8581 21.3595L24.4229 20.9464ZM10.9541 29.5441C9.86969 29.5441 9.11285 29.2316 8.62785 28.754C8.14245 28.2759 7.89414 27.5979 7.89414 26.7977H7.29414C7.29414 27.7223 7.58343 28.5675 8.20683 29.1815C8.83063 29.7958 9.75379 30.1441 10.9541 30.1441V29.5441ZM7.89414 26.7977C7.89414 25.7336 8.33465 24.4741 9.22188 23.3055L8.74401 22.9427C7.79443 24.1934 7.29414 25.5771 7.29414 26.7977H7.89414ZM9.22195 23.3054C9.69979 22.6756 10.2875 22.0658 10.9633 21.5208L10.5866 21.0538C9.87358 21.6288 9.25169 22.2735 8.74393 22.9428L9.22195 23.3054ZM10.9696 21.0591C10.2871 20.4769 9.99974 19.6489 9.99974 18.8681H9.39974C9.39974 19.7897 9.73963 20.7986 10.5803 21.5156L10.9696 21.0591ZM9.99974 18.8681C9.99974 16.8369 11.9045 13.1873 16.6885 13.1873V12.5873C11.527 12.5873 9.39974 16.5537 9.39974 18.8681H9.99974ZM16.6885 13.1873C18.4847 13.1873 19.9276 13.7322 21.289 14.2957C22.6342 14.8525 23.9402 15.4497 25.3797 15.4497V14.8497C24.0865 14.8497 22.9061 14.3157 21.5185 13.7413C20.1471 13.1737 18.6108 12.5873 16.6885 12.5873V13.1873ZM25.3797 15.4497C26.2843 15.4497 27.232 15.2339 28.285 14.6255L27.9849 14.106C27.0219 14.6624 26.1775 14.8497 25.3797 14.8497V15.4497ZM27.8745 14.5146L27.9641 14.6714L28.485 14.3737L28.3954 14.2169L27.8745 14.5146ZM28.0744 14.2628C26.6838 15.0667 25.5481 15.3201 24.4613 15.3201V15.9201C25.6594 15.9201 26.8981 15.6359 28.3747 14.7822L28.0744 14.2628ZM24.4613 15.3201C23.3512 15.3201 22.2996 15.0405 21.0557 14.7458C19.8205 14.4532 18.4267 14.1553 16.6885 14.1553V14.7553C18.3552 14.7553 19.6942 15.0399 20.9174 15.3296C22.1319 15.6174 23.2643 15.9201 24.4613 15.9201V15.3201ZM16.6885 14.1553C14.2134 14.1553 12.4402 14.7426 11.2783 15.6341C10.1128 16.5283 9.57894 17.7179 9.57894 18.8681H10.1789C10.1789 17.9127 10.6194 16.8959 11.6436 16.1101C12.6713 15.3216 14.3029 14.7553 16.6885 14.7553V14.1553ZM9.57894 18.8681C9.57894 19.7692 9.92011 20.7332 10.7159 21.4046L11.1028 20.946C10.465 20.4079 10.1789 19.6246 10.1789 18.8681H9.57894ZM11.0935 21.4121C12.6607 20.1932 14.7028 19.3473 17.0021 19.3473V18.7473C14.5526 18.7473 12.3836 19.6486 10.7252 20.9385L11.0935 21.4121ZM17.0021 19.3473C17.919 19.3473 18.5243 19.537 18.8931 19.8094C19.2498 20.073 19.4125 20.4336 19.4125 20.8617H20.0125C20.0125 20.2594 19.7721 19.7129 19.2496 19.3268C18.7391 18.9497 17.9893 18.7473 17.0021 18.7473V19.3473ZM19.4125 20.8617C19.4125 21.4821 19.1455 22.1373 18.6765 22.7689C18.2089 23.3985 17.5541 23.9855 16.8168 24.4627L17.1427 24.9664C17.9286 24.4579 18.6402 23.8241 19.1582 23.1266C19.6748 22.431 20.0125 21.6526 20.0125 20.8617H19.4125ZM16.818 24.4618C15.7302 25.158 14.5091 25.5793 13.5077 25.5793V26.1793C14.6568 26.1793 15.9893 25.7046 17.1415 24.9672L16.818 24.4618ZM13.5077 25.5793C13.1411 25.5793 12.7116 25.502 12.3496 25.3462C11.9815 25.1877 11.7316 24.9703 11.6382 24.7212L11.0764 24.9319C11.2518 25.3996 11.674 25.7086 12.1123 25.8973C12.5567 26.0886 13.068 26.1793 13.5077 26.1793V25.5793ZM11.5851 25.0218L11.7195 24.865L11.264 24.4745L11.1296 24.6313L11.5851 25.0218ZM11.2054 24.7592C11.3548 25.2372 11.7668 25.545 12.1897 25.7288C12.6187 25.9154 13.1139 26.0001 13.5301 26.0001V25.4001C13.1848 25.4001 12.7727 25.3281 12.429 25.1786C12.0791 25.0265 11.8527 24.819 11.7781 24.5802L11.2054 24.7592ZM13.5301 26.0001C14.6363 26.0001 15.9473 25.524 17.0766 24.7865L16.7485 24.2841C15.6826 24.9803 14.4848 25.4001 13.5301 25.4001V26.0001ZM17.0724 24.7892C18.3302 23.9972 18.9149 23.0645 18.9149 22.1609H18.3149C18.3149 22.7805 17.9141 23.5502 16.7527 24.2815L17.0724 24.7892ZM18.9149 22.1609C18.9149 21.3859 18.4664 20.7149 17.7876 20.2502C17.1085 19.7852 16.1791 19.5089 15.1429 19.5089V20.1089C16.0779 20.1089 16.8845 20.359 17.4487 20.7453C18.0131 21.1317 18.3149 21.6367 18.3149 22.1609H18.9149ZM15.1429 19.5089C13.8206 19.5089 12.3015 19.9574 10.8625 21.0483L11.225 21.5264C12.5636 20.5116 13.9564 20.1089 15.1429 20.1089V19.5089ZM10.8637 21.5273C11.4636 21.9772 12.3147 22.2593 13.4181 22.2593V21.6593C12.416 21.6593 11.6991 21.4038 11.2237 21.0473L10.8637 21.5273ZM13.4181 22.2593C13.6395 22.2593 14.5368 22.2126 15.5036 21.9824L15.3647 21.3987C14.4499 21.6165 13.6 21.6593 13.4181 21.6593V22.2593ZM15.4341 21.9905H15.4789V21.3905H15.4341V21.9905ZM15.4789 21.9905C15.4213 21.9905 15.3617 21.9669 15.3176 21.9215C15.2764 21.8793 15.2584 21.8287 15.2553 21.7847C15.2483 21.6861 15.3096 21.6144 15.3675 21.5912L15.5904 22.1483C15.7603 22.0803 15.8664 21.919 15.8538 21.742C15.8417 21.5732 15.7072 21.3905 15.4789 21.3905V21.9905ZM15.411 21.5775C14.4733 21.7956 13.6005 21.8385 13.4181 21.8385V22.4385C13.639 22.4385 14.5582 22.3919 15.5469 22.1619L15.411 21.5775ZM13.4181 21.8385C12.3539 21.8385 11.6152 21.5633 11.0711 21.1401L10.7028 21.6137C11.3682 22.1313 12.2424 22.4385 13.4181 22.4385V21.8385ZM10.6974 21.1444C10.0753 21.6513 9.45354 22.2731 8.87821 23.0326L9.35647 23.3949C9.90114 22.6759 10.489 22.0882 11.0764 21.6095L10.6974 21.1444ZM8.87597 23.0356C8.16677 23.9964 7.78694 24.8664 7.78694 25.6329H8.38694C8.38694 25.0555 8.67912 24.3126 9.35871 23.3919L8.87597 23.0356ZM7.78694 25.6329C7.78694 26.4292 8.20171 27.0364 8.89393 27.4284C9.57048 27.8115 10.514 27.9937 11.6261 27.9937V27.3937C10.5655 27.3937 9.7394 27.2176 9.18955 26.9063C8.65538 26.6038 8.38694 26.1806 8.38694 25.6329H7.78694ZM11.6261 27.9937C15.8408 27.9937 19.9472 26.1597 23.4666 22.5495L23.0369 22.1307C19.6123 25.6437 15.6547 27.3937 11.6261 27.3937V27.9937ZM23.4666 22.5495C24.7716 21.2107 25.9072 19.9289 26.9578 18.7298C28.0101 17.5288 28.9735 16.4151 29.9422 15.4018L29.5085 14.9872C28.5284 16.0124 27.5542 17.1386 26.5065 18.3344C25.4571 19.5322 24.3302 20.8039 23.0369 22.1307L23.4666 22.5495ZM29.9449 15.3989C30.2334 15.0891 30.4925 14.8788 30.7074 14.7479C30.9278 14.6137 31.0796 14.5761 31.1589 14.5761V13.9761C30.9247 13.9761 30.6621 14.073 30.3953 14.2355C30.1229 14.4014 29.8221 14.6503 29.5058 14.9901L29.9449 15.3989ZM31.1589 14.5761C31.1853 14.5761 31.1993 14.5801 31.2046 14.5821C31.2089 14.5837 31.2077 14.584 31.2053 14.5815C31.1988 14.5746 31.2173 14.5866 31.2173 14.6569H31.8173C31.8173 14.4809 31.7687 14.3024 31.6389 14.1668C31.5074 14.0293 31.3314 13.9761 31.1589 13.9761V14.5761ZM31.2173 14.6569C31.2173 14.7903 31.146 15.0199 30.9117 15.3606L31.4062 15.7005C31.6647 15.3244 31.8173 14.9716 31.8173 14.6569H31.2173ZM30.9122 15.3599C29.9899 16.6934 28.8372 18.1415 27.7455 19.4823C26.6583 20.8176 25.626 22.0531 24.9602 22.9446L25.4409 23.3036C26.0967 22.4255 27.1139 21.2083 28.2108 19.8611C29.3031 18.5196 30.4688 17.0557 31.4057 15.7012L30.9122 15.3599ZM24.9586 22.9467C24.6972 23.3032 24.5421 23.6576 24.5421 23.9529H25.1421C25.1421 23.8451 25.2111 23.617 25.4425 23.3015L24.9586 22.9467ZM24.5421 23.9529C24.5421 24.129 24.5906 24.304 24.713 24.438C24.8381 24.575 25.0082 24.6337 25.1781 24.6337V24.0337C25.161 24.0337 25.1534 24.0309 25.1524 24.0305C25.1521 24.0304 25.1542 24.0314 25.1561 24.0334C25.1608 24.0386 25.1421 24.0232 25.1421 23.9529H24.5421ZM25.1781 24.6337C25.3777 24.6337 25.5842 24.5546 25.778 24.4351C25.976 24.313 26.1824 24.1356 26.3873 23.9066L25.9402 23.5065C25.7643 23.7031 25.6011 23.8393 25.4631 23.9244C25.3209 24.012 25.225 24.0337 25.1781 24.0337V24.6337ZM26.3925 23.9006C27.899 22.1243 31.0484 18.3271 32.9004 16.3636L32.4639 15.9519C30.5975 17.9307 27.4301 21.7496 25.9349 23.5125L26.3925 23.9006ZM32.9038 16.3599C33.2359 15.9956 33.5872 15.6984 33.893 15.4945C34.0459 15.3925 34.1832 15.3169 34.2972 15.2677C34.4167 15.2162 34.489 15.2033 34.5189 15.2033V14.6033C34.3697 14.6033 34.2096 14.6521 34.0596 14.7167C33.9041 14.7838 33.7347 14.8789 33.5601 14.9953C33.2107 15.2283 32.8228 15.5582 32.4605 15.9556L32.9038 16.3599ZM34.5189 15.2033C34.5402 15.2033 34.512 15.2087 34.4772 15.1764C34.4601 15.1605 34.4502 15.1431 34.4455 15.1304C34.4413 15.119 34.4429 15.1161 34.4429 15.1273H35.0429C35.0429 14.9917 35.0027 14.8455 34.8855 14.7367C34.7723 14.6316 34.6321 14.6033 34.5189 14.6033V15.2033ZM34.4429 15.1273C34.4429 15.1805 34.4095 15.3192 34.2647 15.5815C34.1263 15.8322 33.9065 16.1607 33.5861 16.5805L34.063 16.9445C34.3922 16.5132 34.6316 16.1585 34.79 15.8715C34.9419 15.5962 35.0429 15.3429 35.0429 15.1273H34.4429ZM33.588 16.578C31.9984 18.6153 30.4219 20.6644 29.1586 22.6495L29.6648 22.9716C30.9104 21.0142 32.4698 18.9865 34.0611 16.9471L33.588 16.578ZM29.1573 22.6515C27.9161 24.6375 27.0957 26.7124 27.0957 28.2089H27.6957C27.6957 26.8831 28.4434 24.926 29.6661 22.9695L29.1573 22.6515ZM27.0957 28.2089C27.0957 28.7839 27.2207 29.3058 27.537 29.6882C27.8617 30.0807 28.348 30.2785 28.9637 30.2785V29.6785C28.4819 29.6785 28.1842 29.5292 27.9993 29.3057C27.806 29.0721 27.6957 28.7092 27.6957 28.2089H27.0957ZM28.9637 30.2785C29.3589 30.2785 29.8155 30.2046 30.3315 30.0404L30.1496 29.4686C29.68 29.6181 29.2854 29.6785 28.9637 29.6785V30.2785ZM30.3133 30.0456C30.4371 30.0146 30.446 30.0097 30.4645 30.0097V29.4097C30.3486 29.4097 30.2232 29.4496 30.1678 29.4635L30.3133 30.0456ZM30.4645 30.0097C30.4635 30.0097 30.4457 30.0097 30.4199 29.9988C30.3914 29.9868 30.3646 29.9664 30.3449 29.9401C30.3269 29.9161 30.3216 29.8964 30.3206 29.8921C30.3197 29.8882 30.3213 29.8931 30.3213 29.9113H30.9213C30.9213 29.8222 30.9087 29.6918 30.8249 29.5801C30.7268 29.4492 30.584 29.4097 30.4645 29.4097V30.0097ZM30.3213 29.9113C30.3213 30.135 30.1798 30.4081 29.8751 30.6378C29.5761 30.8632 29.1472 31.0225 28.6501 31.0225V31.6225C29.2731 31.6225 29.8298 31.4234 30.2363 31.1169C30.6373 30.8146 30.9213 30.3821 30.9213 29.9113H30.3213Z" fill="#8E9197" mask="url(#path-3-outside-1_758_5734)"/>
</g>
</g>
<defs>
<filter id="filter0_diii_758_5734" x="-2.31055" y="-0.809875" width="48.6201" height="49.04" filterUnits="userSpaceOnUse" color-interpolation-filters="sRGB">
<feFlood flood-opacity="0" result="BackgroundImageFix"/>
<feColorMatrix in="SourceAlpha" type="matrix" values="0 0 0 0 0 0 0 0 0 0 0 0 0 0 0 0 0 0 127 0" result="hardAlpha"/>
<feOffset dx="1" dy="2"/>
<feGaussianBlur stdDeviation="2"/>
<feComposite in2="hardAlpha" operator="out"/>
<feColorMatrix type="matrix" values="0 0 0 0 0 0 0 0 0 0 0 0 0 0 0 0 0 0 0.25 0"/>
<feBlend mode="normal" in2="BackgroundImageFix" result="effect1_dropShadow_758_5734"/>
<feBlend mode="normal" in="SourceGraphic" in2="effect1_dropShadow_758_5734" result="shape"/>
<feColorMatrix in="SourceAlpha" type="matrix" values="0 0 0 0 0 0 0 0 0 0 0 0 0 0 0 0 0 0 127 0" result="hardAlpha"/>
<feOffset dy="-2.52"/>
<feGaussianBlur stdDeviation="0.84"/>
<feComposite in2="hardAlpha" operator="arithmetic" k2="-1" k3="1"/>
<feColorMatrix type="matrix" values="0 0 0 0 0 0 0 0 0 0 0 0 0 0 0 0 0 0 0.25 0"/>
<feBlend mode="normal" in2="shape" result="effect2_innerShadow_758_5734"/>
<feColorMatrix in="SourceAlpha" type="matrix" values="0 0 0 0 0 0 0 0 0 0 0 0 0 0 0 0 0 0 127 0" result="hardAlpha"/>
<feOffset dx="0.42" dy="-0.84"/>
<feGaussianBlur stdDeviation="0.21"/>
<feComposite in2="hardAlpha" operator="arithmetic" k2="-1" k3="1"/>
<feColorMatrix type="matrix" values="0 0 0 0 1 0 0 0 0 1 0 0 0 0 1 0 0 0 0.5 0"/>
<feBlend mode="normal" in2="effect2_innerShadow_758_5734" result="effect3_innerShadow_758_5734"/>
<feColorMatrix in="SourceAlpha" type="matrix" values="0 0 0 0 0 0 0 0 0 0 0 0 0 0 0 0 0 0 127 0" result="hardAlpha"/>
<feOffset dx="-0.42" dy="0.84"/>
<feGaussianBlur stdDeviation="0.21"/>
<feComposite in2="hardAlpha" operator="arithmetic" k2="-1" k3="1"/>
<feColorMatrix type="matrix" values="0 0 0 0 1 0 0 0 0 1 0 0 0 0 1 0 0 0 0.5 0"/>
<feBlend mode="normal" in2="effect3_innerShadow_758_5734" result="effect4_innerShadow_758_5734"/>
</filter>
<filter id="filter1_dii_758_5734" x="3.62965" y="2.03008" width="35.1608" height="37.68" filterUnits="userSpaceOnUse" color-interpolation-filters="sRGB">
<feFlood flood-opacity="0" result="BackgroundImageFix"/>
<feColorMatrix in="SourceAlpha" type="matrix" values="0 0 0 0 0 0 0 0 0 0 0 0 0 0 0 0 0 0 127 0" result="hardAlpha"/>
<feOffset dx="0.42" dy="-1.68"/>
<feGaussianBlur stdDeviation="0.84"/>
<feComposite in2="hardAlpha" operator="out"/>
<feColorMatrix type="matrix" values="0 0 0 0 0 0 0 0 0 0 0 0 0 0 0 0 0 0 0.25 0"/>
<feBlend mode="normal" in2="BackgroundImageFix" result="effect1_dropShadow_758_5734"/>
<feBlend mode="normal" in="SourceGraphic" in2="effect1_dropShadow_758_5734" result="shape"/>
<feColorMatrix in="SourceAlpha" type="matrix" values="0 0 0 0 0 0 0 0 0 0 0 0 0 0 0 0 0 0 127 0" result="hardAlpha"/>
<feOffset dx="-0.42" dy="2.52"/>
<feGaussianBlur stdDeviation="1.26"/>
<feComposite in2="hardAlpha" operator="arithmetic" k2="-1" k3="1"/>
<feColorMatrix type="matrix" values="0 0 0 0 0 0 0 0 0 0 0 0 0 0 0 0 0 0 0.25 0"/>
<feBlend mode="normal" in2="shape" result="effect2_innerShadow_758_5734"/>
<feColorMatrix in="SourceAlpha" type="matrix" values="0 0 0 0 0 0 0 0 0 0 0 0 0 0 0 0 0 0 127 0" result="hardAlpha"/>
<feOffset dx="-0.42" dy="0.84"/>
<feComposite in2="hardAlpha" operator="arithmetic" k2="-1" k3="1"/>
<feColorMatrix type="matrix" values="0 0 0 0 1 0 0 0 0 1 0 0 0 0 1 0 0 0 0.5 0"/>
<feBlend mode="normal" in2="effect2_innerShadow_758_5734" result="effect3_innerShadow_758_5734"/>
</filter>
<filter id="filter2_dii_758_5734" x="7.17375" y="12.4673" width="28.8294" height="20.1152" filterUnits="userSpaceOnUse" color-interpolation-filters="sRGB">
<feFlood flood-opacity="0" result="BackgroundImageFix"/>
<feColorMatrix in="SourceAlpha" type="matrix" values="0 0 0 0 0 0 0 0 0 0 0 0 0 0 0 0 0 0 127 0" result="hardAlpha"/>
<feOffset dx="0.42" dy="0.42"/>
<feGaussianBlur stdDeviation="0.42"/>
<feComposite in2="hardAlpha" operator="out"/>
<feColorMatrix type="matrix" values="0 0 0 0 0 0 0 0 0 0 0 0 0 0 0 0 0 0 0.5 0"/>
<feBlend mode="normal" in2="BackgroundImageFix" result="effect1_dropShadow_758_5734"/>
<feBlend mode="normal" in="SourceGraphic" in2="effect1_dropShadow_758_5734" result="shape"/>
<feColorMatrix in="SourceAlpha" type="matrix" values="0 0 0 0 0 0 0 0 0 0 0 0 0 0 0 0 0 0 127 0" result="hardAlpha"/>
<feOffset dx="0.42" dy="-0.84"/>
<feGaussianBlur stdDeviation="0.21"/>
<feComposite in2="hardAlpha" operator="arithmetic" k2="-1" k3="1"/>
<feColorMatrix type="matrix" values="0 0 0 0 0 0 0 0 0 0 0 0 0 0 0 0 0 0 0.25 0"/>
<feBlend mode="normal" in2="shape" result="effect2_innerShadow_758_5734"/>
<feColorMatrix in="SourceAlpha" type="matrix" values="0 0 0 0 0 0 0 0 0 0 0 0 0 0 0 0 0 0 127 0" result="hardAlpha"/>
<feOffset dx="-0.42" dy="0.84"/>
<feGaussianBlur stdDeviation="0.21"/>
<feComposite in2="hardAlpha" operator="arithmetic" k2="-1" k3="1"/>
<feColorMatrix type="matrix" values="0 0 0 0 1 0 0 0 0 1 0 0 0 0 1 0 0 0 0.5 0"/>
<feBlend mode="normal" in2="effect2_innerShadow_758_5734" result="effect3_innerShadow_758_5734"/>
</filter>
<clipPath id="clip0_758_5734">
<rect width="47" height="47" fill="white" transform="translate(0 0.500122)"/>
</clipPath>
</defs>
</svg>
