<svg width="272" height="89" viewBox="0 0 272 89" fill="none" xmlns="http://www.w3.org/2000/svg">
<path d="M35.1968 17.8801C38.6784 20.6454 41.3848 24.4463 43.282 28.4266C44.0946 29.953 44.7202 31.3137 45.101 32.2884C46.3352 35.4327 48.0216 39.738 46.563 41.9617C46.3726 42.2527 46.1108 42.5472 45.7946 42.8214C44.0946 44.2903 41.4766 44.2903 39.7766 42.8214C39.4604 42.5472 39.1986 42.2527 39.0082 41.9617C37.553 39.7414 39.2394 35.4361 40.4702 32.2884C40.7524 31.5675 41.1774 30.6198 41.7044 29.5638C40.6708 27.3266 39.3822 25.2349 37.8454 23.3124C36.7438 21.9349 35.5062 20.6555 34.17 19.4777C31.603 23.6204 30.1308 27.1946 29.7636 28.1321C27.8698 32.9687 24.6976 41.0614 29.3828 48.2097C32.2014 52.5115 37.2368 55.3106 42.5306 55.5204C42.6156 55.5238 42.704 55.5272 42.789 55.5272C42.8876 55.5272 42.9828 55.5272 43.0814 55.5204C48.3616 55.297 53.38 52.5014 56.1918 48.2097C60.877 41.0614 57.7048 32.9654 55.8076 28.1287C55.3928 27.0727 53.5772 22.6592 50.3574 17.853C52.5402 16.0524 54.9576 14.8577 57.494 14.9592C58.6874 14.9964 60.537 15.3214 62.5736 16.6515C68.5916 20.5743 68.5032 33.8047 68.408 47.8137C68.3944 49.6718 68.3842 51.5537 68.3842 53.4592H79.8762C79.8762 51.5807 79.8898 49.7226 79.9 47.8915C80.0156 30.6807 80.1244 14.421 68.8704 7.08658C65.4908 4.87981 61.6828 3.6512 57.8578 3.52935C51.8942 3.36012 46.8622 5.78351 42.7856 9.20535C38.7124 5.78689 33.7178 3.35335 27.7134 3.52935C23.8918 3.6512 20.0872 4.87981 16.7042 7.0832C5.45024 14.421 5.56244 30.6807 5.67464 47.8915C5.68824 49.7226 5.69844 51.5807 5.69844 53.4558H17.1904C17.1904 51.5537 17.1768 49.6718 17.1666 47.8137C17.0714 33.8047 16.983 20.5743 23.001 16.6515C25.041 15.3214 26.8906 14.9964 28.0806 14.9592C30.6238 14.878 32.8066 16.0626 34.7718 17.5484C34.9146 17.6567 35.0574 17.765 35.1968 17.8767V17.8801Z" fill="#236FFF"/>
<path d="M103.999 54.3426C100.412 54.3426 97.1616 53.554 94.241 51.9734C91.3204 50.3928 89.0016 48.2097 87.2778 45.4174C85.554 42.6285 84.6904 39.4469 84.6904 35.8761C84.6904 32.3054 85.554 29.0595 87.2778 26.2672C89.0016 23.4749 91.3204 21.2783 94.241 19.6774C97.1582 18.0764 100.412 17.2743 103.999 17.2743C107.586 17.2743 110.904 18.0764 113.825 19.6774C116.742 21.2783 119.064 23.4749 120.788 26.2672C122.512 29.0595 123.372 32.2377 123.372 35.8084C123.372 39.3792 122.512 42.6285 120.788 45.4174C119.064 48.2097 116.729 50.3928 113.788 51.9734C110.847 53.554 107.583 54.3426 103.996 54.3426H103.999ZM103.999 43.7724C105.515 43.7724 106.828 43.4306 107.929 42.7435C109.034 42.0564 109.884 41.1088 110.479 39.8937C111.078 38.682 111.377 37.318 111.377 35.8084C111.377 34.2989 111.078 32.8808 110.479 31.6894C109.881 30.5014 109.031 29.5604 107.929 28.8768C106.828 28.1897 105.515 27.8478 103.999 27.8478C102.483 27.8478 101.242 28.1897 100.137 28.8768C99.0316 29.5638 98.1714 30.5014 97.5492 31.6894C96.9304 32.8808 96.6176 34.2549 96.6176 35.8084C96.6176 37.362 96.927 38.682 97.5492 39.8937C98.1714 41.1054 99.0316 42.0564 100.137 42.7435C101.242 43.4306 102.527 43.7724 103.999 43.7724Z" fill="#236FFF"/>
<path d="M260.695 58.1164C263.816 58.1164 266.346 55.5979 266.346 52.4912C266.346 49.3845 263.816 46.866 260.695 46.866C257.574 46.866 255.044 49.3845 255.044 52.4912C255.044 55.5979 257.574 58.1164 260.695 58.1164Z" fill="#1D2330"/>
<path d="M153.795 21.4644V32.9484C153.833 34.2278 153.737 35.5309 153.544 36.8102C153.448 37.9949 153.183 39.0847 152.728 40.0662C152.153 41.3016 151.323 42.2629 150.246 42.9499C149.168 43.637 147.889 43.9789 146.421 43.9789C144.952 43.9789 143.741 43.637 142.664 42.9499C141.586 42.2629 140.746 41.3016 140.148 40.0662C139.549 38.8309 139.25 37.4364 139.25 35.8795C139.25 34.3226 139.549 33.0093 140.148 31.7942C140.746 30.5826 141.582 29.6315 142.664 28.9444C143.745 28.2573 144.996 27.9155 146.421 27.9155C147.845 27.9155 149.154 28.2573 150.212 28.9444C150.858 29.3641 151.405 29.8955 151.881 30.5115V19.7924C151.602 19.569 151.313 19.3592 151.004 19.1662C150.014 18.5502 148.937 18.0933 147.764 17.7955C146.591 17.4976 145.339 17.3487 144.007 17.3487C140.79 17.3487 137.893 18.0933 135.32 19.5792C132.746 21.065 130.723 23.1601 129.251 25.861C127.778 28.5619 127.044 31.7198 127.044 35.3312C127.044 38.0761 127.493 40.6179 128.39 42.9499C129.288 45.2853 130.583 47.3093 132.287 49.0253C133.987 50.7413 136.02 52.0681 138.39 53.0056C140.756 53.9432 143.435 54.4136 146.424 54.4136C150.331 54.4136 153.734 53.6115 156.627 52.0106C159.524 50.4096 161.775 48.1656 163.387 45.2853C164.995 42.4016 165.801 39.0373 165.801 35.1958V3.41425H153.802V21.4644H153.795Z" fill="#236FFF"/>
<path d="M196.16 3.41425V21.4644V32.9484C196.197 34.2142 196.102 35.5038 195.915 36.7696C195.823 37.9712 195.558 39.0712 195.096 40.0662C194.521 41.3016 193.692 42.2629 192.614 42.9499C191.536 43.637 190.258 43.9789 188.789 43.9789C187.32 43.9789 186.11 43.637 185.032 42.9499C183.954 42.2629 183.114 41.3016 182.516 40.0662C181.917 38.8309 181.618 37.4364 181.618 35.8795C181.618 34.3226 181.917 33.0093 182.516 31.7942C183.114 30.5826 183.951 29.6315 185.032 28.9444C186.113 28.2573 187.364 27.9155 188.789 27.9155C190.213 27.9155 191.522 28.2573 192.58 28.9444C193.226 29.3641 193.773 29.8921 194.246 30.5047V19.7856C193.967 19.5656 193.678 19.3524 193.372 19.1595C192.383 18.5435 191.305 18.0866 190.132 17.7887C188.959 17.4909 187.708 17.3419 186.375 17.3419C183.158 17.3419 180.262 18.0866 177.688 19.5724C175.114 21.0582 173.091 23.1533 171.619 25.8542C170.147 28.5552 169.412 31.713 169.412 35.3244C169.412 38.0693 169.861 40.6112 170.759 42.9432C171.656 45.2786 172.952 47.3026 174.655 49.0186C176.355 50.7346 178.388 52.0613 180.758 52.9989C183.124 53.9364 185.804 54.4069 188.792 54.4069C192.699 54.4069 196.102 53.6047 198.996 52.0038C201.892 50.4029 204.143 48.1589 205.755 45.2786C207.363 42.3949 208.169 39.0306 208.169 35.189V3.41425H196.17H196.16Z" fill="#236FFF"/>
<path d="M219.804 55.0093C220.878 53.7401 222.054 52.5623 223.336 51.4961C225.675 49.5499 228.093 48.1758 230.35 47.2044H230.201C228.939 47.2044 227.702 46.7678 226.78 45.9081C226.774 45.9013 226.767 45.8979 226.763 45.8912C224.533 43.7927 224.632 40.5198 224.676 39.8835L224.689 19.2339H213.197V39.3284C213.068 41.7247 213.221 48.8899 218.872 54.2038C219.171 54.4847 219.487 54.7453 219.807 55.0059L219.804 55.0093Z" fill="#236FFF"/>
<path d="M252.827 19.2374H241.335V40.3066C241.311 41.322 241.053 44.1143 238.999 45.9284C238.734 46.162 238.448 46.3752 238.142 46.5614C237.547 46.9269 236.881 47.1604 236.198 47.3128C233.056 48.0066 228.653 49.5568 224.563 52.9583C222.866 54.3697 221.377 55.9909 220.078 57.7712C219.153 59.1521 218.429 60.6278 217.963 62.1949C215.658 69.9321 219.14 76.1801 219.541 76.8672C222.139 81.2841 226.038 83.386 228.126 84.2457C228.622 84.4488 231.546 85.5826 235.341 85.5826C237.745 85.5826 240.499 85.1257 243.202 83.6906C249.811 80.1808 252.824 73.1746 252.824 68.1484V19.2374H252.827ZM241.335 68.1518C241.335 73.3303 234.756 75.7943 230.962 72.6771C228.643 70.7715 227.997 67.1974 229.357 64.554C230.564 62.2084 233.294 60.7429 235.664 59.8426C237.486 59.1521 239.404 58.7189 241.338 58.4854C241.338 58.4854 241.338 68.1281 241.338 68.1518H241.335Z" fill="#236FFF"/>
</svg>
