<svg width="272" height="89" viewBox="0 0 272 89" fill="none" xmlns="http://www.w3.org/2000/svg">
<path d="M35.1968 17.88C38.6784 20.6452 41.3848 24.4462 43.282 28.4265C44.0946 29.9529 44.7202 31.3135 45.101 32.2883C46.3352 35.4326 48.0216 39.7378 46.563 41.9615C46.3726 42.2526 46.1108 42.5471 45.7946 42.8212C44.0946 44.2902 41.4766 44.2902 39.7766 42.8212C39.4604 42.5471 39.1986 42.2526 39.0082 41.9615C37.553 39.7412 39.2394 35.436 40.4702 32.2883C40.7524 31.5674 41.1774 30.6197 41.7044 29.5637C40.6708 27.3265 39.3822 25.2348 37.8454 23.3123C36.7438 21.9348 35.5062 20.6554 34.17 19.4775C31.603 23.6203 30.1308 27.1945 29.7636 28.132C27.8698 32.9686 24.6976 41.0612 29.3828 48.2095C32.2014 52.5114 37.2368 55.3105 42.5306 55.5203C42.6156 55.5237 42.704 55.5271 42.789 55.5271C42.8876 55.5271 42.9828 55.5271 43.0814 55.5203C48.3616 55.2969 53.38 52.5012 56.1918 48.2095C60.877 41.0612 57.7048 32.9652 55.8076 28.1286C55.3928 27.0726 53.5772 22.6591 50.3574 17.8529C52.5402 16.0523 54.9576 14.8575 57.494 14.9591C58.6874 14.9963 60.537 15.3212 62.5736 16.6514C68.5916 20.5742 68.5032 33.8046 68.408 47.8135C68.3944 49.6717 68.3842 51.5535 68.3842 53.4591H79.8762C79.8762 51.5806 79.8898 49.7225 79.9 47.8914C80.0156 30.6806 80.1244 14.4209 68.8704 7.08646C65.4908 4.87969 61.6828 3.65108 57.8578 3.52923C51.8942 3.36 46.8622 5.78338 42.7856 9.20523C38.7124 5.78677 33.7178 3.35323 27.7134 3.52923C23.8918 3.65108 20.0872 4.87969 16.7042 7.08308C5.45024 14.4209 5.56244 30.6806 5.67464 47.8914C5.68824 49.7225 5.69844 51.5806 5.69844 53.4557H17.1904C17.1904 51.5535 17.1768 49.6717 17.1666 47.8135C17.0714 33.8046 16.983 20.5742 23.001 16.6514C25.041 15.3212 26.8906 14.9963 28.0806 14.9591C30.6238 14.8778 32.8066 16.0625 34.7718 17.5483C34.9146 17.6566 35.0574 17.7649 35.1968 17.8766V17.88Z" fill="white"/>
<path d="M103.999 54.3425C100.412 54.3425 97.1616 53.5539 94.241 51.9732C91.3204 50.3926 89.0016 48.2096 87.2778 45.4173C85.554 42.6283 84.6904 39.4468 84.6904 35.876C84.6904 32.3052 85.554 29.0594 87.2778 26.2671C89.0016 23.4748 91.3204 21.2782 94.241 19.6772C97.1582 18.0763 100.412 17.2742 103.999 17.2742C107.586 17.2742 110.904 18.0763 113.825 19.6772C116.742 21.2782 119.064 23.4748 120.788 26.2671C122.512 29.0594 123.372 32.2376 123.372 35.8083C123.372 39.3791 122.512 42.6283 120.788 45.4173C119.064 48.2096 116.729 50.3926 113.788 51.9732C110.847 53.5539 107.583 54.3425 103.996 54.3425H103.999ZM103.999 43.7723C105.515 43.7723 106.828 43.4305 107.929 42.7434C109.034 42.0563 109.884 41.1086 110.479 39.8936C111.078 38.6819 111.377 37.3179 111.377 35.8083C111.377 34.2988 111.078 32.8806 110.479 31.6892C109.881 30.5012 109.031 29.5603 107.929 28.8766C106.828 28.1896 105.515 27.8477 103.999 27.8477C102.483 27.8477 101.242 28.1896 100.137 28.8766C99.0316 29.5637 98.1714 30.5012 97.5492 31.6892C96.9304 32.8806 96.6176 34.2548 96.6176 35.8083C96.6176 37.3619 96.927 38.6819 97.5492 39.8936C98.1714 41.1052 99.0316 42.0563 100.137 42.7434C101.242 43.4305 102.527 43.7723 103.999 43.7723Z" fill="white"/>
<path d="M260.695 58.1163C263.816 58.1163 266.346 55.5978 266.346 52.4911C266.346 49.3843 263.816 46.8658 260.695 46.8658C257.574 46.8658 255.044 49.3843 255.044 52.4911C255.044 55.5978 257.574 58.1163 260.695 58.1163Z" fill="#236FFF"/>
<path d="M153.795 21.4643V32.9483C153.833 34.2277 153.737 35.5307 153.544 36.8101C153.448 37.9947 153.183 39.0846 152.728 40.0661C152.153 41.3015 151.323 42.2627 150.246 42.9498C149.168 43.6369 147.889 43.9787 146.421 43.9787C144.952 43.9787 143.741 43.6369 142.664 42.9498C141.586 42.2627 140.746 41.3015 140.148 40.0661C139.549 38.8307 139.25 37.4363 139.25 35.8794C139.25 34.3224 139.549 33.0092 140.148 31.7941C140.746 30.5824 141.582 29.6314 142.664 28.9443C143.745 28.2572 144.996 27.9154 146.421 27.9154C147.845 27.9154 149.154 28.2572 150.212 28.9443C150.858 29.364 151.405 29.8954 151.881 30.5114V19.7923C151.602 19.5689 151.313 19.359 151.004 19.1661C150.014 18.5501 148.937 18.0932 147.764 17.7954C146.591 17.4975 145.339 17.3486 144.007 17.3486C140.79 17.3486 137.893 18.0932 135.32 19.579C132.746 21.0649 130.723 23.16 129.251 25.8609C127.778 28.5618 127.044 31.7197 127.044 35.331C127.044 38.076 127.493 40.6178 128.39 42.9498C129.288 45.2852 130.583 47.3092 132.287 49.0252C133.987 50.7412 136.02 52.068 138.39 53.0055C140.756 53.9431 143.435 54.4135 146.424 54.4135C150.331 54.4135 153.734 53.6114 156.627 52.0104C159.524 50.4095 161.775 48.1655 163.387 45.2852C164.995 42.4015 165.801 39.0372 165.801 35.1957V3.41412H153.802V21.4643H153.795Z" fill="white"/>
<path d="M196.16 3.41412V21.4643V32.9483C196.197 34.2141 196.102 35.5037 195.915 36.7695C195.823 37.9711 195.558 39.071 195.096 40.0661C194.521 41.3015 193.692 42.2627 192.614 42.9498C191.536 43.6369 190.258 43.9787 188.789 43.9787C187.32 43.9787 186.11 43.6369 185.032 42.9498C183.954 42.2627 183.114 41.3015 182.516 40.0661C181.917 38.8307 181.618 37.4363 181.618 35.8794C181.618 34.3224 181.917 33.0092 182.516 31.7941C183.114 30.5824 183.951 29.6314 185.032 28.9443C186.113 28.2572 187.364 27.9154 188.789 27.9154C190.213 27.9154 191.522 28.2572 192.58 28.9443C193.226 29.364 193.773 29.892 194.246 30.5046V19.7855C193.967 19.5655 193.678 19.3523 193.372 19.1594C192.383 18.5434 191.305 18.0864 190.132 17.7886C188.959 17.4907 187.708 17.3418 186.375 17.3418C183.158 17.3418 180.262 18.0864 177.688 19.5723C175.114 21.0581 173.091 23.1532 171.619 25.8541C170.147 28.555 169.412 31.7129 169.412 35.3243C169.412 38.0692 169.861 40.611 170.759 42.943C171.656 45.2784 172.952 47.3024 174.655 49.0184C176.355 50.7344 178.388 52.0612 180.758 52.9987C183.124 53.9363 185.804 54.4067 188.792 54.4067C192.699 54.4067 196.102 53.6046 198.996 52.0037C201.892 50.4027 204.143 48.1587 205.755 45.2784C207.363 42.3947 208.169 39.0304 208.169 35.1889V3.41412H196.17H196.16Z" fill="white"/>
<path d="M219.804 55.0092C220.878 53.74 222.054 52.5621 223.336 51.496C225.675 49.5498 228.093 48.1757 230.35 47.2043H230.201C228.939 47.2043 227.702 46.7677 226.78 45.908C226.774 45.9012 226.767 45.8978 226.763 45.8911C224.533 43.7926 224.632 40.5197 224.676 39.8834L224.689 19.2338H213.197V39.3283C213.068 41.7246 213.221 48.8898 218.872 54.2037C219.171 54.4846 219.487 54.7452 219.807 55.0058L219.804 55.0092Z" fill="white"/>
<path d="M252.827 19.2372H241.335V40.3065C241.311 41.3219 241.053 44.1142 238.999 45.9283C238.734 46.1619 238.448 46.3751 238.142 46.5612C237.547 46.9268 236.881 47.1603 236.198 47.3126C233.056 48.0065 228.653 49.5566 224.563 52.9582C222.866 54.3696 221.377 55.9908 220.078 57.7711C219.153 59.152 218.429 60.6277 217.963 62.1948C215.658 69.932 219.14 76.18 219.541 76.8671C222.139 81.284 226.038 83.3859 228.126 84.2456C228.622 84.4486 231.546 85.5825 235.341 85.5825C237.745 85.5825 240.499 85.1256 243.202 83.6905C249.811 80.1806 252.824 73.1745 252.824 68.1483V19.2372H252.827ZM241.335 68.1517C241.335 73.3302 234.756 75.7942 230.962 72.6769C228.643 70.7714 227.997 67.1973 229.357 64.5539C230.564 62.2083 233.294 60.7428 235.664 59.8425C237.486 59.152 239.404 58.7188 241.338 58.4853C241.338 58.4853 241.338 68.128 241.338 68.1517H241.335Z" fill="white"/>
</svg>
