<svg width="25" height="24" viewBox="0 0 25 24" fill="none" xmlns="http://www.w3.org/2000/svg">
<path d="M12.5144 11.1872C14.4994 11.1872 16.1085 9.57832 16.1085 7.59362C16.1085 5.60892 14.4994 4 12.5144 4C10.5295 4 8.92041 5.60892 8.92041 7.59362C8.92041 9.57832 10.5295 11.1872 12.5144 11.1872Z" stroke="white" stroke-width="1.5" stroke-miterlimit="10"/>
<path d="M20.1148 21.0395C14.5782 21.0134 9.04167 20.9873 3.50513 20.9613C3.71737 16.8697 5.85387 13.8074 8.39034 13.3569C9.6007 13.1421 10.9837 13.5071 11.9979 14.2584C13.4153 15.3086 14.4505 17.364 13.8017 18.4564C13.5587 18.8657 13.0545 19.1811 12.5387 19.1957C11.927 19.213 11.3487 18.8057 11.0963 18.3443C10.4737 17.2055 11.5708 15.2569 12.9001 14.259C13.8966 13.5107 15.2801 13.1019 16.5077 13.3105C19.0369 13.7401 21.1994 16.8389 21.3747 20.9967" stroke="white" stroke-width="1.5" stroke-linecap="round" stroke-linejoin="round"/>
</svg>
