<svg width="76" height="25" viewBox="0 0 76 25" fill="none" xmlns="http://www.w3.org/2000/svg">
<g clip-path="url(#clip0_989_9828)">
<path d="M8.61231 4.72504C9.62729 5.53265 10.4163 6.64274 10.9694 7.80523C11.2063 8.25105 11.3887 8.64843 11.4997 8.93312C11.8595 9.85144 12.3511 11.1088 11.9259 11.7583C11.8704 11.8433 11.7941 11.9293 11.7019 12.0094C11.2063 12.4384 10.443 12.4384 9.94745 12.0094C9.85527 11.9293 9.77895 11.8433 9.72344 11.7583C9.29921 11.1098 9.79084 9.85243 10.1497 8.93312C10.2319 8.72256 10.3558 8.44578 10.5095 8.13737C10.2081 7.48396 9.83247 6.87306 9.38445 6.31159C9.0633 5.90927 8.70251 5.53561 8.31297 5.19161C7.56461 6.40155 7.13543 7.44541 7.02838 7.71923C6.47628 9.13181 5.55149 11.4953 6.91736 13.5831C7.73907 14.8395 9.20703 15.657 10.7503 15.7182C10.7751 15.7192 10.8009 15.7202 10.8257 15.7202C10.8544 15.7202 10.8821 15.7202 10.9109 15.7182C12.4502 15.653 13.9132 14.8365 14.7329 13.5831C16.0988 11.4953 15.174 9.13082 14.6209 7.71824C14.5 7.40982 13.9707 6.12081 13.0321 4.71713C13.6684 4.19124 14.3731 3.8423 15.1126 3.87195C15.4605 3.88283 15.9997 3.97772 16.5934 4.36621C18.3478 5.51189 18.3221 9.37597 18.2943 13.4674C18.2904 14.0101 18.2874 14.5597 18.2874 15.1162H21.6376C21.6376 14.5676 21.6416 14.0249 21.6446 13.4901C21.6783 8.46358 21.71 3.71478 18.4291 1.57268C17.4439 0.928173 16.3337 0.569345 15.2186 0.533758C13.4801 0.484333 12.0131 1.19211 10.8247 2.19149C9.6382 1.19211 8.18213 0.481367 6.43168 0.53277C5.31757 0.568356 4.20842 0.927185 3.22218 1.5707C-0.0586787 3.71478 -0.0269605 8.46357 0.00674023 13.4911C0.010705 14.0259 0.0136786 14.5686 0.0136786 15.1162H3.36392C3.36392 14.5607 3.35996 14.0111 3.35698 13.4684C3.32923 9.37696 3.30346 5.51288 5.05788 4.3672C5.6526 3.97871 6.19181 3.88381 6.53873 3.87294C7.28014 3.84922 7.91649 4.19519 8.4894 4.62915C8.53103 4.66078 8.57266 4.69241 8.6133 4.72504H8.61231Z" fill="white"/>
<path d="M28.6715 15.3752C27.6258 15.3752 26.6782 15.1449 25.8268 14.6833C24.9753 14.2216 24.2993 13.584 23.7968 12.7685C23.2942 11.954 23.0425 11.0248 23.0425 9.98191C23.0425 8.93904 23.2942 7.99106 23.7968 7.17554C24.2993 6.36002 24.9753 5.71848 25.8268 5.25091C26.6772 4.78335 27.6258 4.54907 28.6715 4.54907C29.7172 4.54907 30.6846 4.78335 31.536 5.25091C32.3865 5.71848 33.0635 6.36002 33.566 7.17554C34.0686 7.99106 34.3193 8.91927 34.3193 9.96215C34.3193 11.005 34.0686 11.954 33.566 12.7685C33.0635 13.584 32.3825 14.2216 31.5251 14.6833C30.6678 15.1449 29.7162 15.3752 28.6705 15.3752H28.6715ZM28.6715 12.2881C29.1136 12.2881 29.4962 12.1883 29.8173 11.9876C30.1394 11.7869 30.3872 11.5101 30.5607 11.1553C30.7352 10.8014 30.8224 10.403 30.8224 9.96215C30.8224 9.52127 30.7352 9.10709 30.5607 8.75913C30.3863 8.41216 30.1385 8.13736 29.8173 7.93768C29.4962 7.73701 29.1136 7.63717 28.6715 7.63717C28.2294 7.63717 27.8676 7.73701 27.5455 7.93768C27.2233 8.13835 26.9726 8.41216 26.7912 8.75913C26.6108 9.10709 26.5196 9.50842 26.5196 9.96215C26.5196 10.4159 26.6098 10.8014 26.7912 11.1553C26.9726 11.5092 27.2233 11.7869 27.5455 11.9876C27.8676 12.1883 28.2423 12.2881 28.6715 12.2881Z" fill="white"/>
<path d="M74.3524 16.4765C75.2623 16.4765 75.9998 15.7409 75.9998 14.8336C75.9998 13.9262 75.2623 13.1907 74.3524 13.1907C73.4426 13.1907 72.7051 13.9262 72.7051 14.8336C72.7051 15.7409 73.4426 16.4765 74.3524 16.4765Z" fill="white"/>
<path d="M43.1874 5.77184V9.12585C43.1983 9.49951 43.1706 9.88008 43.1141 10.2537C43.0863 10.5997 43.009 10.918 42.8762 11.2047C42.7087 11.5655 42.4668 11.8462 42.1526 12.0469C41.8384 12.2476 41.4657 12.3474 41.0375 12.3474C40.6093 12.3474 40.2564 12.2476 39.9422 12.0469C39.628 11.8462 39.3832 11.5655 39.2087 11.2047C39.0343 10.8439 38.9471 10.4366 38.9471 9.9819C38.9471 9.52718 39.0343 9.14364 39.2087 8.78877C39.3832 8.43488 39.627 8.15711 39.9422 7.95644C40.2574 7.75578 40.6222 7.65594 41.0375 7.65594C41.4528 7.65594 41.8344 7.75578 42.1427 7.95644C42.331 8.07902 42.4906 8.23421 42.6294 8.41412V5.28352C42.5481 5.21827 42.4638 5.15699 42.3736 5.10064C42.0852 4.92073 41.771 4.78728 41.429 4.7003C41.0871 4.61331 40.7223 4.56981 40.3338 4.56981C39.3961 4.56981 38.5516 4.78728 37.8012 5.22124C37.0509 5.65519 36.4611 6.26708 36.032 7.05591C35.6028 7.84474 35.3887 8.76702 35.3887 9.82176C35.3887 10.6234 35.5195 11.3658 35.7812 12.0469C36.0429 12.729 36.4205 13.3201 36.9171 13.8213C37.4127 14.3224 38.0054 14.7099 38.6963 14.9838C39.3862 15.2576 40.1672 15.395 41.0385 15.395C42.1774 15.395 43.1696 15.1607 44.0131 14.6931C44.8576 14.2256 45.5137 13.5702 45.9836 12.729C46.4524 11.8868 46.6873 10.9042 46.6873 9.78222V0.500122H43.1894V5.77184H43.1874Z" fill="white"/>
<path d="M55.539 0.500122V5.77184V9.12585C55.5499 9.49555 55.5221 9.87217 55.4676 10.2419C55.4408 10.5928 55.3635 10.9141 55.2287 11.2047C55.0612 11.5655 54.8193 11.8462 54.5051 12.0469C54.1909 12.2476 53.8182 12.3474 53.39 12.3474C52.9618 12.3474 52.609 12.2476 52.2948 12.0469C51.9806 11.8462 51.7357 11.5655 51.5613 11.2047C51.3868 10.8439 51.2996 10.4366 51.2996 9.9819C51.2996 9.52718 51.3868 9.14364 51.5613 8.78877C51.7357 8.43488 51.9796 8.15711 52.2948 7.95644C52.61 7.75578 52.9747 7.65594 53.39 7.65594C53.8054 7.65594 54.187 7.75578 54.4952 7.95644C54.6835 8.07902 54.8431 8.23322 54.9809 8.41215V5.28154C54.8996 5.21729 54.8154 5.15501 54.7262 5.09866C54.4377 4.91876 54.1235 4.78531 53.7816 4.69832C53.4396 4.61133 53.0748 4.56784 52.6863 4.56784C51.7486 4.56784 50.9041 4.78531 50.1538 5.21926C49.4034 5.65322 48.8137 6.2651 48.3845 7.05393C47.9553 7.84276 47.7412 8.76504 47.7412 9.81978C47.7412 10.6215 47.872 11.3638 48.1337 12.0449C48.3954 12.727 48.773 13.3181 49.2696 13.8193C49.7652 14.3205 50.358 14.708 51.0488 14.9818C51.7387 15.2556 52.5198 15.393 53.391 15.393C54.5299 15.393 55.5221 15.1587 56.3656 14.6912C57.2101 14.2236 57.8663 13.5682 58.3361 12.727C58.8049 11.8848 59.0399 10.9022 59.0399 9.78024V0.500122H55.5419H55.539Z" fill="white"/>
<path d="M62.4304 15.5689C62.7436 15.1982 63.0866 14.8542 63.4602 14.5428C64.1422 13.9744 64.8469 13.5731 65.5051 13.2894H65.4615C65.0937 13.2894 64.7329 13.1619 64.4643 12.9108C64.4623 12.9088 64.4604 12.9078 64.4594 12.9059C63.8091 12.293 63.8379 11.3371 63.8508 11.1513L63.8547 5.12036H60.5045V10.9891C60.4668 11.689 60.5114 13.7817 62.1588 15.3336C62.246 15.4157 62.3382 15.4918 62.4314 15.5679L62.4304 15.5689Z" fill="white"/>
<path d="M72.0589 5.12134H68.7086V11.2748C68.7017 11.5714 68.6264 12.3869 68.0277 12.9167C67.9504 12.9849 67.8671 13.0472 67.7779 13.1016C67.6045 13.2083 67.4102 13.2765 67.2109 13.321C66.2951 13.5237 65.0115 13.9764 63.8191 14.9699C63.3245 15.3821 62.8903 15.8556 62.5117 16.3755C62.2421 16.7788 62.031 17.2098 61.8952 17.6675C61.2231 19.9272 62.2381 21.752 62.3551 21.9527C63.1124 23.2427 64.2493 23.8565 64.8578 24.1076C65.0026 24.1669 65.855 24.4981 66.9612 24.4981C67.6619 24.4981 68.4648 24.3646 69.2528 23.9455C71.1797 22.9204 72.0579 20.8742 72.0579 19.4063V5.12134H72.0589ZM68.7086 19.4083C68.7086 20.9207 66.7907 21.6403 65.6845 20.7299C65.0085 20.1734 64.8202 19.1295 65.2167 18.3575C65.5685 17.6724 66.3645 17.2444 67.0553 16.9815C67.5866 16.7798 68.1456 16.6533 68.7096 16.5851C68.7096 16.5851 68.7096 19.4013 68.7096 19.4083H68.7086Z" fill="white"/>
</g>
<defs>
<clipPath id="clip0_989_9828">
<rect width="76" height="25" fill="white"/>
</clipPath>
</defs>
</svg>
