<svg width="12" height="13" viewBox="0 0 12 13" fill="none" xmlns="http://www.w3.org/2000/svg">
<path d="M3.75 2.28809H7.3C8.4201 2.28809 8.98016 2.28809 9.40798 2.50607C9.7843 2.69782 10.0903 3.00378 10.282 3.3801C10.5 3.80793 10.5 4.36798 10.5 5.48809V9.03809M3.1 11.2881H7.15C7.71005 11.2881 7.99008 11.2881 8.20399 11.1791C8.39215 11.0832 8.54513 10.9302 8.64101 10.7421C8.75 10.5282 8.75 10.2481 8.75 9.68809V5.63809C8.75 5.07803 8.75 4.79801 8.64101 4.5841C8.54513 4.39593 8.39215 4.24295 8.20399 4.14708C7.99008 4.03809 7.71005 4.03809 7.15 4.03809H3.1C2.53995 4.03809 2.25992 4.03809 2.04601 4.14708C1.85785 4.24295 1.70487 4.39593 1.60899 4.5841C1.5 4.79801 1.5 5.07803 1.5 5.63809V9.68809C1.5 10.2481 1.5 10.5282 1.60899 10.7421C1.70487 10.9302 1.85785 11.0832 2.04601 11.1791C2.25992 11.2881 2.53995 11.2881 3.1 11.2881Z" stroke="#236FFF" stroke-linecap="round" stroke-linejoin="round"/>
</svg>
