<svg width="16" height="17" viewBox="0 0 16 17" fill="none" xmlns="http://www.w3.org/2000/svg">
<g clip-path="url(#clip0_949_19138)">
<path d="M1.33331 5.81423C1.33331 5.58068 1.33331 5.46391 1.34306 5.36555C1.43705 4.41692 2.18749 3.66648 3.13612 3.57249C3.23448 3.56274 3.35755 3.56274 3.6037 3.56274C3.69855 3.56274 3.74597 3.56274 3.78624 3.56031C4.30039 3.52917 4.75061 3.20466 4.94274 2.72674C4.95779 2.68932 4.97185 2.64713 4.99998 2.56274C5.02811 2.47836 5.04217 2.43617 5.05722 2.39875C5.24935 1.92083 5.69957 1.59632 6.21372 1.56518C6.25399 1.56274 6.29846 1.56274 6.38741 1.56274H9.61255C9.7015 1.56274 9.74597 1.56274 9.78624 1.56518C10.3004 1.59632 10.7506 1.92083 10.9427 2.39875C10.9578 2.43617 10.9719 2.47836 11 2.56274C11.0281 2.64713 11.0422 2.68932 11.0572 2.72674C11.2493 3.20466 11.6996 3.52917 12.2137 3.56031C12.254 3.56274 12.3014 3.56274 12.3963 3.56274C12.6424 3.56274 12.7655 3.56274 12.8638 3.57249C13.8125 3.66648 14.5629 4.41692 14.6569 5.36555C14.6666 5.46391 14.6666 5.58068 14.6666 5.81423V11.0294C14.6666 12.1495 14.6666 12.7096 14.4487 13.1374C14.2569 13.5137 13.951 13.8197 13.5746 14.0114C13.1468 14.2294 12.5868 14.2294 11.4666 14.2294H4.53331C3.41321 14.2294 2.85316 14.2294 2.42533 14.0114C2.04901 13.8197 1.74305 13.5137 1.5513 13.1374C1.33331 12.7096 1.33331 12.1495 1.33331 11.0294V5.81423Z" stroke="#D2D3D6" stroke-width="1.2" stroke-linecap="round" stroke-linejoin="round"/>
<path d="M7.99998 11.2294C9.47274 11.2294 10.6666 10.0355 10.6666 8.56274C10.6666 7.08998 9.47274 5.89608 7.99998 5.89608C6.52722 5.89608 5.33331 7.08998 5.33331 8.56274C5.33331 10.0355 6.52722 11.2294 7.99998 11.2294Z" stroke="#D2D3D6" stroke-width="1.2" stroke-linecap="round" stroke-linejoin="round"/>
</g>
<defs>
<clipPath id="clip0_949_19138">
<rect width="16" height="16" fill="white" transform="translate(0 0.22937)"/>
</clipPath>
</defs>
</svg>
