<svg width="16" height="17" viewBox="0 0 16 17" fill="none" xmlns="http://www.w3.org/2000/svg">
<g clip-path="url(#clip0_949_19180)">
<path d="M1.33331 5.69801C1.33331 5.46447 1.33331 5.3477 1.34306 5.24934C1.43705 4.30071 2.18749 3.55027 3.13612 3.45628C3.23448 3.44653 3.35755 3.44653 3.6037 3.44653C3.69855 3.44653 3.74597 3.44653 3.78624 3.44409C4.30039 3.41296 4.75061 3.08845 4.94274 2.61053C4.95779 2.57311 4.97185 2.53091 4.99998 2.44653C5.02811 2.36215 5.04217 2.31996 5.05722 2.28253C5.24935 1.80462 5.69957 1.48011 6.21372 1.44897C6.25399 1.44653 6.29846 1.44653 6.38741 1.44653H9.61255C9.7015 1.44653 9.74597 1.44653 9.78624 1.44897C10.3004 1.48011 10.7506 1.80462 10.9427 2.28253C10.9578 2.31996 10.9719 2.36215 11 2.44653C11.0281 2.53091 11.0422 2.57311 11.0572 2.61053C11.2493 3.08845 11.6996 3.41296 12.2137 3.44409C12.254 3.44653 12.3014 3.44653 12.3963 3.44653C12.6424 3.44653 12.7655 3.44653 12.8638 3.45628C13.8125 3.55027 14.5629 4.30071 14.6569 5.24934C14.6666 5.3477 14.6666 5.46447 14.6666 5.69801V10.9132C14.6666 12.0333 14.6666 12.5934 14.4487 13.0212C14.2569 13.3975 13.951 13.7035 13.5746 13.8952C13.1468 14.1132 12.5868 14.1132 11.4666 14.1132H4.53331C3.41321 14.1132 2.85316 14.1132 2.42533 13.8952C2.04901 13.7035 1.74305 13.3975 1.5513 13.0212C1.33331 12.5934 1.33331 12.0333 1.33331 10.9132V5.69801Z" stroke="#236FFF" stroke-width="1.2" stroke-linecap="round" stroke-linejoin="round"/>
<path d="M7.99998 11.1132C9.47274 11.1132 10.6666 9.91929 10.6666 8.44653C10.6666 6.97377 9.47274 5.77987 7.99998 5.77987C6.52722 5.77987 5.33331 6.97377 5.33331 8.44653C5.33331 9.91929 6.52722 11.1132 7.99998 11.1132Z" stroke="#236FFF" stroke-width="1.2" stroke-linecap="round" stroke-linejoin="round"/>
</g>
<defs>
<clipPath id="clip0_949_19180">
<rect width="16" height="16" fill="white" transform="translate(0 0.113281)"/>
</clipPath>
</defs>
</svg>
