<svg width="25" height="24" viewBox="0 0 25 24" fill="none" xmlns="http://www.w3.org/2000/svg">
<path d="M11.1992 4.5H14.1992C14.1992 4.10218 14.0412 3.72064 13.7599 3.43934C13.4786 3.15804 13.097 3 12.6992 3C12.3014 3 11.9199 3.15804 11.6386 3.43934C11.3573 3.72064 11.1992 4.10218 11.1992 4.5ZM9.69922 4.5C9.69922 3.70435 10.0153 2.94129 10.5779 2.37868C11.1405 1.81607 11.9036 1.5 12.6992 1.5C13.4949 1.5 14.2579 1.81607 14.8205 2.37868C15.3831 2.94129 15.6992 3.70435 15.6992 4.5H21.6992C21.8981 4.5 22.0889 4.57902 22.2295 4.71967C22.3702 4.86032 22.4492 5.05109 22.4492 5.25C22.4492 5.44891 22.3702 5.63968 22.2295 5.78033C22.0889 5.92098 21.8981 6 21.6992 6H20.8532L19.0457 19.257C18.9231 20.1554 18.4792 20.979 17.7961 21.5752C17.113 22.1714 16.2369 22.5 15.3302 22.5H10.0682C9.16149 22.5 8.28548 22.1714 7.60237 21.5752C6.91926 20.979 6.47531 20.1554 6.35272 19.257L4.54522 6H3.69922C3.50031 6 3.30954 5.92098 3.16889 5.78033C3.02824 5.63968 2.94922 5.44891 2.94922 5.25C2.94922 5.05109 3.02824 4.86032 3.16889 4.71967C3.30954 4.57902 3.50031 4.5 3.69922 4.5H9.69922ZM11.1992 9.75C11.1992 9.55109 11.1202 9.36032 10.9795 9.21967C10.8389 9.07902 10.6481 9 10.4492 9C10.2503 9 10.0595 9.07902 9.91889 9.21967C9.77824 9.36032 9.69922 9.55109 9.69922 9.75V17.25C9.69922 17.4489 9.77824 17.6397 9.91889 17.7803C10.0595 17.921 10.2503 18 10.4492 18C10.6481 18 10.8389 17.921 10.9795 17.7803C11.1202 17.6397 11.1992 17.4489 11.1992 17.25V9.75ZM14.9492 9C15.1481 9 15.3389 9.07902 15.4795 9.21967C15.6202 9.36032 15.6992 9.55109 15.6992 9.75V17.25C15.6992 17.4489 15.6202 17.6397 15.4795 17.7803C15.3389 17.921 15.1481 18 14.9492 18C14.7503 18 14.5595 17.921 14.4189 17.7803C14.2782 17.6397 14.1992 17.4489 14.1992 17.25V9.75C14.1992 9.55109 14.2782 9.36032 14.4189 9.21967C14.5595 9.07902 14.7503 9 14.9492 9ZM7.83922 19.0545C7.91283 19.5934 8.17919 20.0875 8.58898 20.4451C8.99878 20.8028 9.52428 20.9999 10.0682 21H15.3302C15.8744 21.0003 16.4003 20.8033 16.8104 20.4456C17.2205 20.0879 17.4871 19.5937 17.5607 19.0545L19.3397 6H6.05872L7.83922 19.0545Z" fill="black"/>
</svg>
