<svg width="16" height="17" viewBox="0 0 16 17" fill="none" xmlns="http://www.w3.org/2000/svg">
<g clip-path="url(#clip0_949_19134)">
<path d="M7.99998 4.9506V15.6173M7.99998 4.9506H5.64284C5.29553 4.9506 4.96245 4.81013 4.71686 4.56008C4.47128 4.31003 4.33331 3.97089 4.33331 3.61727C4.33331 3.26365 4.47128 2.92451 4.71686 2.67446C4.96245 2.42441 5.29553 2.28394 5.64284 2.28394C7.47617 2.28394 7.99998 4.9506 7.99998 4.9506ZM7.99998 4.9506H10.3571C10.7044 4.9506 11.0375 4.81013 11.2831 4.56008C11.5287 4.31003 11.6666 3.97089 11.6666 3.61727C11.6666 3.26365 11.5287 2.92451 11.2831 2.67446C11.0375 2.42441 10.7044 2.28394 10.3571 2.28394C8.52379 2.28394 7.99998 4.9506 7.99998 4.9506ZM13.3333 8.28394V13.4839C13.3333 14.2307 13.3333 14.604 13.188 14.8893C13.0602 15.1401 12.8562 15.3441 12.6053 15.4719C12.3201 15.6173 11.9467 15.6173 11.2 15.6173L4.79998 15.6173C4.05324 15.6173 3.67987 15.6173 3.39466 15.4719C3.14378 15.3441 2.9398 15.1401 2.81197 14.8893C2.66665 14.604 2.66665 14.2307 2.66665 13.4839V8.28394M1.33331 6.01727L1.33331 7.21727C1.33331 7.59064 1.33331 7.77732 1.40598 7.91993C1.46989 8.04537 1.57188 8.14736 1.69732 8.21127C1.83993 8.28393 2.02661 8.28393 2.39998 8.28393L13.6 8.28394C13.9733 8.28394 14.16 8.28394 14.3026 8.21127C14.4281 8.14736 14.5301 8.04537 14.594 7.91993C14.6666 7.77732 14.6666 7.59064 14.6666 7.21727V6.01727C14.6666 5.6439 14.6666 5.45722 14.594 5.31461C14.5301 5.18917 14.4281 5.08718 14.3026 5.02326C14.16 4.9506 13.9733 4.9506 13.6 4.9506L2.39998 4.9506C2.02661 4.9506 1.83993 4.9506 1.69732 5.02326C1.57188 5.08718 1.46989 5.18917 1.40598 5.31461C1.33331 5.45722 1.33331 5.6439 1.33331 6.01727Z" stroke="#D2D3D6" stroke-width="1.2" stroke-linecap="round" stroke-linejoin="round"/>
</g>
<defs>
<clipPath id="clip0_949_19134">
<rect width="16" height="16" fill="white" transform="translate(0 0.950562)"/>
</clipPath>
</defs>
</svg>
