<svg width="16" height="17" viewBox="0 0 16 17" fill="none" xmlns="http://www.w3.org/2000/svg">
<g clip-path="url(#clip0_949_19175)">
<path d="M7.99998 4.1132V14.7799M7.99998 4.1132H5.64284C5.29553 4.1132 4.96245 3.97272 4.71686 3.72268C4.47128 3.47263 4.33331 3.13349 4.33331 2.77987C4.33331 2.42624 4.47128 2.08711 4.71686 1.83706C4.96245 1.58701 5.29553 1.44653 5.64284 1.44653C7.47617 1.44653 7.99998 4.1132 7.99998 4.1132ZM7.99998 4.1132H10.3571C10.7044 4.1132 11.0375 3.97272 11.2831 3.72268C11.5287 3.47263 11.6666 3.13349 11.6666 2.77987C11.6666 2.42624 11.5287 2.08711 11.2831 1.83706C11.0375 1.58701 10.7044 1.44653 10.3571 1.44653C8.52379 1.44653 7.99998 4.1132 7.99998 4.1132ZM13.3333 7.44653V12.6465C13.3333 13.3933 13.3333 13.7666 13.188 14.0519C13.0602 14.3027 12.8562 14.5067 12.6053 14.6345C12.3201 14.7799 11.9467 14.7799 11.2 14.7799L4.79998 14.7799C4.05324 14.7799 3.67987 14.7799 3.39466 14.6345C3.14378 14.5067 2.9398 14.3027 2.81197 14.0519C2.66665 13.7666 2.66665 13.3933 2.66665 12.6465V7.44653M1.33331 5.17987L1.33331 6.37987C1.33331 6.75323 1.33331 6.93992 1.40598 7.08253C1.46989 7.20797 1.57188 7.30995 1.69732 7.37387C1.83993 7.44653 2.02661 7.44653 2.39998 7.44653L13.6 7.44653C13.9733 7.44653 14.16 7.44653 14.3026 7.37387C14.4281 7.30995 14.5301 7.20797 14.594 7.08253C14.6666 6.93992 14.6666 6.75323 14.6666 6.37987V5.17987C14.6666 4.8065 14.6666 4.61981 14.594 4.47721C14.5301 4.35176 14.4281 4.24978 14.3026 4.18586C14.16 4.1132 13.9733 4.1132 13.6 4.1132L2.39998 4.1132C2.02661 4.1132 1.83993 4.1132 1.69732 4.18586C1.57188 4.24978 1.46989 4.35176 1.40598 4.47721C1.33331 4.61981 1.33331 4.8065 1.33331 5.17987Z" stroke="#236FFF" stroke-width="1.2" stroke-linecap="round" stroke-linejoin="round"/>
</g>
<defs>
<clipPath id="clip0_949_19175">
<rect width="16" height="16" fill="white" transform="translate(0 0.113281)"/>
</clipPath>
</defs>
</svg>
