<svg width="16" height="17" viewBox="0 0 16 17" fill="none" xmlns="http://www.w3.org/2000/svg">
<path d="M3.99998 13.7841H5.74017C5.96706 13.7841 6.19257 13.8111 6.41252 13.8651L8.25124 14.3119C8.65021 14.4091 9.06583 14.4186 9.46896 14.3403L11.502 13.9447C12.039 13.8401 12.533 13.583 12.9202 13.2063L14.3586 11.8071C14.7693 11.4082 14.7693 10.761 14.3586 10.3614C13.9887 10.0016 13.4031 9.96113 12.9847 10.2662L11.3084 11.4892C11.0683 11.6647 10.7762 11.7592 10.4757 11.7592H8.85698L9.88736 11.7592C10.4681 11.7592 10.9386 11.3016 10.9386 10.7366V10.5321C10.9386 10.063 10.6104 9.65398 10.1427 9.54058L8.55238 9.15383C8.29357 9.09106 8.02851 9.05934 7.76207 9.05934C7.11887 9.05934 5.95457 9.59188 5.95457 9.59188L3.99998 10.4093M1.33331 10.126L1.33331 13.9927C1.33331 14.366 1.33331 14.5527 1.40598 14.6953C1.46989 14.8208 1.57188 14.9228 1.69732 14.9867C1.83993 15.0593 2.02661 15.0593 2.39998 15.0593H2.93331C3.30668 15.0593 3.49337 15.0593 3.63597 14.9867C3.76141 14.9228 3.8634 14.8208 3.92732 14.6953C3.99998 14.5527 3.99998 14.366 3.99998 13.9927V10.126C3.99998 9.75264 3.99998 9.56595 3.92732 9.42334C3.8634 9.2979 3.76141 9.19592 3.63597 9.132C3.49337 9.05934 3.30668 9.05934 2.93331 9.05934H2.39998C2.02661 9.05934 1.83993 9.05934 1.69732 9.132C1.57188 9.19592 1.46989 9.2979 1.40598 9.42334C1.33331 9.56595 1.33331 9.75264 1.33331 10.126ZM11.4609 2.78751C11.063 1.95494 10.1457 1.51386 9.2536 1.93959C8.3615 2.36531 7.98144 3.37492 8.35495 4.26122C8.58578 4.80898 9.24714 5.87267 9.7187 6.60536C9.89294 6.87608 9.98006 7.01144 10.1073 7.09062C10.2165 7.15854 10.3531 7.19515 10.4816 7.19091C10.6314 7.18595 10.7745 7.11229 11.0607 6.96496C11.8355 6.56621 12.9401 5.97571 13.4139 5.61675C14.1805 5.03595 14.3704 3.96839 13.7964 3.15683C13.2225 2.34527 12.2218 2.26542 11.4609 2.78751Z" stroke="#D2D3D6" stroke-width="1.2" stroke-linecap="round" stroke-linejoin="round"/>
</svg>
