<svg width="16" height="17" viewBox="0 0 16 17" fill="none" xmlns="http://www.w3.org/2000/svg">
<path d="M3.99998 13.9467H5.74017C5.96706 13.9467 6.19257 13.9737 6.41252 14.0277L8.25124 14.4745C8.65021 14.5717 9.06583 14.5812 9.46896 14.5029L11.502 14.1073C12.039 14.0027 12.533 13.7456 12.9202 13.3689L14.3586 11.9697C14.7693 11.5708 14.7693 10.9236 14.3586 10.524C13.9887 10.1642 13.4031 10.1237 12.9847 10.4288L11.3084 11.6518C11.0683 11.8273 10.7762 11.9218 10.4757 11.9218H8.85698L9.88736 11.9218C10.4681 11.9218 10.9386 11.4642 10.9386 10.8992V10.6947C10.9386 10.2256 10.6104 9.81658 10.1427 9.70318L8.55238 9.31643C8.29357 9.25366 8.02851 9.22194 7.76207 9.22194C7.11887 9.22194 5.95457 9.75448 5.95457 9.75448L3.99998 10.5719M1.33331 10.2886L1.33331 14.1553C1.33331 14.5286 1.33331 14.7153 1.40598 14.8579C1.46989 14.9834 1.57188 15.0854 1.69732 15.1493C1.83993 15.2219 2.02661 15.2219 2.39998 15.2219H2.93331C3.30668 15.2219 3.49337 15.2219 3.63597 15.1493C3.76141 15.0854 3.8634 14.9834 3.92732 14.8579C3.99998 14.7153 3.99998 14.5286 3.99998 14.1553V10.2886C3.99998 9.91523 3.99998 9.72855 3.92732 9.58594C3.8634 9.4605 3.76141 9.35851 3.63597 9.2946C3.49337 9.22194 3.30668 9.22194 2.93331 9.22194H2.39998C2.02661 9.22194 1.83993 9.22194 1.69732 9.2946C1.57188 9.35851 1.46989 9.4605 1.40598 9.58594C1.33331 9.72855 1.33331 9.91523 1.33331 10.2886ZM11.4609 2.95011C11.063 2.11753 10.1457 1.67646 9.2536 2.10218C8.3615 2.52791 7.98144 3.53752 8.35495 4.42382C8.58578 4.97157 9.24714 6.03527 9.7187 6.76796C9.89294 7.03868 9.98006 7.17403 10.1073 7.25322C10.2165 7.32114 10.3531 7.35775 10.4816 7.3535C10.6314 7.34855 10.7745 7.27489 11.0607 7.12756C11.8355 6.72881 12.9401 6.1383 13.4139 5.77935C14.1805 5.19855 14.3704 4.13099 13.7964 3.31943C13.2225 2.50787 12.2218 2.42802 11.4609 2.95011Z" stroke="#236FFF" stroke-width="1.2" stroke-linecap="round" stroke-linejoin="round"/>
</svg>
