<svg width="16" height="17" viewBox="0 0 16 17" fill="none" xmlns="http://www.w3.org/2000/svg">
<path fill-rule="evenodd" clip-rule="evenodd" d="M4.51191 2.28772H11.488C12.0299 2.28771 12.467 2.28771 12.821 2.31663C13.1854 2.3464 13.5055 2.40931 13.8016 2.5602C14.272 2.79989 14.6545 3.18234 14.8942 3.65274C15.0451 3.94889 15.108 4.26898 15.1377 4.63341C15.1667 4.98734 15.1667 5.42442 15.1666 5.9663V11.6091C15.1667 12.151 15.1667 12.5881 15.1377 12.942C15.108 13.3065 15.0451 13.6266 14.8942 13.9227C14.6545 14.3931 14.272 14.7756 13.8016 15.0152C13.5055 15.1661 13.1854 15.229 12.821 15.2588C12.467 15.2877 12.0299 15.2877 11.4881 15.2877H4.5119C3.97001 15.2877 3.53294 15.2877 3.179 15.2588C2.81458 15.229 2.49448 15.1661 2.19834 15.0152C1.72793 14.7756 1.34548 14.3931 1.1058 13.9227C0.954903 13.6266 0.891997 13.3065 0.862222 12.942C0.833304 12.5881 0.833308 12.151 0.833313 11.6091V5.96632C0.833308 5.42442 0.833304 4.98735 0.862222 4.63341C0.891997 4.26898 0.954903 3.94889 1.1058 3.65274C1.34548 3.18234 1.72793 2.79989 2.19834 2.5602C2.49448 2.40931 2.81458 2.3464 3.179 2.31663C3.53294 2.28771 3.97002 2.28771 4.51191 2.28772ZM14.1666 9.58061V5.98772C14.1666 5.41942 14.1663 5.02326 14.1411 4.71484C14.1163 4.41226 14.0702 4.23841 14.0032 4.10673C13.8593 3.82449 13.6299 3.59502 13.3476 3.45121C13.216 3.38412 13.0421 3.33803 12.7395 3.31331C12.4311 3.28811 12.0349 3.28772 11.4666 3.28772H4.53331C3.96501 3.28772 3.56885 3.28811 3.26043 3.31331C2.95785 3.33803 2.78401 3.38412 2.65233 3.45121C2.37008 3.59502 2.14061 3.82449 1.9968 4.10673C1.92971 4.23841 1.88362 4.41226 1.8589 4.71484C1.8337 5.02326 1.83331 5.41942 1.83331 5.98772V11.5877C1.83331 12.156 1.8337 12.5522 1.8589 12.8606C1.88362 13.1632 1.92971 13.337 1.9968 13.4687C2.13732 13.7445 2.35963 13.9699 2.63304 14.1142L6.90453 9.84273C7.0259 9.72134 7.13738 9.60985 7.23818 9.52427C7.34686 9.43201 7.47557 9.34088 7.63946 9.28763C7.87378 9.2115 8.12618 9.2115 8.3605 9.28763C8.52438 9.34088 8.6531 9.43201 8.76178 9.52427C8.86259 9.60985 8.97407 9.72135 9.09545 9.84275L9.33331 10.0806L10.9045 8.5094C11.0259 8.38801 11.1374 8.27652 11.2382 8.19094C11.3469 8.09867 11.4756 8.00755 11.6395 7.9543C11.8738 7.87816 12.1262 7.87816 12.3605 7.9543C12.5244 8.00755 12.6531 8.09867 12.7618 8.19094C12.8626 8.27651 12.974 8.38799 13.0954 8.50937L14.1666 9.58061ZM8.40067 10.5622C8.26284 10.4243 8.18044 10.3425 8.1146 10.2866C8.07441 10.2525 8.05479 10.2409 8.0493 10.238C8.01717 10.228 7.98278 10.228 7.95065 10.238C7.94517 10.2409 7.92555 10.2525 7.88536 10.2866C7.81952 10.3425 7.73713 10.4243 7.59929 10.5622L3.87606 14.2854C4.06662 14.2876 4.28331 14.2877 4.53331 14.2877H11.4666C11.7166 14.2877 11.9333 14.2876 12.1239 14.2854L8.40067 10.5622ZM13.3669 14.1142L10.0404 10.7877L11.5993 9.22885C11.7371 9.09101 11.8195 9.00917 11.8854 8.95327C11.9255 8.91916 11.9452 8.90755 11.9507 8.90466C11.9828 8.89471 12.0172 8.89471 12.0493 8.90466C12.0548 8.90754 12.0744 8.91915 12.1146 8.95328C12.1804 9.00917 12.2628 9.09101 12.4007 9.22885L14.1666 10.9948V11.5877C14.1666 12.156 14.1663 12.5522 14.1411 12.8606C14.1163 13.1632 14.0702 13.337 14.0032 13.4687C13.8626 13.7445 13.6403 13.9699 13.3669 14.1142ZM11.9523 8.90387C11.9523 8.90388 11.952 8.90405 11.9513 8.90432L11.9523 8.90387ZM5.33331 5.95439C4.87308 5.95439 4.49998 6.32748 4.49998 6.78772C4.49998 7.24796 4.87308 7.62105 5.33331 7.62105C5.79355 7.62105 6.16665 7.24796 6.16665 6.78772C6.16665 6.32748 5.79355 5.95439 5.33331 5.95439ZM3.49998 6.78772C3.49998 5.7752 4.32079 4.95439 5.33331 4.95439C6.34584 4.95439 7.16665 5.7752 7.16665 6.78772C7.16665 7.80024 6.34584 8.62105 5.33331 8.62105C4.32079 8.62105 3.49998 7.80024 3.49998 6.78772Z" fill="#D2D3D6"/>
</svg>
