<svg width="16" height="17" viewBox="0 0 16 17" fill="none" xmlns="http://www.w3.org/2000/svg">
<path d="M5.46405 9.22286C3.41534 8.32463 2.05984 6.9373 2.00282 5.56667C1.9538 4.38722 2.55942 3.68678 2.55942 3.68678C2.65745 3.57346 3.15773 3.01797 3.94064 2.93316C5.50403 2.76352 6.61791 4.64132 6.64677 5.39877C6.66137 5.78184 6.49172 6.03177 6.49172 6.03177C6.44687 6.09782 6.30016 6.30674 6.02551 6.37209C5.64066 6.46351 5.33786 6.19272 5.30309 6.16039C5.08685 5.96017 5.04131 5.69633 5.02254 5.58892C4.87756 4.74909 5.59095 2.67592 7.13314 2.51811C7.91153 2.4385 8.51923 2.88588 8.64125 2.97557C8.64125 2.97557 9.40713 3.53939 9.64284 4.68061C9.75826 5.23887 9.65014 5.85727 9.35255 6.48645" stroke="#D2D3D6" stroke-width="1.2" stroke-linecap="round" stroke-linejoin="round"/>
<path d="M6.05479 7.69578C6.84187 6.60775 7.87614 6.40822 7.87614 6.40822C8.04371 6.37589 8.88155 6.23233 9.64083 6.70752C11.1569 7.65685 10.8295 10.1186 10.3215 10.8156C10.0646 11.1681 9.73712 11.2717 9.73712 11.2717C9.65056 11.2991 9.37209 11.3826 9.0811 11.2473C8.67296 11.0579 8.59335 10.6029 8.585 10.5497C8.53286 10.2184 8.67783 9.95074 8.73693 9.84159C9.19896 8.98924 11.296 7.63981 12.785 8.58497C13.5366 9.0619 13.7643 9.88956 13.8099 10.0554C13.8099 10.0554 14.097 11.0986 13.5036 12.2839C12.7165 13.8565 10.1491 14.6689 7.10574 14.3046C5.45787 11.7604 5.01739 9.13037 6.05479 7.69578Z" stroke="#D2D3D6" stroke-width="1.2" stroke-linecap="round" stroke-linejoin="round"/>
</svg>
