<svg width="16" height="17" viewBox="0 0 16 17" fill="none" xmlns="http://www.w3.org/2000/svg">
<path d="M3.34871 11.4786C4.13135 12.8031 5.84833 13.6087 8 13.6087C10.152 13.6087 11.8688 12.8029 12.656 11.4785C13.5324 11.4541 14.2669 11.0713 14.7827 10.4305C15.3056 9.78107 15.6 8.87187 15.6 7.81158C15.6 7.10473 15.4448 6.52077 15.1473 6.11074C14.8471 5.69698 14.4072 5.46824 13.8616 5.46824H12.8801C12.2816 4.12303 10.5581 3.40867 8 3.40867C5.44623 3.40867 3.72312 4.12322 3.1201 5.46824H2.13837C1.59284 5.46824 1.15291 5.69698 0.852679 6.11074C0.555159 6.52077 0.4 7.10473 0.4 7.81158C0.4 8.87187 0.69444 9.78107 1.21727 10.4305C1.73404 11.0725 2.47023 11.4555 3.34871 11.4786ZM8 12.1983C6.83229 12.1983 5.82947 11.9273 5.12203 11.487C4.41462 11.0467 4.01127 10.4441 4.01127 9.77609V6.60753C4.01127 6.06049 4.34401 5.61875 5.01738 5.30812C5.69388 4.99606 6.69938 4.8254 8 4.8254C9.30304 4.8254 10.3098 4.99606 10.9868 5.30814C11.6608 5.61877 11.9935 6.06051 11.9935 6.60753V9.77609C11.9935 10.444 11.5891 11.0466 10.8804 11.4869C10.1718 11.9273 9.16771 12.1983 8 12.1983ZM5.34395 7.18421C5.34395 7.35614 5.39678 7.51566 5.48678 7.63436C5.5768 7.7531 5.70851 7.83554 5.86195 7.83554H10.1477C10.3011 7.83554 10.4328 7.7531 10.5228 7.63436C10.6128 7.51566 10.6657 7.35614 10.6657 7.18421C10.6657 7.0145 10.6111 6.85522 10.521 6.73643C10.4313 6.61814 10.3 6.53288 10.1477 6.53288H5.86195C5.70761 6.53288 5.57602 6.61778 5.48655 6.73674C5.39697 6.85583 5.34395 7.0151 5.34395 7.18421ZM13.1112 9.77609V6.83427H13.8616C14.0688 6.83427 14.2253 6.92089 14.334 7.07986C14.4459 7.2434 14.5111 7.49031 14.5111 7.81158C14.5111 8.98325 13.9448 9.83808 13.0995 10.0553C13.1068 9.96237 13.1112 9.868 13.1112 9.77609ZM1.48885 7.81158C1.48885 7.49031 1.55412 7.2434 1.66598 7.07986C1.77471 6.92089 1.93123 6.83427 2.13837 6.83427H2.88879V9.77609C2.88879 9.868 2.89321 9.96236 2.90053 10.0553C2.05521 9.83808 1.48885 8.98325 1.48885 7.81158ZM5.34395 9.56697C5.34395 9.73599 5.39693 9.89544 5.48678 10.0139C5.57632 10.132 5.70838 10.2157 5.86323 10.212H10.1463C10.2992 10.2157 10.4311 10.1317 10.5208 10.0143C10.6111 9.89605 10.6657 9.7366 10.6657 9.56697C10.6657 9.39503 10.6128 9.23552 10.5228 9.11682C10.4328 8.99808 10.3011 8.91564 10.1477 8.91564H5.86195C5.70851 8.91564 5.5768 8.99808 5.48678 9.11682C5.39678 9.23552 5.34395 9.39503 5.34395 9.56697Z" fill="#D2D3D6" stroke="#D2D3D6" stroke-width="0.2"/>
</svg>
