<svg width="16" height="17" viewBox="0 0 16 17" fill="none" xmlns="http://www.w3.org/2000/svg">
<path d="M3.49357 11.4927L3.46483 11.4421H3.40661H3.38814C2.55379 11.4297 1.86002 11.073 1.37288 10.4678C0.884333 9.86096 0.599817 8.99893 0.599817 7.9743C0.599817 7.29332 0.749751 6.75561 1.01437 6.39092C1.27628 6.02997 1.65553 5.83096 2.13819 5.83096H3.1856H3.25223L3.27789 5.76946C3.80528 4.50526 5.42247 3.77139 7.99982 3.77139C10.5822 3.77139 12.199 4.50535 12.7216 5.76917L12.7472 5.83096H12.814H13.8614C14.3441 5.83096 14.7234 6.02997 14.9853 6.39092C15.2499 6.75561 15.3998 7.29332 15.3998 7.9743C15.3998 8.99893 15.1153 9.86096 14.6268 10.4678C14.1396 11.073 13.4458 11.4297 12.6115 11.4421H12.5978H12.5398L12.511 11.4925C11.7855 12.7623 10.1357 13.5714 7.99982 13.5714C5.86381 13.5714 4.21428 12.7622 3.49357 11.4927ZM13.011 6.79699H12.911V6.89699V9.93881C12.911 10.0673 12.9017 10.203 12.8876 10.3336L12.8733 10.4658L13.0042 10.4429C14.048 10.2607 14.711 9.26594 14.711 7.9743C14.711 7.63017 14.6417 7.33843 14.4989 7.12967C14.353 6.91633 14.1348 6.79699 13.8614 6.79699H13.011ZM3.08861 6.89699V6.79699H2.98861H2.13819C1.86487 6.79699 1.64663 6.91633 1.50072 7.12967C1.35793 7.33843 1.28867 7.63017 1.28867 7.9743C1.28867 9.26594 1.95161 10.2607 2.99543 10.4429L3.12636 10.4658L3.11205 10.3336C3.0979 10.203 3.08861 10.0673 3.08861 9.93881V6.89699ZM5.86176 10.1747V10.1746L5.85902 10.1747C5.78388 10.1768 5.70749 10.137 5.64597 10.0558C5.58447 9.97473 5.54376 9.85851 5.54376 9.72969C5.54376 9.59744 5.58462 9.48129 5.64597 9.40037C5.70729 9.31949 5.78458 9.27836 5.86176 9.27836H10.1475C10.2247 9.27836 10.302 9.31949 10.3633 9.40037C10.4246 9.48129 10.4655 9.59744 10.4655 9.72969C10.4655 9.8579 10.4239 9.97412 10.3617 10.0555C10.2992 10.1374 10.2226 10.1768 10.1503 10.1747L10.1503 10.1747H10.1475H5.86176ZM3.81109 9.93881C3.81109 10.6967 4.27017 11.3552 5.01616 11.8195C5.76211 12.2838 6.80366 12.561 7.99982 12.561C9.19598 12.561 10.2387 12.2838 10.9858 11.8195C11.7329 11.3553 12.1933 10.6968 12.1933 9.93881V6.77025C12.1933 6.11954 11.7886 5.62022 11.0704 5.28922C10.3553 4.95966 9.31529 4.78812 7.99982 4.78812C6.68672 4.78812 5.64787 4.95966 4.93343 5.28923C4.21587 5.62024 3.81109 6.11956 3.81109 6.77025V9.93881ZM5.86176 7.79826C5.78458 7.79826 5.70729 7.75712 5.64597 7.67624C5.58462 7.59532 5.54376 7.47917 5.54376 7.34693C5.54376 7.21819 5.58443 7.10179 5.6462 7.01968C5.70806 6.93743 5.78547 6.89559 5.86176 6.89559H10.1475C10.221 6.89559 10.2986 6.93707 10.3615 7.01998C10.424 7.1024 10.4655 7.21879 10.4655 7.34693C10.4655 7.47917 10.4246 7.59532 10.3633 7.67624C10.302 7.75712 10.2247 7.79826 10.1475 7.79826H5.86176Z" fill="#236FFF" stroke="#236FFF" stroke-width="0.2"/>
</svg>
