<svg width="16" height="17" viewBox="0 0 16 17" fill="none" xmlns="http://www.w3.org/2000/svg">
<path d="M5.46405 9.10677C3.41534 8.20854 2.05984 6.82122 2.00282 5.45058C1.9538 4.27113 2.55942 3.57069 2.55942 3.57069C2.65745 3.45737 3.15773 2.90189 3.94064 2.81707C5.50403 2.64743 6.61791 4.52524 6.64677 5.28268C6.66137 5.66575 6.49172 5.91569 6.49172 5.91569C6.44687 5.98173 6.30016 6.19065 6.02551 6.256C5.64066 6.34742 5.33786 6.07663 5.30309 6.0443C5.08685 5.84408 5.04131 5.58024 5.02254 5.47283C4.87756 4.633 5.59095 2.55984 7.13314 2.40202C7.91153 2.32242 8.51923 2.76979 8.64125 2.85948C8.64125 2.85948 9.40713 3.42331 9.64284 4.56452C9.75826 5.12278 9.65014 5.74119 9.35255 6.37036" stroke="#236FFF" stroke-width="1.2" stroke-linecap="round" stroke-linejoin="round"/>
<path d="M6.05479 7.57969C6.84187 6.49166 7.87614 6.29213 7.87614 6.29213C8.04371 6.25981 8.88155 6.11624 9.64083 6.59143C11.1569 7.54076 10.8295 10.0025 10.3215 10.6995C10.0646 11.052 9.73712 11.1556 9.73712 11.1556C9.65056 11.183 9.37209 11.2665 9.0811 11.1312C8.67296 10.9418 8.59335 10.4868 8.585 10.4336C8.53286 10.1023 8.67783 9.83465 8.73693 9.7255C9.19896 8.87315 11.296 7.52372 12.785 8.46888C13.5366 8.94581 13.7643 9.77347 13.8099 9.93928C13.8099 9.93928 14.097 10.9825 13.5036 12.1678C12.7165 13.7404 10.1491 14.5528 7.10574 14.1885C5.45787 11.6443 5.01739 9.01429 6.05479 7.57969Z" stroke="#236FFF" stroke-width="1.2" stroke-linecap="round" stroke-linejoin="round"/>
</svg>
