<svg width="16" height="17" viewBox="0 0 16 17" fill="none" xmlns="http://www.w3.org/2000/svg">
<path d="M8.66669 10.1213L6.66669 8.12134M10.0069 3.12134V2.12134M12.6331 4.16178L13.3403 3.45467M12.6331 9.45467L13.3403 10.1618M7.34026 4.16178L6.63315 3.45467M13.6736 6.788H14.6736M4.0876 14.7004L10.2458 8.54225C10.5098 8.27824 10.6418 8.14624 10.6912 7.99402C10.7348 7.86012 10.7348 7.71589 10.6912 7.58199C10.6418 7.42977 10.5098 7.29777 10.2458 7.03376L9.75427 6.54225C9.49026 6.27824 9.35825 6.14624 9.20603 6.09678C9.07214 6.05327 8.92791 6.05327 8.79401 6.09678C8.64179 6.14624 8.50978 6.27824 8.24577 6.54225L2.0876 12.7004C1.82359 12.9644 1.69158 13.0964 1.64213 13.2487C1.59862 13.3826 1.59862 13.5268 1.64213 13.6607C1.69158 13.8129 1.82359 13.9449 2.0876 14.2089L2.57911 14.7004C2.84312 14.9644 2.97512 15.0964 3.12734 15.1459C3.26124 15.1894 3.40547 15.1894 3.53937 15.1459C3.69158 15.0964 3.82359 14.9644 4.0876 14.7004Z" stroke="#D2D3D6" stroke-width="1.2" stroke-linecap="round" stroke-linejoin="round"/>
</svg>
