<svg width="16" height="17" viewBox="0 0 16 17" fill="none" xmlns="http://www.w3.org/2000/svg">
<path d="M8.66669 10.0051L6.66669 8.00513M10.0069 3.00513V2.00513M12.6331 4.04557L13.3403 3.33846M12.6331 9.33846L13.3403 10.0456M7.34026 4.04557L6.63315 3.33846M13.6736 6.67179H14.6736M4.0876 14.5842L10.2458 8.42604C10.5098 8.16203 10.6418 8.03002 10.6912 7.87781C10.7348 7.74391 10.7348 7.59968 10.6912 7.46578C10.6418 7.31356 10.5098 7.18156 10.2458 6.91755L9.75427 6.42604C9.49026 6.16203 9.35825 6.03002 9.20603 5.98057C9.07214 5.93706 8.92791 5.93706 8.79401 5.98057C8.64179 6.03002 8.50978 6.16203 8.24577 6.42604L2.0876 12.5842C1.82359 12.8482 1.69158 12.9802 1.64213 13.1324C1.59862 13.2663 1.59862 13.4106 1.64213 13.5445C1.69158 13.6967 1.82359 13.8287 2.0876 14.0927L2.57911 14.5842C2.84312 14.8482 2.97512 14.9802 3.12734 15.0297C3.26124 15.0732 3.40547 15.0732 3.53937 15.0297C3.69158 14.9802 3.82359 14.8482 4.0876 14.5842Z" stroke="#236FFF" stroke-width="1.2" stroke-linecap="round" stroke-linejoin="round"/>
</svg>
