<svg width="25" height="24" viewBox="0 0 25 24" fill="none" xmlns="http://www.w3.org/2000/svg">
<path d="M12.7112 11.1872C14.6962 11.1872 16.3053 9.57832 16.3053 7.59362C16.3053 5.60892 14.6962 4 12.7112 4C10.7263 4 9.11719 5.60892 9.11719 7.59362C9.11719 9.57832 10.7263 11.1872 12.7112 11.1872Z" stroke="#91B7FF" stroke-width="1.5" stroke-miterlimit="10"/>
<path d="M20.3128 21.0391C14.7762 21.013 9.23967 20.987 3.70312 20.9609C3.91537 16.8693 6.05187 13.807 8.58834 13.3565C9.7987 13.1417 11.1817 13.5067 12.1959 14.2581C13.6133 15.3082 14.6485 17.3636 13.9997 18.456C13.7567 18.8653 13.2525 19.1808 12.7367 19.1954C12.125 19.2126 11.5467 18.8054 11.2943 18.3439C10.6717 17.2051 11.7688 15.2566 13.0981 14.2586C14.0946 13.5104 15.4781 13.1016 16.7057 13.3101C19.2349 13.7398 21.3974 16.8386 21.5727 20.9964" stroke="#91B7FF" stroke-width="1.5" stroke-linecap="round" stroke-linejoin="round"/>
</svg>
