<svg width="89" height="44" viewBox="0 0 89 44" fill="none" xmlns="http://www.w3.org/2000/svg">
<path d="M12.0859 5.53116C13.2123 6.41101 14.0879 7.6204 14.7017 8.88686C14.9646 9.37255 15.167 9.80547 15.2902 10.1156C15.6895 11.1161 16.2351 12.4859 15.7632 13.1935C15.7016 13.2861 15.6169 13.3798 15.5146 13.467C14.9646 13.9344 14.1176 13.9344 13.5676 13.467C13.4653 13.3798 13.3806 13.2861 13.319 13.1935C12.8482 12.487 13.3938 11.1172 13.792 10.1156C13.8833 9.88624 14.0208 9.5847 14.1913 9.2487C13.8569 8.53686 13.44 7.87132 12.9428 7.25963C12.5864 6.82132 12.186 6.41424 11.7537 6.03947C10.9232 7.35763 10.4469 8.49486 10.3281 8.79316C9.71536 10.3321 8.68906 12.907 10.2049 15.1815C11.1168 16.5502 12.7459 17.4409 14.4586 17.5076C14.4861 17.5087 14.5147 17.5098 14.5422 17.5098C14.5741 17.5098 14.6049 17.5098 14.6368 17.5076C16.3451 17.4365 17.9687 16.547 18.8784 15.1815C20.3942 12.907 19.3679 10.331 18.7541 8.79209C18.6199 8.45609 18.0325 7.05178 16.9908 5.52255C17.697 4.94963 18.4791 4.56947 19.2997 4.60178C19.6858 4.61363 20.2842 4.71701 20.9431 5.14024C22.8901 6.3884 22.8615 10.5981 22.8307 15.0555C22.8263 15.6467 22.823 16.2455 22.823 16.8518H26.541C26.541 16.2541 26.5454 15.6629 26.5487 15.0802C26.5861 9.60409 26.6213 4.43055 22.9803 2.09686C21.8869 1.3947 20.6549 1.00378 19.4174 0.965011C17.488 0.911165 15.86 1.68224 14.5411 2.77101C13.2233 1.68332 11.6074 0.909011 9.66476 0.965011C8.42836 1.00378 7.19746 1.3947 6.10296 2.09578C2.46196 4.43055 2.49826 9.60409 2.53456 15.0802C2.53896 15.6629 2.54226 16.2541 2.54226 16.8507H6.26026C6.26026 16.2455 6.25586 15.6467 6.25256 15.0555C6.22176 10.5981 6.19316 6.3884 8.14016 5.14024C8.80016 4.71701 9.39856 4.61363 9.78356 4.60178C10.6064 4.57593 11.3126 4.95286 11.9484 5.42563C11.9946 5.46009 12.0408 5.49455 12.0859 5.53009V5.53116Z" fill="#E8E9EA"/>
<path d="M34.3458 17.1321C33.1853 17.1321 32.1337 16.8812 31.1888 16.3783C30.2439 15.8753 29.4937 15.1807 28.936 14.2923C28.3783 13.4049 28.0989 12.3926 28.0989 11.2564C28.0989 10.1203 28.3783 9.08749 28.936 8.19903C29.4937 7.31057 30.2439 6.61165 31.1888 6.10226C32.1326 5.59288 33.1853 5.33765 34.3458 5.33765C35.5063 5.33765 36.5799 5.59288 37.5248 6.10226C38.4686 6.61165 39.2199 7.31057 39.7776 8.19903C40.3353 9.08749 40.6136 10.0987 40.6136 11.2349C40.6136 12.371 40.3353 13.4049 39.7776 14.2923C39.2199 15.1807 38.4642 15.8753 37.5127 16.3783C36.5612 16.8812 35.5052 17.1321 34.3447 17.1321H34.3458ZM34.3458 13.7689C34.8364 13.7689 35.261 13.6601 35.6174 13.4415C35.9749 13.2229 36.2499 12.9213 36.4424 12.5347C36.636 12.1492 36.7328 11.7152 36.7328 11.2349C36.7328 10.7546 36.636 10.3033 36.4424 9.92426C36.2488 9.54626 35.9738 9.24688 35.6174 9.02934C35.261 8.81072 34.8364 8.70195 34.3458 8.70195C33.8552 8.70195 33.4537 8.81072 33.0962 9.02934C32.7387 9.24795 32.4604 9.54626 32.2591 9.92426C32.0589 10.3033 31.9577 10.7406 31.9577 11.2349C31.9577 11.7292 32.0578 12.1492 32.2591 12.5347C32.4604 12.9203 32.7387 13.2229 33.0962 13.4415C33.4537 13.6601 33.8695 13.7689 34.3458 13.7689Z" fill="#E8E9EA"/>
<path d="M85.0406 18.3324C86.0503 18.3324 86.8688 17.531 86.8688 16.5425C86.8688 15.554 86.0503 14.7527 85.0406 14.7527C84.0309 14.7527 83.2124 15.554 83.2124 16.5425C83.2124 17.531 84.0309 18.3324 85.0406 18.3324Z" fill="#E8E9EA"/>
<path d="M50.4556 6.67096V10.325C50.4677 10.732 50.4369 11.1467 50.3742 11.5537C50.3434 11.9307 50.2576 12.2774 50.1102 12.5897C49.9243 12.9828 49.6559 13.2887 49.3072 13.5073C48.9585 13.7259 48.5449 13.8347 48.0697 13.8347C47.5945 13.8347 47.2029 13.7259 46.8542 13.5073C46.5055 13.2887 46.2338 12.9828 46.0402 12.5897C45.8466 12.1967 45.7498 11.753 45.7498 11.2576C45.7498 10.7622 45.8466 10.3443 46.0402 9.95773C46.2338 9.5722 46.5044 9.26958 46.8542 9.05096C47.204 8.83235 47.6088 8.72358 48.0697 8.72358C48.5306 8.72358 48.9541 8.83235 49.2962 9.05096C49.5052 9.1845 49.6823 9.35358 49.8363 9.54958V6.13896C49.7461 6.06789 49.6526 6.00112 49.5525 5.93973C49.2324 5.74373 48.8837 5.59835 48.5042 5.50358C48.1247 5.40881 47.7199 5.36143 47.2887 5.36143C46.2481 5.36143 45.3109 5.59835 44.4782 6.07112C43.6455 6.54389 42.991 7.2105 42.5147 8.06989C42.0384 8.92927 41.8008 9.93404 41.8008 11.0831C41.8008 11.9565 41.946 12.7653 42.2364 13.5073C42.5268 14.2503 42.9459 14.8943 43.497 15.4403C44.047 15.9863 44.7048 16.4085 45.4715 16.7068C46.2371 17.0051 47.1039 17.1548 48.0708 17.1548C49.3347 17.1548 50.4358 16.8996 51.3719 16.3902C52.3091 15.8808 53.0373 15.1668 53.5587 14.2503C54.079 13.3328 54.3397 12.2623 54.3397 11.04V0.927734H50.4578V6.67096H50.4556Z" fill="#E8E9EA"/>
<path d="M64.1615 0.927734V6.67097V10.325C64.1736 10.7277 64.1428 11.138 64.0823 11.5408C64.0526 11.9231 63.9668 12.2731 63.8172 12.5897C63.6313 12.9828 63.3629 13.2887 63.0142 13.5073C62.6655 13.7259 62.2519 13.8347 61.7767 13.8347C61.3015 13.8347 60.9099 13.7259 60.5612 13.5073C60.2125 13.2887 59.9408 12.9828 59.7472 12.5897C59.5536 12.1967 59.4568 11.753 59.4568 11.2576C59.4568 10.7622 59.5536 10.3443 59.7472 9.95773C59.9408 9.5722 60.2114 9.26958 60.5612 9.05097C60.911 8.83235 61.3158 8.72358 61.7767 8.72358C62.2376 8.72358 62.6611 8.83235 63.0032 9.05097C63.2122 9.1845 63.3893 9.3525 63.5422 9.54743V6.13681C63.452 6.06681 63.3585 5.99897 63.2595 5.93758C62.9394 5.74158 62.5907 5.5962 62.2112 5.50143C61.8317 5.40666 61.4269 5.35927 60.9957 5.35927C59.9551 5.35927 59.0179 5.5962 58.1852 6.06896C57.3525 6.54173 56.698 7.20835 56.2217 8.06773C55.7454 8.92712 55.5078 9.93189 55.5078 11.081C55.5078 11.9543 55.653 12.7631 55.9434 13.5051C56.2338 14.2482 56.6529 14.8922 57.204 15.4382C57.754 15.9842 58.4118 16.4064 59.1785 16.7047C59.9441 17.003 60.8109 17.1527 61.7778 17.1527C63.0417 17.1527 64.1428 16.8974 65.0789 16.388C66.0161 15.8787 66.7443 15.1647 67.2657 14.2482C67.786 13.3307 68.0467 12.2602 68.0467 11.0379V0.927734H64.1648H64.1615Z" fill="#E8E9EA"/>
<path d="M71.8108 17.344C72.1584 16.9402 72.539 16.5654 72.9537 16.2262C73.7105 15.6069 74.4926 15.1697 75.223 14.8606H75.1746C74.7665 14.8606 74.3661 14.7217 74.068 14.4482C74.0658 14.446 74.0636 14.4449 74.0625 14.4428C73.3409 13.7751 73.3728 12.7337 73.3871 12.5312L73.3915 5.96094H69.6735V12.3546C69.6317 13.1171 69.6812 15.3969 71.5094 17.0877C71.6062 17.1771 71.7085 17.26 71.8119 17.3429L71.8108 17.344Z" fill="#E8E9EA"/>
<path d="M82.4954 5.96191H78.7774V12.6658C78.7697 12.9888 78.6861 13.8773 78.0217 14.4545C77.9359 14.5288 77.8435 14.5967 77.7445 14.6559C77.552 14.7722 77.3364 14.8465 77.1153 14.895C76.0989 15.1158 74.6744 15.609 73.3511 16.6913C72.8022 17.1404 72.3204 17.6562 71.9002 18.2227C71.601 18.6621 71.3667 19.1316 71.216 19.6302C70.4702 22.0921 71.5966 24.0801 71.7264 24.2987C72.5668 25.7041 73.8285 26.3728 74.5039 26.6464C74.6645 26.711 75.6105 27.0718 76.8381 27.0718C77.6158 27.0718 78.5068 26.9264 79.3813 26.4698C81.5197 25.353 82.4943 23.1238 82.4943 21.5245V5.96191H82.4954ZM78.7774 21.5256C78.7774 23.1733 76.6489 23.9573 75.4213 22.9655C74.6711 22.3591 74.4621 21.2219 74.9021 20.3808C75.2926 19.6345 76.1759 19.1682 76.9426 18.8818C77.5322 18.6621 78.1526 18.5242 78.7785 18.4499C78.7785 18.4499 78.7785 21.5181 78.7785 21.5256H78.7774Z" fill="#E8E9EA"/>
<path d="M15.4453 36V30.3438H18.875V30.9688H16.1484V32.8594H18.6953V33.4766H16.1484V35.375H18.9141V36H15.4453ZM19.6953 34.7969C19.6953 33.8242 20.5547 33.6016 21.2891 33.5469C21.5625 33.5273 22.2461 33.4883 22.4375 33.4844V33.1406C22.4375 32.6016 22.1172 32.2891 21.4766 32.2891C20.9414 32.2891 20.6172 32.5352 20.5234 32.8594H19.8203C19.9062 32.1758 20.5703 31.7031 21.5078 31.7031C22.0625 31.7031 23.1055 31.8672 23.1016 33.2031V36H22.4375V35.4219H22.4062C22.2656 35.707 21.8789 36.0977 21.1406 36.1016C20.3359 36.0977 19.6953 35.625 19.6953 34.7969ZM20.3672 34.8281C20.3711 35.2773 20.7422 35.5039 21.2578 35.5C22.0156 35.5039 22.4375 34.9961 22.4375 34.4609V34.0352C22.2383 34.0469 21.5703 34.0977 21.3672 34.1094C20.7578 34.1484 20.3711 34.3633 20.3672 34.8281ZM26.5391 32.8594C26.4453 32.5078 26.1758 32.2773 25.6797 32.2734C25.1562 32.2773 24.7852 32.5586 24.7812 32.9141C24.7852 33.1953 25.0117 33.3867 25.5078 33.5078L26.1406 33.6641C26.8984 33.8438 27.2695 34.2227 27.2734 34.8125C27.2695 35.5469 26.6719 36.0898 25.6094 36.0859C24.6562 36.0898 24.0898 35.6641 23.9766 34.8906H24.6797C24.7578 35.3047 25.0586 35.5039 25.5938 35.5C26.1992 35.5039 26.5781 35.25 26.5781 34.8516C26.5781 34.5508 26.3633 34.3555 25.8828 34.2422L25.2422 34.0938C24.5039 33.9219 24.1094 33.5195 24.1094 32.9531C24.1094 32.2266 24.7461 31.7031 25.6797 31.7031C26.5586 31.7031 27.1094 32.1719 27.1953 32.8594H26.5391ZM28.5781 37.5938C28.4336 37.5898 28.2891 37.5859 28.2031 37.5781V36.9766C28.2734 36.9844 28.4258 36.9883 28.5312 36.9922C28.8047 36.9883 29.0352 36.9727 29.2578 36.3516L29.3828 36.0312L27.8125 31.7578H28.5469L29.7031 35.125H29.75L30.9062 31.7578H31.6406L29.8438 36.6094C29.5938 37.2773 29.1797 37.5898 28.5781 37.5938ZM34.4766 36V30.3438H35.1797V32.8594H38.1719V30.3438H38.8828V36H38.1719V33.4766H35.1797V36H34.4766ZM39.8359 34.7969C39.8359 33.8242 40.6953 33.6016 41.4297 33.5469C41.7031 33.5273 42.3867 33.4883 42.5781 33.4844V33.1406C42.5781 32.6016 42.2578 32.2891 41.6172 32.2891C41.082 32.2891 40.7578 32.5352 40.6641 32.8594H39.9609C40.0469 32.1758 40.7109 31.7031 41.6484 31.7031C42.2031 31.7031 43.2461 31.8672 43.2422 33.2031V36H42.5781V35.4219H42.5469C42.4062 35.707 42.0195 36.0977 41.2812 36.1016C40.4766 36.0977 39.8359 35.625 39.8359 34.7969ZM40.5078 34.8281C40.5117 35.2773 40.8828 35.5039 41.3984 35.5C42.1562 35.5039 42.5781 34.9961 42.5781 34.4609V34.0352C42.3789 34.0469 41.7109 34.0977 41.5078 34.1094C40.8984 34.1484 40.5117 34.3633 40.5078 34.8281ZM44.3203 36V31.7578H44.9922V36H44.3203ZM44.1875 30.6094C44.1836 30.3594 44.3984 30.1602 44.6562 30.1641C44.9141 30.1602 45.1289 30.3594 45.1328 30.6094C45.1289 30.8555 44.9141 31.0547 44.6562 31.0547C44.3984 31.0547 44.1836 30.8555 44.1875 30.6094ZM46.0625 36V31.7578H46.7109V32.4062H46.7578C46.9102 31.9766 47.3516 31.6914 47.8516 31.6875C47.9531 31.6914 48.125 31.6953 48.2031 31.7031V32.3828C48.1523 32.3711 47.9727 32.3359 47.7969 32.3359C47.1875 32.3359 46.7344 32.7578 46.7344 33.3281V36H46.0625ZM50.9531 30.3438H51.7969L53.7031 35H53.7734L55.6797 30.3438H56.5234V36H55.8594V31.7266H55.8047L54.0469 36H53.4219L51.6641 31.7266H51.6172V36H50.9531V30.3438ZM59.4219 36.0859C58.2656 36.0898 57.4844 35.2148 57.4844 33.8984C57.4844 32.5742 58.2656 31.7031 59.4219 31.7031C60.5742 31.7031 61.3477 32.5742 61.3438 33.8984C61.3477 35.2148 60.5742 36.0898 59.4219 36.0859ZM58.1562 33.8984C58.1602 34.7461 58.5586 35.4922 59.4219 35.4922C60.2773 35.4922 60.6719 34.7461 60.6719 33.8984C60.6719 33.0547 60.2773 32.2969 59.4219 32.2969C58.5586 32.2969 58.1602 33.0547 58.1562 33.8984ZM63.8281 36.0859C62.7695 36.0898 62.0234 35.2383 62.0234 33.8906C62.0234 32.5469 62.7695 31.7031 63.8359 31.7031C64.6602 31.7031 64.918 32.2031 65.0625 32.4297H65.1094V30.3438H65.7891V36H65.1328V35.3516H65.0625C64.9141 35.5859 64.6367 36.0898 63.8281 36.0859ZM62.7031 33.875C62.7031 34.7773 63.1172 35.4844 63.9219 35.4844C64.6992 35.4844 65.1289 34.8281 65.1328 33.875C65.1289 32.9336 64.7109 32.3047 63.9219 32.3047C63.1055 32.3047 62.7031 32.9883 62.7031 33.875ZM68.7344 36.0859C67.5078 36.0898 66.75 35.2148 66.75 33.9141C66.75 32.6094 67.5195 31.7031 68.6719 31.7031C69.5625 31.7031 70.5039 32.25 70.5 33.8203V34.1016H67.4219C67.457 35 67.9805 35.4922 68.7344 35.4922C69.2422 35.4922 69.5625 35.2695 69.7188 35.0078H70.4375C70.2383 35.6523 69.6094 36.0898 68.7344 36.0859ZM67.4258 33.5312H69.8203C69.8164 32.8242 69.3711 32.2969 68.6719 32.2969C67.9375 32.2969 67.4727 32.875 67.4258 33.5312ZM72.0469 30.3438V36H71.375V30.3438H72.0469ZM11.5781 39.125C11.4141 38.3438 10.7461 37.9219 10 37.9219C8.97656 37.9219 8.18359 38.7109 8.17969 40.1719C8.18359 41.6289 8.97656 42.418 10 42.4219C10.7461 42.418 11.4102 42 11.5781 41.2266H12.2812C12.0781 42.3828 11.1484 43.0781 10 43.0781C8.54688 43.0781 7.49609 41.9609 7.5 40.1719C7.49609 38.3828 8.54688 37.2656 10 37.2656C11.1445 37.2656 12.0703 37.9492 12.2812 39.125H11.5781ZM14.9141 43.0859C13.7578 43.0898 12.9766 42.2148 12.9766 40.8984C12.9766 39.5742 13.7578 38.7031 14.9141 38.7031C16.0664 38.7031 16.8398 39.5742 16.8359 40.8984C16.8398 42.2148 16.0664 43.0898 14.9141 43.0859ZM13.6484 40.8984C13.6523 41.7461 14.0508 42.4922 14.9141 42.4922C15.7695 42.4922 16.1641 41.7461 16.1641 40.8984C16.1641 40.0547 15.7695 39.2969 14.9141 39.2969C14.0508 39.2969 13.6523 40.0547 13.6484 40.8984ZM18.3906 40.4531V43H17.7188V38.7578H18.3672V39.4219H18.4219C18.6211 38.9883 19.0195 38.7031 19.6641 38.7031C20.5234 38.7031 21.0977 39.2266 21.0938 40.3047V43H20.4219V40.3516C20.4219 39.6953 20.0625 39.3047 19.4609 39.3047C18.8438 39.3047 18.3906 39.7188 18.3906 40.4531ZM22.8438 40.4531V43H22.1719V38.7578H22.8203V39.4219H22.875C23.0742 38.9883 23.4727 38.7031 24.1172 38.7031C24.9766 38.7031 25.5508 39.2266 25.5469 40.3047V43H24.875V40.3516C24.875 39.6953 24.5156 39.3047 23.9141 39.3047C23.2969 39.3047 22.8438 39.7188 22.8438 40.4531ZM28.4062 43.0859C27.1797 43.0898 26.4219 42.2148 26.4219 40.9141C26.4219 39.6094 27.1914 38.7031 28.3438 38.7031C29.2344 38.7031 30.1758 39.25 30.1719 40.8203V41.1016H27.0938C27.1289 42 27.6523 42.4922 28.4062 42.4922C28.9141 42.4922 29.2344 42.2695 29.3906 42.0078H30.1094C29.9102 42.6523 29.2812 43.0898 28.4062 43.0859ZM27.0977 40.5312H29.4922C29.4883 39.8242 29.043 39.2969 28.3438 39.2969C27.6094 39.2969 27.1445 39.875 27.0977 40.5312ZM32.7812 43.0859C31.5781 43.0898 30.8438 42.1719 30.8438 40.8984C30.8438 39.6094 31.6133 38.7031 32.7656 38.7031C33.668 38.7031 34.3477 39.2383 34.4531 40.0391H33.7812C33.6836 39.6523 33.3477 39.2969 32.7812 39.2969C32.0234 39.2969 31.5195 39.9219 31.5156 40.875C31.5195 41.8555 32.0117 42.4844 32.7812 42.4844C33.2812 42.4844 33.6641 42.2148 33.7812 41.75H34.4531C34.3477 42.5078 33.7227 43.0898 32.7812 43.0859ZM37.1328 38.7578V39.3203H36.2422V41.7812C36.2383 42.3242 36.5117 42.4141 36.7969 42.4141C36.918 42.4141 37.0977 42.4023 37.1953 42.3984V43.0234C37.0898 43.0391 36.9258 43.0547 36.7266 43.0547C36.1602 43.0547 35.5664 42.7031 35.5625 41.9531V39.3203H34.9219V38.7578H35.5625V37.7422H36.2422V38.7578H37.1328ZM38 43V38.7578H38.6719V43H38ZM37.8672 37.6094C37.8633 37.3594 38.0781 37.1602 38.3359 37.1641C38.5938 37.1602 38.8086 37.3594 38.8125 37.6094C38.8086 37.8555 38.5938 38.0547 38.3359 38.0547C38.0781 38.0547 37.8633 37.8555 37.8672 37.6094ZM41.4766 43.0859C40.3203 43.0898 39.5391 42.2148 39.5391 40.8984C39.5391 39.5742 40.3203 38.7031 41.4766 38.7031C42.6289 38.7031 43.4023 39.5742 43.3984 40.8984C43.4023 42.2148 42.6289 43.0898 41.4766 43.0859ZM40.2109 40.8984C40.2148 41.7461 40.6133 42.4922 41.4766 42.4922C42.332 42.4922 42.7266 41.7461 42.7266 40.8984C42.7266 40.0547 42.332 39.2969 41.4766 39.2969C40.6133 39.2969 40.2148 40.0547 40.2109 40.8984ZM44.9531 40.4531V43H44.2812V38.7578H44.9297V39.4219H44.9844C45.1836 38.9883 45.582 38.7031 46.2266 38.7031C47.0859 38.7031 47.6602 39.2266 47.6562 40.3047V43H46.9844V40.3516C46.9844 39.6953 46.625 39.3047 46.0234 39.3047C45.4062 39.3047 44.9531 39.7188 44.9531 40.4531ZM50.8281 43V37.3438H52.75C54.0742 37.3438 54.6797 38.1328 54.6797 39.1406C54.6797 40.1445 54.0742 40.9453 52.7578 40.9453H51.5312V43H50.8281ZM51.5312 40.3203H52.7266C53.6289 40.3203 53.9805 39.8125 53.9844 39.1406C53.9805 38.4648 53.6289 37.9688 52.7188 37.9688H51.5312V40.3203ZM56.25 37.3438V43H55.5781V37.3438H56.25ZM57.1172 41.7969C57.1172 40.8242 57.9766 40.6016 58.7109 40.5469C58.9844 40.5273 59.668 40.4883 59.8594 40.4844V40.1406C59.8594 39.6016 59.5391 39.2891 58.8984 39.2891C58.3633 39.2891 58.0391 39.5352 57.9453 39.8594H57.2422C57.3281 39.1758 57.9922 38.7031 58.9297 38.7031C59.4844 38.7031 60.5273 38.8672 60.5234 40.2031V43H59.8594V42.4219H59.8281C59.6875 42.707 59.3008 43.0977 58.5625 43.1016C57.7578 43.0977 57.1172 42.625 57.1172 41.7969ZM57.7891 41.8281C57.793 42.2773 58.1641 42.5039 58.6797 42.5C59.4375 42.5039 59.8594 41.9961 59.8594 41.4609V41.0352C59.6602 41.0469 58.9922 41.0977 58.7891 41.1094C58.1797 41.1484 57.793 41.3633 57.7891 41.8281ZM63.4531 38.7578V39.3203H62.5625V41.7812C62.5586 42.3242 62.832 42.4141 63.1172 42.4141C63.2383 42.4141 63.418 42.4023 63.5156 42.3984V43.0234C63.4102 43.0391 63.2461 43.0547 63.0469 43.0547C62.4805 43.0547 61.8867 42.7031 61.8828 41.9531V39.3203H61.2422V38.7578H61.8828V37.7422H62.5625V38.7578H63.4531ZM66.2188 38.7578V39.3203H65.2812V43H64.6016V39.3203H63.9219V38.7578H64.6016V38.1797C64.6055 37.4922 65.0625 37.0781 65.8125 37.0781C65.9766 37.0781 66.1719 37.0977 66.3125 37.125V37.7266C66.168 37.7031 66.0469 37.6953 65.9609 37.6953C65.4883 37.6953 65.2773 37.8906 65.2812 38.3281V38.7578H66.2188ZM68.5703 43.0859C67.4141 43.0898 66.6328 42.2148 66.6328 40.8984C66.6328 39.5742 67.4141 38.7031 68.5703 38.7031C69.7227 38.7031 70.4961 39.5742 70.4922 40.8984C70.4961 42.2148 69.7227 43.0898 68.5703 43.0859ZM67.3047 40.8984C67.3086 41.7461 67.707 42.4922 68.5703 42.4922C69.4258 42.4922 69.8203 41.7461 69.8203 40.8984C69.8203 40.0547 69.4258 39.2969 68.5703 39.2969C67.707 39.2969 67.3086 40.0547 67.3047 40.8984ZM71.375 43V38.7578H72.0234V39.4062H72.0703C72.2227 38.9766 72.6641 38.6914 73.1641 38.6875C73.2656 38.6914 73.4375 38.6953 73.5156 38.7031V39.3828C73.4648 39.3711 73.2852 39.3359 73.1094 39.3359C72.5 39.3359 72.0469 39.7578 72.0469 40.3281V43H71.375ZM74.1719 43V38.7578H74.8203V39.4219H74.875C75.0508 38.9688 75.4609 38.7031 76.0156 38.7031C76.5703 38.7031 76.9492 38.9688 77.1484 39.4219H77.1953C77.4102 38.9844 77.8594 38.7031 78.4688 38.7031C79.2227 38.7031 79.7656 39.1641 79.7656 40.1641V43H79.0938V40.1719C79.0898 39.5469 78.6992 39.3047 78.2344 39.3047C77.6445 39.3047 77.3086 39.7031 77.3047 40.2422V43H76.625V40.1016C76.6289 39.625 76.2852 39.3047 75.7969 39.3047C75.2891 39.3047 74.8438 39.7344 74.8438 40.3516V43H74.1719Z" fill="#D2D3D6"/>
</svg>
