<svg width="25" height="24" viewBox="0 0 25 24" fill="none" xmlns="http://www.w3.org/2000/svg">
<path d="M10.0795 9C10.3146 8.33167 10.7787 7.76811 11.3895 7.40913C12.0003 7.05016 12.7184 6.91894 13.4167 7.03871C14.115 7.15849 14.7483 7.52152 15.2046 8.06353C15.6608 8.60553 15.9106 9.29152 15.9095 10C15.9095 12 12.9095 13 12.9095 13M12.9895 17H12.9995M22.9895 12C22.9895 17.5228 18.5124 22 12.9895 22C7.46665 22 2.9895 17.5228 2.9895 12C2.9895 6.47715 7.46665 2 12.9895 2C18.5124 2 22.9895 6.47715 22.9895 12Z" stroke="#91B7FF" stroke-width="1.5" stroke-linecap="round" stroke-linejoin="round"/>
</svg>
