<svg width="25" height="24" viewBox="0 0 25 24" fill="none" xmlns="http://www.w3.org/2000/svg">
<path d="M8.4895 10.5H8.4995M12.9895 10.5H12.9995M17.4895 10.5H17.4995M10.8895 19.2L12.3495 21.1467C12.5666 21.4362 12.6752 21.5809 12.8083 21.6327C12.9248 21.678 13.0542 21.678 13.1707 21.6327C13.3038 21.5809 13.4124 21.4362 13.6295 21.1467L15.0895 19.2C15.3826 18.8091 15.5292 18.6137 15.708 18.4645C15.9464 18.2656 16.2278 18.1248 16.53 18.0535C16.7566 18 17.0009 18 17.4895 18C18.8873 18 19.5862 18 20.1376 17.7716C20.8726 17.4672 21.4567 16.8831 21.7611 16.1481C21.9895 15.5967 21.9895 14.8978 21.9895 13.5V7.8C21.9895 6.11984 21.9895 5.27976 21.6625 4.63803C21.3749 4.07354 20.916 3.6146 20.3515 3.32698C19.7097 3 18.8697 3 17.1895 3H8.7895C7.10934 3 6.26927 3 5.62753 3.32698C5.06304 3.6146 4.6041 4.07354 4.31648 4.63803C3.9895 5.27976 3.9895 6.11984 3.9895 7.8V13.5C3.9895 14.8978 3.9895 15.5967 4.21786 16.1481C4.52235 16.8831 5.10637 17.4672 5.84145 17.7716C6.39276 18 7.09168 18 8.4895 18C8.97808 18 9.22237 18 9.44901 18.0535C9.75119 18.1248 10.0326 18.2656 10.271 18.4645C10.4498 18.6137 10.5964 18.8091 10.8895 19.2ZM8.9895 10.5C8.9895 10.7761 8.76564 11 8.4895 11C8.21336 11 7.9895 10.7761 7.9895 10.5C7.9895 10.2239 8.21336 10 8.4895 10C8.76564 10 8.9895 10.2239 8.9895 10.5ZM13.4895 10.5C13.4895 10.7761 13.2656 11 12.9895 11C12.7134 11 12.4895 10.7761 12.4895 10.5C12.4895 10.2239 12.7134 10 12.9895 10C13.2656 10 13.4895 10.2239 13.4895 10.5ZM17.9895 10.5C17.9895 10.7761 17.7656 11 17.4895 11C17.2134 11 16.9895 10.7761 16.9895 10.5C16.9895 10.2239 17.2134 10 17.4895 10C17.7656 10 17.9895 10.2239 17.9895 10.5Z" stroke="#91B7FF" stroke-width="1.5" stroke-linecap="round" stroke-linejoin="round"/>
</svg>
