<svg width="25" height="24" viewBox="0 0 25 24" fill="none" xmlns="http://www.w3.org/2000/svg">
<path d="M14.9895 11H8.9895M10.9895 15H8.9895M16.9895 7H8.9895M20.9895 6.8V17.2C20.9895 18.8802 20.9895 19.7202 20.6625 20.362C20.3749 20.9265 19.916 21.3854 19.3515 21.673C18.7097 22 17.8697 22 16.1895 22H9.7895C8.10934 22 7.26927 22 6.62753 21.673C6.06304 21.3854 5.6041 20.9265 5.31648 20.362C4.9895 19.7202 4.9895 18.8802 4.9895 17.2V6.8C4.9895 5.11984 4.9895 4.27976 5.31648 3.63803C5.6041 3.07354 6.06304 2.6146 6.62753 2.32698C7.26927 2 8.10934 2 9.7895 2H16.1895C17.8697 2 18.7097 2 19.3515 2.32698C19.916 2.6146 20.3749 3.07354 20.6625 3.63803C20.9895 4.27976 20.9895 5.11984 20.9895 6.8Z" stroke="#91B7FF" stroke-width="1.5" stroke-linecap="round" stroke-linejoin="round"/>
</svg>
