<svg width="25" height="24" viewBox="0 0 25 24" fill="none" xmlns="http://www.w3.org/2000/svg">
<path d="M15.8868 13.937C17.179 13.937 18.2266 12.8895 18.2266 11.5974C18.2266 10.3053 17.179 9.25781 15.8868 9.25781C14.5945 9.25781 13.5469 10.3053 13.5469 11.5974C13.5469 12.8895 14.5945 13.937 15.8868 13.937Z" stroke="#8E9197" stroke-width="1.5" stroke-miterlimit="10"/>
<path d="M19.8445 20.3509C16.24 20.3336 13.6201 20.317 10.0156 20.2998C10.1538 17.6358 11.5446 15.6419 13.1961 15.3489C13.9841 15.2091 14.8847 15.4464 15.5449 15.936C16.4674 16.6196 17.1416 17.9581 16.7192 18.6688C16.5612 18.9352 16.2327 19.1406 15.8969 19.15C15.4985 19.1615 15.122 18.8961 14.9577 18.5958C14.552 17.8543 15.2669 16.5857 16.1321 15.936C16.7808 15.449 17.6819 15.1826 18.4808 15.3186C20.1271 15.5981 21.5351 17.616 21.6498 20.3227" stroke="#8E9197" stroke-width="1.5" stroke-linecap="round" stroke-linejoin="round"/>
<path d="M9.56644 8.67921C10.8587 8.67921 11.9063 7.63173 11.9063 6.33961C11.9063 5.04748 10.8587 4 9.56644 4C8.27416 4 7.22656 5.04748 7.22656 6.33961C7.22656 7.63173 8.27416 8.67921 9.56644 8.67921Z" stroke="#8E9197" stroke-width="1.5" stroke-miterlimit="10"/>
<path d="M13.532 15.3018C9.92751 15.2846 7.30759 15.2679 3.70312 15.2507C3.89346 13.4825 4.68455 12.4673 5.03029 12.0784C6.98115 9.88214 10.5773 9.79871 12.7711 11.0548C13.1184 11.2535 13.3802 11.4573 13.545 11.596" stroke="#8E9197" stroke-width="1.5" stroke-linecap="round" stroke-linejoin="round"/>
</svg>
