<svg width="25" height="24" viewBox="0 0 25 24" fill="none" xmlns="http://www.w3.org/2000/svg">
<path d="M7.27661 6.11962C8.95421 5.82189 10.8717 6.32767 12.2776 7.36999C14.2425 8.82579 15.6771 11.6753 14.7781 13.189C14.4412 13.7563 13.7419 14.1938 13.027 14.2141C12.1785 14.2381 11.377 13.6734 11.0271 13.0336C10.1635 11.4553 11.6852 8.75331 13.5276 7.36999C14.909 6.33288 16.827 5.7661 18.5286 6.05497" stroke="#8E9197" stroke-width="1.5" stroke-linecap="round" stroke-linejoin="round"/>
<path d="M12.8888 20.87C12.469 20.5812 11.8834 20.1546 11.2237 19.592C9.12838 17.8036 6.15178 15.2627 5.74659 11.5387C5.67358 10.8661 5.38572 7.3705 7.94462 4.94069C9.99247 2.99684 12.5733 2.99528 12.9034 3.00049C15.5853 3.04116 17.3078 4.61845 17.7453 5.03194C20.4956 7.63173 20.1676 11.3635 20.1358 11.6613C19.7493 15.3159 16.7055 17.8229 14.3234 19.785C13.7497 20.2574 13.2465 20.6213 12.8882 20.8695L12.8888 20.87Z" stroke="#8E9197" stroke-width="1.5" stroke-linecap="round" stroke-linejoin="round"/>
</svg>
