<svg width="25" height="24" viewBox="0 0 25 24" fill="none" xmlns="http://www.w3.org/2000/svg">
<path d="M3.71422 9.64144C3.92067 6.91088 5.5157 5.46029 5.5157 5.46029C5.77377 5.22534 7.08549 4.08111 8.92486 4.09638C12.5987 4.12691 14.673 8.75342 14.5341 10.506C14.4638 11.3924 14.0021 11.9223 14.0021 11.9223C13.8802 12.0624 13.4827 12.5045 12.8282 12.5808C11.9101 12.6876 11.2815 11.9822 11.2095 11.8983C10.762 11.3788 10.728 10.759 10.7137 10.506C10.605 8.5321 12.8227 3.94865 16.4443 4.00044C18.2722 4.0266 19.5608 5.22098 19.8189 5.46029C19.8189 5.46029 21.443 6.96594 21.6802 9.65834C21.9948 13.23 18.3765 17.3834 12.6602 20C7.04046 17.3398 3.44133 13.2409 3.71367 9.64144H3.71422Z" stroke="#91B7FF" stroke-width="1.5" stroke-linecap="round" stroke-linejoin="round"/>
</svg>
