<svg width="25" height="24" viewBox="0 0 25 24" fill="none" xmlns="http://www.w3.org/2000/svg">
<path d="M15.9892 19C15.9892 20.6569 14.6461 22 12.9892 22C11.3324 22 9.98922 20.6569 9.98922 19M14.7857 6.23856C15.2212 5.78864 15.4892 5.17562 15.4892 4.5C15.4892 3.11929 14.3699 2 12.9892 2C11.6085 2 10.4892 3.11929 10.4892 4.5C10.4892 5.17562 10.7572 5.78864 11.1927 6.23856M18.9892 11.2C18.9892 9.82087 18.3571 8.49823 17.2319 7.52304C16.1066 6.54786 14.5805 6 12.9892 6C11.3979 6 9.8718 6.54786 8.74658 7.52304C7.62136 8.49823 6.98922 9.82087 6.98922 11.2C6.98922 13.4818 6.42335 15.1506 5.71729 16.3447C4.91256 17.7056 4.5102 18.3861 4.52609 18.5486C4.54427 18.7346 4.57774 18.7933 4.72856 18.9036C4.86039 19 5.52273 19 6.84741 19H19.131C20.4557 19 21.1181 19 21.2499 18.9036C21.4007 18.7933 21.4342 18.7346 21.4524 18.5486C21.4682 18.3861 21.0659 17.7056 20.2612 16.3447C19.5551 15.1506 18.9892 13.4818 18.9892 11.2Z" stroke="#91B7FF" stroke-width="1.5" stroke-linecap="round" stroke-linejoin="round"/>
</svg>
