<svg width="25" height="24" viewBox="0 0 25 24" fill="none" xmlns="http://www.w3.org/2000/svg">
<path d="M7.56689 6.11962C9.24449 5.82189 11.162 6.32767 12.5679 7.36999C14.5328 8.82579 15.9674 11.6753 15.0684 13.189C14.7315 13.7563 14.0322 14.1938 13.3172 14.2141C12.4688 14.2381 11.6673 13.6734 11.3174 13.0336C10.4538 11.4553 11.9755 8.75331 13.8179 7.36999C15.1993 6.33288 17.1173 5.7661 18.8189 6.05497" stroke="#91B7FF" stroke-width="1.5" stroke-linecap="round" stroke-linejoin="round"/>
<path d="M13.179 20.87C12.7593 20.5812 12.1736 20.1546 11.514 19.592C9.41866 17.8036 6.44206 15.2627 6.03687 11.5387C5.96386 10.8661 5.67601 7.3705 8.2349 4.94069C10.2828 2.99684 12.8636 2.99528 13.1937 3.00049C15.8756 3.04116 17.5981 4.61845 18.0356 5.03194C20.7859 7.63173 20.4579 11.3635 20.426 11.6613C20.0396 15.3159 16.9958 17.8229 14.6136 19.785C14.04 20.2574 13.5368 20.6213 13.1785 20.8695L13.179 20.87Z" stroke="#91B7FF" stroke-width="1.5" stroke-linecap="round" stroke-linejoin="round"/>
</svg>
