<svg width="25" height="24" viewBox="0 0 25 24" fill="none" xmlns="http://www.w3.org/2000/svg">
<path d="M15.6714 13.9362C16.9637 13.9362 18.0113 12.8887 18.0113 11.5966C18.0113 10.3044 16.9637 9.25696 15.6714 9.25696C14.3791 9.25696 13.3315 10.3044 13.3315 11.5966C13.3315 12.8887 14.3791 13.9362 15.6714 13.9362Z" stroke="#91B7FF" stroke-width="1.5" stroke-miterlimit="10"/>
<path d="M19.6345 20.3501C16.03 20.3329 13.4101 20.3162 9.80566 20.299C9.94386 17.6351 11.3346 15.6412 12.9862 15.3482C13.7741 15.2084 14.6747 15.4457 15.3349 15.9353C16.2574 16.6189 16.9317 17.9573 16.5093 18.668C16.3513 18.9345 16.0227 19.1399 15.6869 19.1493C15.2885 19.1608 14.912 18.8954 14.7477 18.595C14.342 17.8536 15.057 16.585 15.9221 15.9353C16.5708 15.4483 17.4719 15.1818 18.2708 15.3179C19.9172 15.5974 21.3251 17.6153 21.4399 20.322" stroke="#91B7FF" stroke-width="1.5" stroke-linecap="round" stroke-linejoin="round"/>
<path d="M9.35477 8.67921C10.647 8.67921 11.6946 7.63173 11.6946 6.33961C11.6946 5.04748 10.647 4 9.35477 4C8.06249 4 7.01489 5.04748 7.01489 6.33961C7.01489 7.63173 8.06249 8.67921 9.35477 8.67921Z" stroke="#91B7FF" stroke-width="1.5" stroke-miterlimit="10"/>
<path d="M13.3183 15.3018C9.71388 15.2846 7.09397 15.2679 3.4895 15.2507C3.67984 13.4825 4.47093 12.4673 4.81667 12.0784C6.76752 9.88214 10.3636 9.79871 12.5575 11.0548C12.9048 11.2535 13.1666 11.4573 13.3314 11.596" stroke="#91B7FF" stroke-width="1.5" stroke-linecap="round" stroke-linejoin="round"/>
</svg>
