<svg width="25" height="24" viewBox="0 0 25 24" fill="none" xmlns="http://www.w3.org/2000/svg">
<circle cx="12.4735" cy="12" r="10" fill="#236FFF"/>
<mask id="path-2-outside-1_989_9646" maskUnits="userSpaceOnUse" x="5.97351" y="5.94995" width="13" height="12" fill="black">
<rect fill="white" x="5.97351" y="5.94995" width="13" height="12"/>
<path d="M8.96733 13.7244C9.0309 13.5757 9.06268 13.5013 9.10418 13.4317C9.14104 13.3699 9.18359 13.311 9.23137 13.2556C9.28517 13.1932 9.34777 13.1368 9.47299 13.0241L14.7252 8.29712C15.2396 7.83423 16.0734 7.83423 16.5878 8.29712C17.1021 8.76002 17.1021 9.51052 16.5878 9.97341L11.3355 14.7004C11.2103 14.8131 11.1477 14.8695 11.0784 14.9179C11.0168 14.9609 10.9513 14.9992 10.8827 15.0323C10.8054 15.0697 10.7227 15.0983 10.5574 15.1555L7.97351 16.05L8.96733 13.7244Z"/>
<path d="M8.93184 13.8075C9.00042 13.647 9.03471 13.5668 9.09352 13.53C9.14492 13.4979 9.20852 13.4858 9.26998 13.4963C9.3403 13.5084 9.40784 13.5692 9.54292 13.6908L10.5948 14.6375C10.7299 14.7591 10.7975 14.8198 10.8109 14.8831C10.8226 14.9385 10.8091 14.9957 10.7734 15.042C10.7326 15.0949 10.6435 15.1257 10.4652 15.1875L7.97351 16.05L8.93184 13.8075Z"/>
</mask>
<path d="M7.97351 16.05L6.73212 15.5194C6.5222 16.0106 6.62166 16.5794 6.98581 16.9703C7.34997 17.3611 7.91032 17.5004 8.41511 17.3257L7.97351 16.05ZM11.3355 14.7004L12.2386 15.7039L11.3355 14.7004ZM11.0784 14.9179L11.8514 16.0247L11.0784 14.9179ZM10.5574 15.1555L10.999 16.4312L10.5574 15.1555ZM10.8827 15.0323L10.2954 13.8168L10.8827 15.0323ZM9.47299 13.0241L10.3761 14.0276L9.47299 13.0241ZM9.23137 13.2556L8.20894 12.374H8.20894L9.23137 13.2556ZM8.96733 13.7244L7.72594 13.1939H7.72594L8.96733 13.7244ZM9.10418 13.4317L7.94474 12.7402L9.10418 13.4317ZM16.5878 8.29712L17.4909 7.29368V7.29368L16.5878 8.29712ZM16.5878 9.97341L15.6847 8.96996L15.6847 8.96996L16.5878 9.97341ZM14.7252 8.29712L15.6283 9.30057L14.7252 8.29712ZM10.5948 14.6375L9.69173 15.6409L10.5948 14.6375ZM10.8109 14.8831L9.49029 15.1633L10.8109 14.8831ZM10.4652 15.1875L10.9068 16.4632L10.9068 16.4632L10.4652 15.1875ZM10.7734 15.042L9.70456 14.2173L10.7734 15.042ZM9.54292 13.6908L10.446 12.6873L9.54292 13.6908ZM9.26998 13.4963L9.04131 14.8268L9.26998 13.4963ZM8.93184 13.8075L10.1732 14.338L10.1732 14.338L8.93184 13.8075ZM9.09352 13.53L8.3781 12.3852L9.09352 13.53ZM10.3761 14.0276L15.6283 9.30057L13.8221 7.29367L8.56988 12.0207L10.3761 14.0276ZM15.6847 8.96996L10.4324 13.697L12.2386 15.7039L17.4909 10.9769L15.6847 8.96996ZM10.1158 13.8798L7.53191 14.7742L8.41511 17.3257L10.999 16.4312L10.1158 13.8798ZM9.2149 16.5805L10.2087 14.2549L7.72594 13.1939L6.73212 15.5194L9.2149 16.5805ZM10.4324 13.697C10.3652 13.7575 10.3324 13.7869 10.3079 13.8078C10.2888 13.8242 10.2921 13.8203 10.3054 13.8111L11.8514 16.0247C12.0044 15.9178 12.1365 15.7958 12.2386 15.7039L10.4324 13.697ZM10.999 16.4312C11.1354 16.384 11.3052 16.3275 11.4699 16.2479L10.2954 13.8168C10.3074 13.811 10.3095 13.8111 10.2822 13.8212C10.2491 13.8336 10.204 13.8493 10.1158 13.8798L10.999 16.4312ZM10.3054 13.8111C10.3036 13.8123 10.3004 13.8144 10.2954 13.8168L11.4699 16.2479C11.6023 16.184 11.73 16.1095 11.8514 16.0247L10.3054 13.8111ZM8.56988 12.0207C8.46947 12.1111 8.33141 12.232 8.20894 12.374L10.2538 14.1371C10.2408 14.1522 10.2349 14.1567 10.2531 14.1394C10.2762 14.1176 10.3088 14.0882 10.3761 14.0276L8.56988 12.0207ZM10.2087 14.2549C10.225 14.2168 10.2374 14.1878 10.2482 14.1629C10.259 14.138 10.2659 14.1225 10.2708 14.1119C10.2794 14.0932 10.2755 14.1033 10.2636 14.1232L7.94474 12.7402C7.84636 12.9051 7.77619 13.0763 7.72594 13.1939L10.2087 14.2549ZM8.20894 12.374C8.11093 12.4877 8.02235 12.6101 7.94474 12.7402L10.2636 14.1232C10.2597 14.1297 10.2562 14.1343 10.2538 14.1371L8.20894 12.374ZM15.6847 9.30057C15.6638 9.28175 15.6235 9.22313 15.6235 9.13527C15.6235 9.0474 15.6638 8.98878 15.6847 8.96996L17.4909 10.9769C18.6011 9.97769 18.6011 8.29285 17.4909 7.29368L15.6847 9.30057ZM17.4909 7.29368C16.4631 6.36871 14.8499 6.36871 13.8221 7.29367L15.6283 9.30057C15.6215 9.30676 15.6185 9.30685 15.6237 9.30492C15.6298 9.30272 15.6413 9.29995 15.6565 9.29995C15.6717 9.29995 15.6832 9.30272 15.6892 9.30492C15.6945 9.30685 15.6915 9.30676 15.6847 9.30057L17.4909 7.29368ZM8.63982 14.6942L9.69173 15.6409L11.4979 13.634L10.446 12.6873L8.63982 14.6942ZM9.2149 16.5805L10.1732 14.338L7.69045 13.277L6.73212 15.5194L9.2149 16.5805ZM10.0236 13.9117L7.53191 14.7742L8.41511 17.3257L10.9068 16.4632L10.0236 13.9117ZM9.69173 15.6409C9.72804 15.6736 9.74824 15.6918 9.76362 15.7062C9.77956 15.721 9.77316 15.7159 9.75766 15.6991C9.74326 15.6835 9.69679 15.6323 9.64626 15.5516C9.59225 15.4654 9.5266 15.3345 9.49029 15.1633L12.1315 14.6029C12.0474 14.2065 11.8215 13.954 11.7393 13.8652C11.6519 13.7708 11.5457 13.677 11.4979 13.634L9.69173 15.6409ZM10.9068 16.4632C10.9728 16.4403 11.1041 16.3961 11.2184 16.3454C11.3252 16.298 11.6117 16.1654 11.8423 15.8666L9.70456 14.2173C9.803 14.0897 9.90734 14.0066 9.98228 13.9564C10.0528 13.9092 10.1081 13.8842 10.1233 13.8775C10.1397 13.8702 10.1437 13.8693 10.1211 13.8775C10.0991 13.8855 10.0711 13.8953 10.0236 13.9117L10.9068 16.4632ZM9.49029 15.1633C9.41675 14.8168 9.50758 14.4727 9.70456 14.2173L11.8423 15.8666C12.1107 15.5187 12.2285 15.0601 12.1315 14.6029L9.49029 15.1633ZM10.446 12.6873C10.3973 12.6435 10.2944 12.5491 10.1919 12.4723C10.083 12.3907 9.84399 12.2252 9.49864 12.1658L9.04131 14.8268C8.76629 14.7795 8.59618 14.6505 8.57244 14.6327C8.55573 14.6202 8.55095 14.6153 8.56725 14.6294C8.58325 14.6433 8.60355 14.6616 8.63982 14.6942L10.446 12.6873ZM10.1732 14.338C10.1918 14.2945 10.2015 14.2719 10.2092 14.2549C10.217 14.2375 10.2129 14.2481 10.2003 14.271C10.1803 14.3075 10.0668 14.5137 9.80894 14.6749L8.3781 12.3852C8.06144 12.5831 7.90135 12.8478 7.83238 12.9737C7.76878 13.0898 7.71389 13.2221 7.69045 13.277L10.1732 14.338ZM9.49864 12.1658C9.12078 12.1009 8.71954 12.1718 8.3781 12.3852L9.80894 14.6749C9.57029 14.824 9.29625 14.8706 9.04131 14.8268L9.49864 12.1658Z" fill="white" mask="url(#path-2-outside-1_989_9646)"/>
<path d="M8.42346 12.45L11.5735 15.6" stroke="white" stroke-width="1.35"/>
</svg>
